<?xml version="1.0" encoding="UTF-8"?>
<svg width="68px" height="69px" viewBox="0 0 68 69" version="1.1" xmlns="http://www.w3.org/2000/svg" xmlns:xlink="http://www.w3.org/1999/xlink">
    <title>C19ACEAF-E530-48C4-A342-87EE1E533AEF@3x</title>
    <g id="MVP" stroke="none" stroke-width="1" fill="none" fill-rule="evenodd">
        <g id="D---Homepage-with-GDPR" transform="translate(-165.000000, -78.000000)" fill="#2D3D59">
            <g id="Navigation/Desktop/Main" transform="translate(0.000000, 54.000000)">
                <g id="CLA-Black-Copy-6" transform="translate(165.000000, 24.000000)">
                    <path d="M24.7614896,42.4187736 C25.4793094,42.4187736 26.1830801,42.358762 26.8823141,42.2752107 L26.8823141,17.4133973 L31.1630371,15.1458878 L31.1630371,41.18483 C33.2196164,40.3557105 35.188389,39.1163906 37.0696475,37.4596048 L40.2589332,40.2972973 C37.4024349,42.8660273 34.3679817,44.6501017 31.1630371,45.6567858 L31.1630371,50.8327521 L41.2526124,50.8327521 L52.3569405,21.4966579 L56.8091792,21.5297879 L65.8061465,45.6147922 C67.1814921,41.9478349 67.9391176,37.9806742 67.9391176,33.8405987 C67.9391176,15.2122929 52.7299726,0.112612613 33.9691929,0.112612613 C27.9719953,0.112612613 22.3412442,1.66012787 17.449972,4.37067713 C19.7219704,3.58573089 22.1590453,3.18889858 24.7614896,3.18889858 C30.3980944,3.18889858 35.5646407,5.31923859 40.2589332,9.58267945 L37.0696475,12.3911654 C33.3175209,9.10549259 29.2168016,7.46076722 24.7614896,7.46076722 C19.9069498,7.46076722 15.7589613,9.16361523 12.3194265,12.5701831 C8.87886723,15.9764603 7.15873396,20.090526 7.15873396,24.9099099 C7.15873396,29.7503633 8.87886723,33.8782331 12.3194265,37.2929381 C15.7589613,40.7108399 19.9069498,42.4187736 24.7614896,42.4187736" id="Fill-1"></path>
                    <path d="M34.9261396,67.5430108 L39.6429692,55.0819529 L26.8823141,55.0819529 L26.8823141,46.5274629 C26.1830801,46.5967742 25.4762361,46.6304853 24.7614896,46.6304853 C18.703559,46.6304853 13.5424275,44.5135135 9.2789731,40.2811683 C5.01712853,36.0480965 2.88591356,30.9248765 2.88591356,24.9099099 C2.88591356,22.4856146 3.24255511,20.2053182 3.94456968,18.065388 C1.43007847,22.7725952 0,28.1402209 0,33.8405987 C0,52.4664342 15.2087059,67.5677129 33.9691929,67.5677129 C34.2899801,67.5677129 34.607255,67.5537634 34.9261396,67.5430108" id="Fill-3"></path>
                    <polyline id="Fill-5" points="46.0715905 50.8327521 63.1912629 50.8327521 58.6400953 38.4024993 54.6577687 27.5020343 50.695345 38.3532403 48.2011957 45.0767219 48.2291475 45.0882011 47.1734182 47.9205173 46.0715905 50.8327521"></polyline>
                    <path d="M44.466484,55.0797733 L39.946195,67.0373438 C48.1362187,65.5929962 55.303148,61.2321999 60.3371061,55.0797733 L44.466484,55.0797733" id="Fill-6"></path>
                </g>
            </g>
        </g>
    </g>
</svg>