<?xml version="1.0" encoding="UTF-8"?>
<svg width="72px" height="58px" viewBox="0 0 72 58" version="1.1" xmlns="http://www.w3.org/2000/svg" xmlns:xlink="http://www.w3.org/1999/xlink">
    <!-- Generator: sketchtool 64 (101010) - https://sketch.com -->
    <title>8BE6A84E-E52D-4F99-8AD4-43F32BB1BDAE@3x</title>
    <desc>Created with sketchtool.</desc>
    <g id="Page-1" stroke="none" stroke-width="1" fill="none" fill-rule="evenodd">
        <g id="Homepage--Interactions" transform="translate(-684.000000, -2891.000000)" fill="#2180BC" fill-rule="nonzero">
            <g id="Testimonials" transform="translate(0.000000, 2811.000000)">
                <g id="Group-10">
                    <path d="M701.297297,138 C705.261261,138 708.378378,136.695625 710.648649,134.086876 C712.918919,131.478127 714.054054,128.672828 714.054054,125.67098 C714.054054,121.454097 712.774775,118.255699 710.216216,116.075786 C707.657658,113.895872 704.144144,112.805915 699.675676,112.805915 L699.675676,112.805915 L694.486486,112.805915 C694.918919,109.089341 695.675676,106.051756 696.756757,103.693161 C697.837838,101.334566 699.387387,99.0831793 701.405405,96.9390018 C703.567568,94.6518792 705.693694,92.8114603 707.783784,91.4177449 C709.873874,90.0240296 712.612613,88.3622921 716,86.4325323 L716,86.4325323 L712.108108,80 C709.873874,81.3579791 707.099099,83.1090573 703.783784,85.2532348 C700.468468,87.3974122 697.333333,90.0061614 694.378378,93.0794824 C691.495495,96.0813309 689.045045,99.4941466 687.027027,103.31793 C685.009009,107.141713 684,111.376463 684,116.022181 C684,122.597659 685.333333,127.904498 688,131.942699 C690.666667,135.9809 695.099099,138 701.297297,138 Z M741.297297,138 C745.261261,138 748.378378,136.695625 750.648649,134.086876 C752.918919,131.478127 754.054054,128.672828 754.054054,125.67098 C754.054054,121.454097 752.774775,118.255699 750.216216,116.075786 C747.657658,113.895872 744.144144,112.805915 739.675676,112.805915 L739.675676,112.805915 L734.486486,112.805915 C734.918919,109.089341 735.657658,106.069624 736.702703,103.746765 C737.747748,101.423906 739.315315,99.1546519 741.405405,96.9390018 C743.567568,94.6518792 745.693694,92.8114603 747.783784,91.4177449 C749.873874,90.0240296 752.612613,88.3622921 756,86.4325323 L756,86.4325323 L752.108108,80 C749.873874,81.3579791 747.099099,83.1090573 743.783784,85.2532348 C740.468468,87.3974122 737.333333,90.0061614 734.378378,93.0794824 C731.495495,96.0813309 729.045045,99.4941466 727.027027,103.31793 C725.009009,107.141713 724,111.376463 724,116.022181 C724,122.597659 725.333333,127.904498 728,131.942699 C730.666667,135.9809 735.099099,138 741.297297,138 Z" id="“"></path>
                </g>
            </g>
        </g>
    </g>
</svg>