<?xml version="1.0" encoding="UTF-8" standalone="no"?>
<!DOCTYPE svg  PUBLIC '-//W3C//DTD SVG 1.1//EN'  'http://www.w3.org/Graphics/SVG/1.1/DTD/svg11.dtd'>
<svg xmlns="http://www.w3.org/2000/svg">
<defs>
<font id="FranklinGothic-DemiCond" horiz-adv-x="1047">
<font-face underline-position="-103" font-weight="400" descent="-410" panose-1="2 11 7 6 3 4 2 2 2 4" units-per-em="2048" unicode-range="U+0020-F006" font-stretch="condensed" bbox="-318 -442 1968 1869" x-height="1010" underline-thickness="102" font-family="FranklinGothic" ascent="1638" cap-height="1365"/>
<missing-glyph horiz-adv-x="2048"/>
<glyph glyph-name=".notdef" horiz-adv-x="2048"/>
<glyph glyph-name=".null" horiz-adv-x="0"/>
<glyph glyph-name="nonmarkingreturn" horiz-adv-x="2048"/>
<glyph glyph-name="space" horiz-adv-x="382" unicode=" "/>
<glyph glyph-name="exclam" horiz-adv-x="698" unicode="!" d="M209 302h279v-302h-279v302zM169 1365h360l-89 -958h-183z"/>
<glyph glyph-name="quotedbl" d="M584 1365h264l-38 -600h-188zM200 1365h264l-38 -600h-187z" unicode='&quot;'/>
<glyph glyph-name="numbersign" d="M439 805l-33 -219h202l33 219h-202zM347 1365h177l-60 -395h202l60 395h177l-60 -395h184l-25 -165h-184l-33 -219h184l-25 -167h-184l-64 -419h-176l63 419h-203l-63 -419h-177l64 419h-184l25 167h184l33 219h-184l25 165h184z" unicode="#"/>
<glyph glyph-name="dollar" d="M447 1479h154v-142q258 -31 334 -292l-212 -87q-62 179 -192 179q-65 0 -104.5 -40t-39.5 -97q0 -58 38 -89t163 -77q137 -50 215 -94.5t124.5 -123t46.5 -183.5q0 -161 -96 -268.5t-277 -126.5v-184h-154v183q-302 31 -374 351l238 62q33 -201 219 -201q87 0 128 43 t41 104q0 63 -41 95.5t-182 82.5q-127 44 -198.5 87t-116 120.5t-44.5 180.5q0 135 79.5 243t250.5 132v142z" unicode="$"/>
<glyph glyph-name="percent" horiz-adv-x="1361" unicode="%" d="M1111 344q0 128 -19.5 164t-56.5 36q-40 0 -57.5 -41t-17.5 -159q0 -127 19.5 -163.5t55.5 -36.5q41 0 58.5 41.5t17.5 158.5zM1305 344q0 -172 -72 -261.5t-198 -89.5t-198 90t-72 261q0 172 72.5 261.5t197.5 89.5q124 0 197 -88t73 -263zM928 1365h154l-644 -1365 h-155zM401 1021q0 128 -19.5 164t-55.5 36q-40 0 -58 -40t-18 -160q0 -128 19.5 -164t56.5 -36q40 0 57.5 41.5t17.5 158.5zM596 1021q0 -171 -72 -261t-198 -90q-125 0 -197.5 88t-72.5 263q0 172 71.5 261.5t198.5 89.5t198.5 -90t71.5 -261z"/>
<glyph glyph-name="ampersand" horiz-adv-x="1326" unicode="&amp;" d="M518 618q-139 -84 -139 -218q0 -86 51 -141t144 -55q109 0 191 80zM635 888q123 69 123 188q0 48 -26.5 81.5t-79.5 33.5q-51 0 -79 -30t-28 -77q0 -73 90 -196zM1046 781l223 -40q-55 -242 -186 -437q71 -74 139 -74q9 0 47 2v-232q-56 -14 -104 -14q-142 0 -265 129 q-167 -136 -371 -136q-226 0 -330.5 121t-104.5 282q0 263 310 394q-127 174 -127 306q0 123 100.5 213.5t259.5 90.5q161 0 255.5 -94t94.5 -232q0 -206 -236 -328l189 -251q65 106 106 300z"/>
<glyph glyph-name="quotesingle" horiz-adv-x="698" unicode="&apos;" d="M217 1365h264l-38 -600h-187z"/>
<glyph glyph-name="parenleft" horiz-adv-x="698" unicode="(" d="M351 1365h220q-208 -387 -208 -853t208 -854h-220q-248 369 -248 854q0 486 248 853z"/>
<glyph glyph-name="parenright" horiz-adv-x="698" unicode=")" d="M347 -342h-221q96 172 152 403.5t56 450.5q0 218 -56 449.5t-152 403.5h221q247 -370 247 -853t-247 -854z"/>
<glyph glyph-name="asterisk" d="M437 1365h171l-24 -251l207 140l83 -153l-223 -99l223 -98l-83 -153l-207 140l24 -251h-171l25 251l-207 -140l-83 153l223 98l-223 99l83 153l207 -140z" unicode="*"/>
<glyph glyph-name="plus" d="M636 791h306v-217h-306v-310h-225v310h-306v217h306v310h225v-310z" unicode="+"/>
<glyph glyph-name="comma" horiz-adv-x="523" unicode="," d="M122 302h279v-275l-169 -350h-110l131 323h-131v302z"/>
<glyph glyph-name="hyphen" horiz-adv-x="558" unicode="-" d="M76 628h407v-221h-407v221z"/>
<glyph glyph-name="period" horiz-adv-x="523" unicode="." d="M122 302h279v-302h-279v302z"/>
<glyph glyph-name="slash" horiz-adv-x="1081" unicode="/" d="M792 1365h190l-832 -1707h-190z"/>
<glyph glyph-name="zero" d="M662 683q0 310 -28 397.5t-111 87.5q-75 0 -107.5 -74t-32.5 -411q0 -333 31.5 -409t108.5 -76q74 0 106.5 71.5t32.5 413.5zM979 699q0 -370 -106.5 -545t-349.5 -175q-251 0 -353.5 181.5t-102.5 504.5q0 372 106.5 546.5t349.5 174.5q251 0 353.5 -181.5t102.5 -505.5 z" unicode="0"/>
<glyph glyph-name="one" d="M505 1377h229v-1154h226v-223h-756v223h230v806q-102 -106 -230 -171v267q183 96 301 252z" unicode="1"/>
<glyph glyph-name="two" d="M330 884l-273 55q67 447 452 447q208 0 316.5 -115.5t108.5 -282.5q0 -172 -120 -336.5t-451 -384.5h590l-22 -267h-874v267q375 321 468 453.5t93 251.5q0 170 -128 170q-77 0 -112.5 -67t-47.5 -191z" unicode="2"/>
<glyph glyph-name="three" d="M325 986l-261 49q103 351 450 351q190 0 296.5 -98.5t106.5 -267.5q0 -216 -203 -304q230 -73 230 -325q0 -202 -126 -307t-321 -105q-175 0 -304 92t-160 312l265 44q20 -204 178 -204q73 0 116 49t43 140q0 186 -210 186l-83 -1v221h83q67 0 105 12.5t63.5 52.5 t25.5 105q0 166 -137 166q-120 0 -157 -168z" unicode="3"/>
<glyph glyph-name="four" d="M566 538v562l-303 -562h303zM516 1386h326v-832h153v-233h-153v-321h-300v321h-491v233z" unicode="4"/>
<glyph glyph-name="five" d="M177 1365h730l-29 -267h-482l-17 -308q85 117 233 117q146 0 256.5 -107t110.5 -340q0 -238 -127 -359.5t-331 -121.5q-190 0 -312 105t-140 281l273 45q23 -187 177 -187q169 0 169 221q0 98 -45 158.5t-129 60.5q-110 0 -150 -106l-235 45z" unicode="5"/>
<glyph glyph-name="six" d="M698 433q0 209 -148 209q-155 0 -155 -229q0 -109 41.5 -162.5t109.5 -53.5q152 0 152 236zM981 1023l-243 -73q-33 218 -171 218q-86 0 -134 -88.5t-51 -373.5q84 155 250 155q151 0 254 -114.5t103 -313.5q0 -223 -121 -338.5t-310 -115.5q-453 0 -453 686 q0 371 125 546t346 175q161 0 266 -91.5t139 -271.5z" unicode="6"/>
<glyph glyph-name="seven" d="M141 1365h811v-230q-326 -421 -331 -1135h-326q8 625 400 1098h-577z" unicode="7"/>
<glyph glyph-name="eight" d="M456 575q-131 -80 -131 -200q0 -86 52 -137.5t143 -51.5q85 0 135 47t50 112q0 53 -41.5 105t-207.5 125zM594 835q97 92 97 188q0 75 -39.5 121.5t-112.5 46.5q-70 0 -114 -42t-44 -107q0 -78 69.5 -127t143.5 -80zM775 745q211 -124 211 -354q0 -172 -121 -292 t-356 -120q-226 0 -337.5 105t-111.5 271q0 99 46.5 174.5t176.5 143.5q-184 116 -184 321q0 160 108 276t327 116q208 0 311.5 -96.5t103.5 -252.5q0 -191 -174 -292z" unicode="8"/>
<glyph glyph-name="nine" d="M652 958q0 100 -42 155t-114 55q-61 0 -104.5 -52t-43.5 -157q0 -210 152 -210t152 209zM89 312l261 51q26 -166 146 -166q168 0 168 389l-1 42q-80 -123 -238 -123q-178 0 -272.5 135.5t-94.5 300.5q0 182 108 313.5t324 131.5q190 0 288 -101.5t131.5 -258t33.5 -320.5 q0 -727 -459 -727q-319 0 -395 333z" unicode="9"/>
<glyph glyph-name="colon" horiz-adv-x="523" unicode=":" d="M122 302h279v-302h-279v302zM122 1010h279v-303l-279 1v302z"/>
<glyph glyph-name="less" d="M967 1276v-304l-564 -290l563 -291l1 -302l-887 466v256z" unicode="&lt;"/>
<glyph glyph-name="equal" d="M942 407h-837v216h837v-216zM942 742h-837v216h837v-216z" unicode="="/>
<glyph glyph-name="greater" d="M80 89v304l564 290l-562 291l-2 302l887 -466v-256z" unicode="&gt;"/>
<glyph glyph-name="question" horiz-adv-x="977" unicode="?" d="M315 291h268v-291h-268v291zM315 896l-256 36q4 203 112 328.5t307 125.5q210 0 306 -115t96 -268q0 -119 -46 -199.5t-155 -177.5q-77 -69 -93.5 -104.5t-16.5 -130.5h-240v45q0 125 13.5 179.5t103.5 142.5q75 73 103.5 125.5t28.5 125.5q0 67 -35 100t-82 33 q-145 0 -146 -246z"/>
<glyph glyph-name="at" horiz-adv-x="1291" unicode="@" d="M734 732q0 136 -70 136q-49 0 -82 -68.5t-33 -184.5q0 -155 77 -155q108 0 108 272zM814 1040h138l-58 -418q-11 -81 -11 -120q0 -71 45 -71q61 0 110.5 100.5t49.5 244.5q0 227 -106 355.5t-303 128.5q-202 0 -333 -154.5t-131 -422.5q0 -256 126.5 -414t360.5 -158 q193 0 355 110l55 -133q-198 -128 -419 -128q-295 0 -475 195.5t-180 521.5q0 318 176.5 525.5t464.5 207.5q275 0 425.5 -172.5t150.5 -440.5q0 -228 -108.5 -374.5t-245.5 -146.5q-117 0 -151 116q-62 -118 -176 -118q-92 0 -151.5 92t-59.5 247q0 187 84.5 314t205.5 127 q100 0 148 -105z"/>
<glyph glyph-name="A" d="M630 516l-137 557l-133 -557h270zM370 1365h302l390 -1365h-307l-68 282h-384l-67 -282h-276z" unicode="A"/>
<glyph glyph-name="B" horiz-adv-x="1151" unicode="B" d="M417 235h147q207 0 207 178q0 99 -51.5 139.5t-155.5 40.5h-147v-358zM417 814h97q145 0 182.5 52t37.5 119q0 62 -37.5 110.5t-160.5 48.5h-119v-330zM129 1365h466q164 0 247.5 -26t140 -114t56.5 -219q0 -229 -195 -294q232 -82 232 -335q0 -133 -63 -224.5 t-155.5 -122t-262.5 -30.5h-466v1365z"/>
<glyph glyph-name="C" horiz-adv-x="1117" unicode="C" d="M793 497l277 -17q-15 -222 -141 -361.5t-333 -139.5q-252 0 -384 187t-132 515q0 331 131 518t389 187q427 0 465 -528l-274 -20q-11 304 -190 304q-94 0 -149.5 -98t-55.5 -380q0 -252 51 -346.5t153 -94.5q164 0 193 274z"/>
<glyph glyph-name="D" horiz-adv-x="1151" unicode="D" d="M429 1131v-896h51q104 0 161 40t91 139.5t34 287.5q0 174 -37.5 268t-94 127.5t-154.5 33.5h-51zM129 1365h323q210 0 341.5 -56.5t210.5 -208.5t79 -411q0 -184 -48 -326.5t-126 -224.5t-176 -110t-245 -28h-359v1365z"/>
<glyph glyph-name="E" horiz-adv-x="977" unicode="E" d="M129 1365h830v-234h-530v-317h412v-235h-412v-335h530v-244h-830v1365z"/>
<glyph glyph-name="F" horiz-adv-x="907" unicode="F" d="M129 1365h810v-234h-510v-357h393v-234h-393v-540h-300v1365z"/>
<glyph glyph-name="G" horiz-adv-x="1187" unicode="G" d="M608 728h474v-728h-127l-39 156q-110 -177 -330 -177q-233 0 -369.5 183.5t-136.5 493.5q0 337 134.5 533.5t397.5 196.5q419 0 470 -468l-270 -44q-28 268 -194 268q-101 0 -161.5 -99t-60.5 -375q0 -245 59 -345t173 -100q183 0 184 270h-204v235z"/>
<glyph glyph-name="H" horiz-adv-x="1186" unicode="H" d="M129 1365h300v-551h328v551h300v-1365h-300v558h-328v-558h-300v1365z"/>
<glyph glyph-name="I" horiz-adv-x="558" unicode="I" d="M129 1365h300v-1365h-300v1365z"/>
<glyph glyph-name="J" horiz-adv-x="663" unicode="J" d="M241 1365h300v-906q0 -173 -25.5 -269.5t-105.5 -153.5t-237 -57q-68 0 -183 21v251q72 -14 121 -14q79 0 104.5 42.5t25.5 179.5v906z"/>
<glyph glyph-name="K" horiz-adv-x="1081" unicode="K" d="M129 1365h300v-569l332 569h303l-342 -502l371 -863h-310l-240 629l-114 -165v-464h-300v1365z"/>
<glyph glyph-name="L" horiz-adv-x="872" unicode="L" d="M129 1365h300v-1109h440v-256h-740v1365z"/>
<glyph glyph-name="M" horiz-adv-x="1535" unicode="M" d="M129 1365h440l193 -843l217 843h427v-1365h-281v1143l-279 -1143h-218l-255 1143v-1143h-244v1365z"/>
<glyph glyph-name="N" horiz-adv-x="1151" unicode="N" d="M118 1365h333l351 -848v848h232v-1365h-268l-416 988v-988h-232v1365z"/>
<glyph glyph-name="O" horiz-adv-x="1151" unicode="O" d="M755 683q0 276 -43 367.5t-137 91.5q-93 0 -136 -92t-43 -367q0 -270 42.5 -365t136.5 -95q93 0 136.5 91t43.5 369zM1071 683q0 -704 -495 -704q-246 0 -371 179.5t-125 524.5q0 703 495 703q242 0 369 -176t127 -527z"/>
<glyph glyph-name="P" d="M429 1144v-404h93q123 0 158.5 57t35.5 148q0 77 -27.5 124.5t-64 61t-102.5 13.5h-93zM129 1365h393q179 0 277.5 -30t165.5 -135.5t67 -261.5q0 -150 -54 -248t-149.5 -141.5t-293.5 -43.5h-106v-505h-300v1365z" unicode="P"/>
<glyph glyph-name="Q" horiz-adv-x="1151" unicode="Q" d="M755 683q0 276 -43 367.5t-137 91.5q-93 0 -136 -92t-43 -367q0 -270 42.5 -365t136.5 -95q93 0 136.5 91t43.5 369zM1021 -48v-216q-65 -18 -128 -18q-256 0 -272 263q-37 -2 -57 -2q-221 0 -352.5 169.5t-131.5 534.5q0 703 495 703q245 0 370.5 -178t125.5 -513 q0 -241 -55.5 -403.5t-194.5 -252.5q1 -59 25 -80.5t73 -21.5q46 0 102 15z"/>
<glyph glyph-name="R" horiz-adv-x="1116" unicode="R" d="M429 1144v-383h132q176 0 176 197q0 68 -26 111.5t-60.5 59t-101.5 15.5h-120zM129 1365h429q125 0 191.5 -11.5t134.5 -62t106.5 -138t38.5 -196.5q0 -256 -192 -360l251 -597h-327l-182 540h-150v-540h-300v1365z"/>
<glyph glyph-name="S" d="M964 1068l-248 -95q-53 169 -194 169q-66 0 -104.5 -37.5t-38.5 -87.5q0 -58 45.5 -92.5t190.5 -90.5q132 -49 207.5 -97t122 -130.5t46.5 -191.5q0 -191 -131.5 -313.5t-352.5 -122.5q-371 0 -474 375l262 75q48 -206 219 -206q78 0 126.5 40.5t48.5 106.5 q0 50 -34 89.5t-156 83.5q-157 56 -234 101.5t-127 130t-50 192.5q0 184 118.5 301.5t313.5 117.5q356 0 444 -318z" unicode="S"/>
<glyph glyph-name="T" horiz-adv-x="802" unicode="T" d="M-24 1365h851v-256h-279v-1109h-300v1109h-272v256z"/>
<glyph glyph-name="U" horiz-adv-x="1186" unicode="U" d="M129 1365h300v-780q0 -165 15 -230t62.5 -98.5t116.5 -33.5q75 0 119 37t54 98t10 227v780h251v-768q0 -230 -26.5 -343t-135 -194t-298.5 -81q-178 0 -280 59.5t-145 167t-43 379.5v780z"/>
<glyph glyph-name="V" horiz-adv-x="942" unicode="V" d="M-28 1365h315l210 -1040l217 1040h257l-335 -1372l-336 7z"/>
<glyph glyph-name="W" horiz-adv-x="1465" unicode="W" d="M-11 1365h307l143 -945l179 945h275l168 -947l167 947h253l-293 -1372h-269l-182 949l-186 -949h-266z"/>
<glyph glyph-name="X" horiz-adv-x="977" unicode="X" d="M10 1365h334l163 -355l172 355h287l-322 -617l364 -748h-329l-199 446l-224 -446h-287l375 700z"/>
<glyph glyph-name="Y" horiz-adv-x="907" unicode="Y" d="M-58 1365h330l193 -498l206 498h293l-379 -788v-577h-300v577z"/>
<glyph glyph-name="Z" horiz-adv-x="942" unicode="Z" d="M44 1365h877v-213l-571 -908h589v-244h-937v209l575 912h-533v244z"/>
<glyph glyph-name="bracketleft" horiz-adv-x="698" unicode="[" d="M150 1365h421v-128h-172v-1451h172v-128h-421v1707z"/>
<glyph glyph-name="backslash" horiz-adv-x="1082" unicode="\" d="M289 1365l832 -1707h-189l-833 1707h190z"/>
<glyph glyph-name="bracketright" horiz-adv-x="698" unicode="]" d="M548 -342h-421v128h172v1451h-172v128h421v-1707z"/>
<glyph glyph-name="asciicircum" horiz-adv-x="1024" unicode="^" d="M301 718h-270l311 655h339l311 -655h-270l-210 449z"/>
<glyph glyph-name="underscore" horiz-adv-x="1024" unicode="_" d="M0 -116h1024v-182h-1024v182z"/>
<glyph glyph-name="grave" horiz-adv-x="942" unicode="`" d="M651 1203l-84 -84l-369 231l112 167z"/>
<glyph glyph-name="a" horiz-adv-x="977" unicode="a" d="M593 483q-123 -14 -175.5 -54.5t-52.5 -136.5q0 -128 94 -128q51 0 92.5 57.5t41.5 211.5v50zM374 689l-267 26q19 152 129.5 234t278.5 82q142 0 228 -54.5t108.5 -126.5t22.5 -223v-403q0 -188 17 -224h-261q-14 41 -14 155q-93 -176 -277 -176q-118 0 -192 70.5 t-74 205.5q0 169 112 261.5t408 110.5v38q0 101 -20.5 140t-79.5 39q-108 0 -119 -155z"/>
<glyph glyph-name="b" horiz-adv-x="977" unicode="b" d="M381 419q0 -139 26 -192t92 -53q73 0 100 75.5t27 254.5q0 173 -26 253t-96 80q-123 0 -123 -185v-233zM104 1365h277v-450q82 109 210 109q140 0 233 -126t93 -387q0 -251 -91 -391.5t-266 -140.5q-172 0 -236 153q-29 -52 -53 -132h-167v1365z"/>
<glyph glyph-name="c" horiz-adv-x="907" unicode="c" d="M858 638l-262 -10q-6 93 -30 140.5t-81 47.5q-142 0 -142 -298q0 -173 34.5 -242t102.5 -69q106 0 116 187l262 -17q-35 -398 -396 -398q-195 0 -298.5 131.5t-103.5 391.5q0 258 108.5 393t304.5 135q354 0 385 -392z"/>
<glyph glyph-name="d" horiz-adv-x="977" unicode="d" d="M598 587q0 149 -31.5 199.5t-91.5 50.5q-71 0 -96.5 -70t-25.5 -290q0 -164 28 -230t92 -66q54 0 89.5 44.5t35.5 182.5v179zM598 1365h277v-1365h-261v167q-64 -181 -230 -181q-163 0 -243 142t-80 373q0 263 91.5 393t244.5 130q141 0 201 -108v449z"/>
<glyph glyph-name="e" horiz-adv-x="942" unicode="e" d="M615 621q1 18 1 28q0 195 -132 195q-130 0 -131 -223h262zM881 458h-530v-56q0 -136 37 -182t97 -46q129 0 145 173l251 -16q-67 -352 -401 -352q-206 0 -313 139t-107 372q0 263 113.5 401.5t304.5 138.5q172 0 287.5 -122.5t115.5 -449.5z"/>
<glyph glyph-name="f" horiz-adv-x="593" unicode="f" d="M422 1010h178v-222h-178v-788h-270v788h-115v222h115q1 149 23 223t95 130t199 56q74 0 142 -10v-220q-34 4 -63 4q-81 0 -103.5 -34.5t-22.5 -148.5z"/>
<glyph glyph-name="g" horiz-adv-x="942" unicode="g" d="M364 44q-89 -41 -89 -122q0 -102 232 -102q199 0 199 106q0 39 -21.5 63.5t-55 31t-140.5 11.5q-63 4 -125 12zM579 716q0 163 -89 163q-54 0 -76.5 -39.5t-22.5 -130.5q0 -153 97 -153q49 0 70 36t21 124zM963 1176v-184q-32 8 -61 8q-88 0 -107 -91q75 -79 75 -202 q0 -137 -102 -219.5t-264 -82.5q-62 0 -131 17q-66 -36 -66 -83q0 -38 37 -50t202 -21q152 -9 227.5 -30t126 -86t50.5 -171q0 -338 -493 -338q-414 0 -414 241q0 133 165 188q-132 62 -132 175q0 130 174 222q-150 74 -150 252q0 151 103.5 230t276.5 79q115 0 216 -44 q11 108 54 154t135 46q44 0 78 -10z"/>
<glyph glyph-name="h" horiz-adv-x="977" unicode="h" d="M104 1365h282v-462q76 128 248 128q103 0 162.5 -48t75.5 -121.5t16 -213.5v-648h-282v648q0 99 -18.5 131.5t-76.5 32.5q-57 0 -91 -31t-34 -141v-640h-282v1365z"/>
<glyph glyph-name="i" horiz-adv-x="488" unicode="i" d="M103 1010h282v-1010h-282v1010zM387 1093h-286v279h286v-279z"/>
<glyph glyph-name="j" horiz-adv-x="488" unicode="j" d="M113 1010h282v-977q0 -156 -17 -234t-81 -123.5t-163 -45.5q-63 0 -151 14v231q21 -3 37 -3q62 0 77.5 31t15.5 138v969zM397 1093h-286v279h286v-279z"/>
<glyph glyph-name="k" horiz-adv-x="942" unicode="k" d="M104 1365h282v-745l284 390h256l-255 -339l280 -671h-304l-158 469l-103 -142v-327h-282v1365z"/>
<glyph glyph-name="l" horiz-adv-x="488" unicode="l" d="M103 1365h282v-1365h-282v1365z"/>
<glyph glyph-name="m" horiz-adv-x="1430" unicode="m" d="M104 1010h267v-138q72 158 245 158q180 0 218 -158q68 158 245 158q99 0 157.5 -36t81.5 -98.5t23 -235.5v-660h-281v631q0 113 -16 147t-71 34q-66 0 -86 -44.5t-20 -179.5v-588h-282v640q0 108 -15.5 140t-70.5 32q-68 0 -90.5 -46.5t-22.5 -177.5v-588h-282v1010z"/>
<glyph glyph-name="n" horiz-adv-x="977" unicode="n" d="M104 1010h267v-138q70 158 253 158q99 0 163.5 -44.5t82.5 -113.5t18 -210v-662h-282v662q0 102 -26 126t-70 24q-76 0 -100 -46.5t-24 -173.5v-592h-282v1010z"/>
<glyph glyph-name="o" horiz-adv-x="942" unicode="o" d="M591 505q0 193 -26.5 261t-92.5 68q-64 0 -92 -64.5t-28 -264.5q0 -185 24 -257t96 -72q69 0 94 71.5t25 257.5zM882 505q0 -526 -410 -526q-411 0 -411 526q0 525 411 525q410 0 410 -525z"/>
<glyph glyph-name="p" horiz-adv-x="977" unicode="p" d="M381 413q0 -145 23.5 -188.5t95.5 -43.5q64 0 95 58t31 281q0 186 -27 252t-91 66q-53 0 -90 -41.5t-37 -192.5v-191zM104 1010h260v-151q83 164 230 164q139 0 231 -123.5t92 -377.5q0 -266 -90 -401t-253 -135q-117 0 -193 89v-417h-277v1352z"/>
<glyph glyph-name="q" horiz-adv-x="977" unicode="q" d="M588 608q0 140 -29.5 185t-89.5 45q-69 0 -93.5 -55.5t-24.5 -253.5q0 -222 26 -285t93 -63q55 0 86.5 51.5t31.5 226.5v149zM719 1010h155q-9 -75 -9 -258v-1094h-277v447q-79 -119 -207 -119q-143 0 -231.5 132.5t-88.5 370.5q0 286 93.5 410.5t247.5 124.5 q151 0 240 -145q45 50 77 131z"/>
<glyph glyph-name="r" horiz-adv-x="628" unicode="r" d="M104 1010h248v-244q67 257 239 257q21 0 48 -5v-275q-31 4 -47 4q-206 0 -206 -312v-435h-282v1010z"/>
<glyph glyph-name="s" horiz-adv-x="837" unicode="s" d="M770 767l-201 -60q-40 137 -148 137q-88 0 -88 -88q0 -50 33 -76t136 -62q116 -41 170 -72t91 -93.5t37 -143.5q0 -140 -101 -235t-282 -95q-341 0 -378 301l224 36q28 -151 159 -151q112 0 112 94q0 50 -33 76t-128 56q-174 56 -239 135t-65 183q0 146 102.5 234 t256.5 88q269 0 342 -264z"/>
<glyph glyph-name="t" horiz-adv-x="628" unicode="t" d="M146 1320l274 9v-319h186v-222h-186v-371q0 -103 4.5 -133.5t30 -51t85.5 -20.5q32 0 80 2v-214q-94 -21 -172 -21q-128 0 -196 49t-87 123t-19 235v402h-112v222h112v310z"/>
<glyph glyph-name="u" horiz-adv-x="977" unicode="u" d="M90 1010h282v-648q0 -98 18 -131t78 -33q55 0 83.5 27t34.5 74.5t6 195.5v515h282v-1010h-265v138q-60 -103 -119.5 -131t-140.5 -28q-109 0 -167 45t-75 114t-17 215v657z"/>
<glyph glyph-name="v" horiz-adv-x="733" unicode="v" d="M-22 1010h271l139 -597l141 597h234l-277 -1010h-223z"/>
<glyph glyph-name="w" horiz-adv-x="1186" unicode="w" d="M-17 1010h274l119 -614l113 614h274l92 -614l136 614h221l-253 -1010h-236l-130 687l-127 -687h-229z"/>
<glyph glyph-name="x" horiz-adv-x="768" unicode="x" d="M-11 1010h306l107 -234l130 234h245l-261 -446l301 -564h-305l-148 302l-169 -302h-245l299 517z"/>
<glyph glyph-name="y" horiz-adv-x="733" unicode="y" d="M-28 1010h282l136 -617l131 617h243l-304 -1026q-44 -147 -75 -206t-93 -97.5t-158 -38.5q-59 0 -120 16v222q42 -6 79 -6q82 0 112.5 27t57.5 118z"/>
<glyph glyph-name="z" horiz-adv-x="733" unicode="z" d="M76 1010h630v-181l-375 -629h385v-200h-675v200l366 610h-331v200z"/>
<glyph glyph-name="braceleft" horiz-adv-x="698" unicode="{" d="M546 1363v-134q-73 -2 -92.5 -29.5t-19.5 -146.5v-223q0 -182 -18 -226.5t-102 -78.5q83 -33 101.5 -78t18.5 -227v-250q0 -118 19 -145t93 -31v-134q-70 -2 -93 -2q-93 0 -139.5 13.5t-86 72t-39.5 226.5v352q-1 69 -19.5 93t-80.5 27v167q70 2 85 30.5t15 181.5v232 q0 197 57.5 255t206.5 58q30 0 94 -3z"/>
<glyph glyph-name="bar" horiz-adv-x="1024" unicode="|" d="M358 1365h307v-1706h-307v1706z"/>
<glyph glyph-name="braceright" horiz-adv-x="698" unicode="}" d="M151 -340v134q74 4 93 30.5t19 145.5v250q0 182 18 226.5t102 78.5q-83 33 -101.5 78t-18.5 227v223q0 118 -19 146t-93 30v134q70 3 92 3q119 0 164 -24t73.5 -83t28.5 -206v-232l1 -92q0 -70 18.5 -94t80.5 -26v-167q-52 -1 -73 -20t-24 -48t-3 -145v-259 q0 -135 -25 -199t-77 -88.5t-161 -24.5q-29 0 -95 2z"/>
<glyph glyph-name="asciitilde" horiz-adv-x="1365" unicode="~" d="M339 1131l-149 124q112 279 305 279q69 0 231 -70q120 -52 157 -52q83 0 148 127l149 -124q-105 -274 -321 -274q-62 0 -227 72q-103 45 -150 45q-78 0 -143 -127z"/>
<glyph glyph-name="uni00A0" horiz-adv-x="382" unicode=" "/>
<glyph glyph-name="exclamdown" horiz-adv-x="698" unicode="¡" d="M529 -356h-360l88 958h183zM488 707h-279v303l279 -1v-302z"/>
<glyph glyph-name="cent" d="M466 1372h147v-185q267 -36 298 -364l-236 -15q-12 183 -129 183q-68 0 -97.5 -63t-29.5 -229q0 -172 30.5 -230t94.5 -58q47 0 82 32t49 148l236 -21q-45 -331 -298 -368v-216h-147v216q-172 28 -250.5 165t-78.5 316q0 220 86 357t243 148v184z" unicode="¢"/>
<glyph glyph-name="sterling" d="M556 835h229v-209h-201q1 -33 1 -52q0 -142 -43 -214t-109 -128h151q154 0 210 56t85 149l221 -83q-25 -110 -66.5 -179.5t-101.5 -108t-129.5 -52.5t-218.5 -14h-567v232h105q72 0 105.5 20t59 84t25.5 184q0 49 -6 106h-157v209h122q-12 102 -12 163q0 176 96.5 282 t276.5 106q278 0 345 -258l-217 -103q-32 143 -127 143q-91 0 -91 -141q0 -33 8 -123q5 -53 6 -69z" unicode="£"/>
<glyph glyph-name="currency" d="M364 703q0 -66 46.5 -112.5t112.5 -46.5t112.5 47t46.5 112t-46.5 112t-112.5 47q-65 0 -112 -46.5t-47 -112.5zM693 1016l132 132l143 -143l-132 -132q43 -80 43 -170q0 -85 -41 -165l133 -133l-150 -150l-133 133q-82 -41 -165 -41q-88 0 -169 43l-133 -132l-143 143 l132 133q-43 81 -43 169q0 87 41 165l-133 133l150 150l133 -133q78 41 165 41q90 0 170 -43z" unicode="¤"/>
<glyph glyph-name="yen" d="M49 1365h291l204 -555l219 555h235l-225 -532h205v-149h-269l-52 -123h321v-149h-321v-412h-270v412h-307v149h307l-52 123h-255v149h193z" unicode="¥"/>
<glyph glyph-name="brokenbar" horiz-adv-x="1024" unicode="¦" d="M358 314h307v-655h-307v655zM358 1365h307v-719h-307v719z"/>
<glyph glyph-name="section" d="M435 729q-57 -51 -57 -121q0 -54 34.5 -92.5t159.5 -94.5q53 -23 73 -33q55 48 55 121q0 53 -34 86t-146 90q-66 33 -85 44zM939 1130l-209 -64q-34 134 -158 134q-64 0 -97 -32.5t-33 -80.5q0 -53 33 -81t165 -89q153 -70 218.5 -144t65.5 -202q0 -160 -136 -269 q147 -101 147 -282q0 -167 -109 -265.5t-300 -98.5q-349 0 -418 312l233 40q31 -157 190 -157q153 0 153 136q0 67 -50 107.5t-220 114.5q-95 42 -147 78.5t-87.5 102t-35.5 148.5q0 184 157 275q-111 94 -111 238q0 150 96.5 242.5t272.5 92.5q299 0 380 -256z" unicode="§"/>
<glyph glyph-name="dieresis" horiz-adv-x="942" unicode="¨" d="M188 1269q0 45 33.5 76.5t80.5 31.5t80.5 -31.5t33.5 -76.5q0 -47 -35.5 -77t-78.5 -30q-41 0 -77.5 29t-36.5 78zM526 1269q0 45 33.5 76.5t80.5 31.5q48 0 81 -31.5t33 -76.5q0 -48 -36 -77.5t-78 -29.5q-43 0 -78.5 30t-35.5 77z"/>
<glyph glyph-name="copyright" horiz-adv-x="1595" unicode="©" d="M931 586l207 -12q-8 -140 -94.5 -226.5t-228.5 -86.5q-161 0 -255 106.5t-94 308.5q0 206 89.5 317t262.5 111q292 0 316 -329l-205 -14q-7 179 -111 179q-119 0 -119 -268q0 -140 29 -193.5t90 -53.5q96 0 113 161zM257 683q0 -228 158.5 -388.5t381.5 -160.5t382 161.5 t159 387.5q0 227 -158.5 387.5t-382.5 160.5q-222 0 -381 -161t-159 -387zM82 683q0 291 210.5 499t504.5 208q295 0 505.5 -208t210.5 -499q0 -292 -210.5 -500t-505.5 -208t-505 208t-210 500z"/>
<glyph glyph-name="ordfeminine" horiz-adv-x="663" unicode="ª" d="M385 822q-74 -1 -100.5 -24t-26.5 -67q0 -62 50 -62q77 0 77 153zM271 969l-202 18q41 185 275 185q89 0 146.5 -28.5t78.5 -71.5t21 -148v-232q0 -116 18 -146h-179q-9 41 -12 86q-70 -98 -187 -98q-78 0 -131.5 44.5t-53.5 131.5q0 211 340 229v23q0 75 -53 75t-61 -68 z"/>
<glyph glyph-name="guillemotleft" horiz-adv-x="907" unicode="«" d="M458 167h-148l-211 358l211 357h148l-125 -357zM807 167h-149l-210 358l210 357h149l-125 -357z"/>
<glyph glyph-name="logicalnot" horiz-adv-x="1024" unicode="¬" d="M658 0v327h-590v268h887v-595h-297z"/>
<glyph glyph-name="uni00AD" horiz-adv-x="558" unicode="­" d="M76 628h407v-221h-407v221z"/>
<glyph glyph-name="registered" horiz-adv-x="1595" unicode="®" d="M727 941v-202h51q101 0 101 105q0 97 -108 97h-44zM505 1092h272q103 0 165.5 -17.5t108.5 -79.5t46 -152q0 -153 -122 -214l152 -356h-242l-104 315h-54v-315h-222v819zM257 683q0 -228 158.5 -388.5t381.5 -160.5t382 161.5t159 387.5q0 227 -158.5 387.5t-382.5 160.5 q-222 0 -381 -161t-159 -387zM82 683q0 291 210.5 499t504.5 208q295 0 505.5 -208t210.5 -499q0 -292 -210.5 -500t-505.5 -208t-505 208t-210 500z"/>
<glyph glyph-name="uni00AF" horiz-adv-x="1024" unicode="¯" d="M0 1664h1024v-182h-1024v182z"/>
<glyph glyph-name="degree" d="M663 1061q0 66 -40 114t-99 48q-57 0 -98.5 -47t-41.5 -115q0 -69 41.5 -116t98.5 -47t98 48t41 115zM849 1061q0 -135 -96 -230.5t-229 -95.5q-134 0 -230 95.5t-96 230.5q0 134 95.5 229.5t230.5 95.5t230 -95.5t95 -229.5z" unicode="°"/>
<glyph glyph-name="plusminus" d="M942 -23h-837v216h837v-216zM636 791h306v-217h-306v-287h-225v287h-306v217h306v310h225v-310z" unicode="±"/>
<glyph glyph-name="twosuperior" horiz-adv-x="698" unicode="²" d="M239 1053l-208 37q44 287 308 287q142 0 215.5 -72.5t73.5 -171.5q0 -85 -63 -176t-289 -224h365l-17 -187h-590v178q246 190 302.5 262.5t56.5 136.5q0 81 -64 81q-79 0 -90 -151z"/>
<glyph glyph-name="threesuperior" horiz-adv-x="698" unicode="³" d="M234 1112l-200 33q65 232 308 232q132 0 203.5 -62.5t71.5 -157.5q0 -121 -133 -180q150 -52 150 -197q0 -112 -83 -179t-219 -67q-282 0 -316 263l203 30q8 -120 97 -120q88 0 88 91q0 97 -118 97h-70v150h70q108 0 108 85q0 81 -73 81q-69 0 -87 -99z"/>
<glyph glyph-name="acute" horiz-adv-x="942" unicode="´" d="M372 1203l341 314l112 -167l-369 -231z"/>
<glyph glyph-name="uni00B5" horiz-adv-x="977" unicode="µ" d="M592 1010h282v-1010h-265v138q-19 -100 -50.5 -129.5t-76.5 -29.5q-47 0 -77.5 30t-49.5 129v-480h-265v1352h281v-515q0 -142 4.5 -194t32.5 -77.5t74 -25.5q45 0 73 24.5t32.5 75.5t4.5 197v515z"/>
<glyph glyph-name="paragraph" horiz-adv-x="1117" unicode="¶" d="M958 1365v-1707h-160v1545h-97v-1545h-160v870h-71q-151 0 -237.5 36t-138 134t-51.5 254q0 143 50.5 239.5t128.5 135t260 38.5h476z"/>
<glyph glyph-name="uni00B7" horiz-adv-x="523" unicode="·" d="M122 677h279v-303l-279 1v302z"/>
<glyph glyph-name="cedilla" horiz-adv-x="942" unicode="¸" d="M427 0h116l-40 -102q26 3 39 3q70 0 116.5 -43t46.5 -116q0 -76 -55 -123.5t-151 -47.5q-106 0 -220 72l33 83q97 -50 161 -50q73 0 73 61q0 38 -34 62t-83 24q-26 0 -67 -5z"/>
<glyph glyph-name="onesuperior" horiz-adv-x="698" unicode="¹" d="M329 1372h171v-665h144v-161h-516v161h147v412q-72 -57 -147 -88v190q123 56 201 151z"/>
<glyph glyph-name="ordmasculine" horiz-adv-x="628" unicode="º" d="M374 853q0 112 -15 142.5t-45 30.5q-39 0 -49.5 -44.5t-10.5 -128.5q0 -72 9 -122.5t52 -50.5q41 0 50 50.5t9 122.5zM593 858q0 -324 -279 -324t-279 319t279 319t279 -314z"/>
<glyph glyph-name="guillemotright" horiz-adv-x="907" unicode="»" d="M448 882h148l211 -357l-211 -358h-148l125 358zM99 882h149l210 -357l-210 -358h-149l125 358z"/>
<glyph glyph-name="onequarter" horiz-adv-x="1640" unicode="¼" d="M306 1372h171v-665h144v-161h-516v161h147v412q-72 -57 -147 -88v190q123 56 201 151zM1062 1365h165l-651 -1365h-161zM1273 330v313l-183 -313h183zM1242 831h234v-479h99v-167h-99v-185h-224v185h-314v155z"/>
<glyph glyph-name="onehalf" horiz-adv-x="1640" unicode="½" d="M311 1372h171v-665h144v-161h-516v161h147v412q-72 -57 -147 -88v190q123 56 201 151zM1062 1365h165l-651 -1365h-161zM1140 507l-208 37q44 287 308 287q142 0 215.5 -72.5t73.5 -171.5q0 -85 -63 -176t-289 -224h365l-17 -187h-590v178q246 190 302.5 262.5 t56.5 136.5q0 81 -64 81q-79 0 -90 -151z"/>
<glyph glyph-name="threequarters" horiz-adv-x="1640" unicode="¾" d="M280 1112l-200 33q65 232 308 232q132 0 203.5 -62.5t71.5 -157.5q0 -121 -133 -180q150 -52 150 -197q0 -112 -83 -179t-219 -67q-282 0 -316 263l203 30q8 -120 97 -120q88 0 88 91q0 97 -118 97h-70v150h70q108 0 108 85q0 81 -73 81q-69 0 -87 -99zM1109 1365h165 l-651 -1365h-161zM1284 330v313l-183 -313h183zM1253 831h234v-479h99v-167h-99v-185h-224v185h-314v155z"/>
<glyph glyph-name="questiondown" horiz-adv-x="977" unicode="¿" d="M662 114l256 -36q-5 -207 -113.5 -331t-305.5 -124q-211 0 -306.5 115.5t-95.5 267.5q0 119 46 199.5t155 178.5q77 68 93.5 103.5t16.5 131.5h240v-46q0 -128 -14.5 -182t-102.5 -139q-74 -73 -103 -125.5t-29 -126.5q0 -66 34.5 -99t82.5 -33q145 0 146 246zM662 719 h-267v291l267 -1v-290z"/>
<glyph glyph-name="Agrave" d="M630 516l-137 557l-133 -557h270zM370 1365h302l390 -1365h-307l-68 282h-384l-67 -282h-276zM687 1535l-84 -84l-369 231l112 167z" unicode="À"/>
<glyph glyph-name="Aacute" d="M630 516l-137 557l-133 -557h270zM370 1365h302l390 -1365h-307l-68 282h-384l-67 -282h-276zM378 1535l341 314l112 -167l-369 -231z" unicode="Á"/>
<glyph glyph-name="Acircumflex" d="M630 516l-137 557l-133 -557h270zM370 1365h302l390 -1365h-307l-68 282h-384l-67 -282h-276zM120 1488l401 313l401 -313h-218l-183 118l-183 -118h-218z" unicode="Â"/>
<glyph glyph-name="Atilde" d="M630 516l-137 557l-133 -557h270zM370 1365h302l390 -1365h-307l-68 282h-384l-67 -282h-276zM763 1705l89 -66q-102 -153 -229 -153q-48 0 -126 35q-88 39 -122 39q-39 0 -95 -63l-86 67q111 143 219 143q50 0 132 -35q90 -39 122 -39q45 0 96 72z" unicode="Ã"/>
<glyph glyph-name="Adieresis" d="M630 516l-137 557l-133 -557h270zM370 1365h302l390 -1365h-307l-68 282h-384l-67 -282h-276zM234 1601q0 45 33.5 76.5t80.5 31.5t80.5 -31.5t33.5 -76.5q0 -47 -35.5 -77t-78.5 -30q-41 0 -77.5 29t-36.5 78zM572 1601q0 45 33.5 76.5t80.5 31.5q48 0 81 -31.5 t33 -76.5q0 -48 -36 -77.5t-78 -29.5q-43 0 -78.5 30t-35.5 77z" unicode="Ä"/>
<glyph glyph-name="Aring" d="M630 516l-137 557l-133 -557h270zM370 1365h302l390 -1365h-307l-68 282h-384l-67 -282h-276zM446 1645q0 -36 24.5 -58.5t52.5 -22.5q29 0 53 22.5t24 58.5q0 35 -23.5 58.5t-53.5 23.5t-53.5 -23.5t-23.5 -58.5zM330 1644q0 83 58 139t135 56t135 -55.5t58 -139.5 q0 -86 -60.5 -139t-132.5 -53t-132.5 53.5t-60.5 138.5z" unicode="Å"/>
<glyph glyph-name="AE" horiz-adv-x="1396" unicode="Æ" d="M592 537v628l-229 -628h229zM454 1365h924v-234h-505v-317h398v-235h-398v-335h505v-244h-793v316h-298l-110 -316h-259z"/>
<glyph glyph-name="Ccedilla" horiz-adv-x="1117" unicode="Ç" d="M635 -271q0 36 -30.5 60t-87.5 24l-63 -1l61 172q-435 79 -435 697q0 331 131 518t389 187q427 0 465 -528l-274 -20q-11 304 -190 304q-94 0 -149.5 -98t-55.5 -380q0 -252 51 -346.5t153 -94.5q164 0 193 274l277 -17q-12 -196 -122 -339t-320 -162l-27 -84q26 3 40 3 q73 0 120.5 -45.5t47.5 -118.5q0 -77 -56 -126.5t-156 -49.5q-110 0 -227 74l34 91q98 -52 166 -52q65 0 65 58z"/>
<glyph glyph-name="Egrave" horiz-adv-x="977" unicode="È" d="M129 1365h830v-234h-530v-317h412v-235h-412v-335h530v-244h-830v1365zM718 1535l-84 -84l-369 231l112 167z"/>
<glyph glyph-name="Eacute" horiz-adv-x="977" unicode="É" d="M129 1365h830v-234h-530v-317h412v-235h-412v-335h530v-244h-830v1365zM383 1554l341 314l112 -167l-369 -231z"/>
<glyph glyph-name="Ecircumflex" horiz-adv-x="977" unicode="Ê" d="M129 1365h830v-234h-530v-317h412v-235h-412v-335h530v-244h-830v1365zM148 1488l401 313l401 -313h-218l-183 118l-183 -118h-218z"/>
<glyph glyph-name="Edieresis" horiz-adv-x="977" unicode="Ë" d="M129 1365h830v-234h-530v-317h412v-235h-412v-335h530v-244h-830v1365zM260 1601q0 45 33.5 76.5t80.5 31.5t80.5 -31.5t33.5 -76.5q0 -47 -35.5 -77t-78.5 -30q-41 0 -77.5 29t-36.5 78zM598 1601q0 45 33.5 76.5t80.5 31.5q48 0 81 -31.5t33 -76.5q0 -48 -36 -77.5 t-78 -29.5q-43 0 -78.5 30t-35.5 77z"/>
<glyph glyph-name="Igrave" horiz-adv-x="558" unicode="Ì" d="M129 1365h300v-1365h-300v1365zM459 1535l-84 -84l-369 231l112 167z"/>
<glyph glyph-name="Iacute" horiz-adv-x="558" unicode="Í" d="M129 1365h300v-1365h-300v1365zM95 1535l341 314l112 -167l-369 -231z"/>
<glyph glyph-name="Icircumflex" horiz-adv-x="558" unicode="Î" d="M129 1365h300v-1365h-300v1365zM-122 1464l401 313l401 -313h-218l-183 118l-183 -118h-218z"/>
<glyph glyph-name="Idieresis" horiz-adv-x="558" unicode="Ï" d="M129 1365h300v-1365h-300v1365zM-4 1601q0 45 33.5 76.5t80.5 31.5t80.5 -31.5t33.5 -76.5q0 -47 -35.5 -77t-78.5 -30q-41 0 -77.5 29t-36.5 78zM334 1601q0 45 33.5 76.5t80.5 31.5q48 0 81 -31.5t33 -76.5q0 -48 -36 -77.5t-78 -29.5q-43 0 -78.5 30t-35.5 77z"/>
<glyph glyph-name="Eth" horiz-adv-x="1152" unicode="Ð" d="M429 1131v-338h200v-204h-200v-354h51q104 0 161 39.5t91.5 140t34.5 287.5q0 174 -38 268t-95 127.5t-154 33.5h-51zM129 1365h323q211 0 342.5 -57t210 -209.5t78.5 -409.5q0 -184 -48 -327t-126 -224.5t-176 -109.5t-245 -28h-359v589h-116v204h116v572z"/>
<glyph glyph-name="Ntilde" horiz-adv-x="1151" unicode="Ñ" d="M118 1365h333l351 -848v848h232v-1365h-268l-416 988v-988h-232v1365zM831 1704l89 -66q-102 -153 -229 -153q-48 0 -126 35q-88 39 -122 39q-39 0 -95 -63l-86 67q111 143 219 143q50 0 132 -35q90 -39 122 -39q45 0 96 72z"/>
<glyph glyph-name="Ograve" horiz-adv-x="1151" unicode="Ò" d="M755 683q0 276 -43 367.5t-137 91.5q-93 0 -136 -92t-43 -367q0 -270 42.5 -365t136.5 -95q93 0 136.5 91t43.5 369zM1071 683q0 -704 -495 -704q-246 0 -371 179.5t-125 524.5q0 703 495 703q242 0 369 -176t127 -527zM747 1554l-84 -84l-369 231l112 167z"/>
<glyph glyph-name="Oacute" horiz-adv-x="1151" unicode="Ó" d="M755 683q0 276 -43 367.5t-137 91.5q-93 0 -136 -92t-43 -367q0 -270 42.5 -365t136.5 -95q93 0 136.5 91t43.5 369zM1071 683q0 -704 -495 -704q-246 0 -371 179.5t-125 524.5q0 703 495 703q242 0 369 -176t127 -527zM404 1554l341 314l112 -167l-369 -231z"/>
<glyph glyph-name="Ocircumflex" horiz-adv-x="1151" unicode="Ô" d="M755 683q0 276 -43 367.5t-137 91.5q-93 0 -136 -92t-43 -367q0 -270 42.5 -365t136.5 -95q93 0 136.5 91t43.5 369zM1071 683q0 -704 -495 -704q-246 0 -371 179.5t-125 524.5q0 703 495 703q242 0 369 -176t127 -527zM182 1464l401 313l401 -313h-218l-183 118 l-183 -118h-218z"/>
<glyph glyph-name="Otilde" horiz-adv-x="1151" unicode="Õ" d="M755 683q0 276 -43 367.5t-137 91.5q-93 0 -136 -92t-43 -367q0 -270 42.5 -365t136.5 -95q93 0 136.5 91t43.5 369zM1071 683q0 -704 -495 -704q-246 0 -371 179.5t-125 524.5q0 703 495 703q242 0 369 -176t127 -527zM816 1705l89 -66q-102 -153 -229 -153 q-48 0 -126 35q-88 39 -122 39q-39 0 -95 -63l-86 67q111 143 219 143q50 0 132 -35q90 -39 122 -39q45 0 96 72z"/>
<glyph glyph-name="Odieresis" horiz-adv-x="1151" unicode="Ö" d="M755 683q0 276 -43 367.5t-137 91.5q-93 0 -136 -92t-43 -367q0 -270 42.5 -365t136.5 -95q93 0 136.5 91t43.5 369zM1071 683q0 -704 -495 -704q-246 0 -371 179.5t-125 524.5q0 703 495 703q242 0 369 -176t127 -527zM300 1601q0 45 33.5 76.5t80.5 31.5t80.5 -31.5 t33.5 -76.5q0 -47 -35.5 -77t-78.5 -30q-41 0 -77.5 29t-36.5 78zM638 1601q0 45 33.5 76.5t80.5 31.5q48 0 81 -31.5t33 -76.5q0 -48 -36 -77.5t-78 -29.5q-43 0 -78.5 30t-35.5 77z"/>
<glyph glyph-name="multiply" d="M523 842l233 233l160 -160l-233 -232l233 -233l-160 -159l-233 232l-233 -232l-159 159l232 233l-232 232l159 160z" unicode="×"/>
<glyph glyph-name="Oslash" horiz-adv-x="1151" unicode="Ø" d="M457 244q48 -40 127 -40q108 0 153.5 111.5t45.5 411.5q0 96 -14 193zM698 1107q-50 52 -123 52q-99 0 -153 -89.5t-54 -386.5q0 -157 15 -248zM883 1444h157l-110 -217q141 -173 141 -544q0 -704 -496 -704q-124 0 -238 55l-62 -118h-157l107 215q-145 181 -145 552 q0 703 495 703q141 0 246 -61z"/>
<glyph glyph-name="Ugrave" horiz-adv-x="1186" unicode="Ù" d="M129 1365h300v-780q0 -165 15 -230t62.5 -98.5t116.5 -33.5q75 0 119 37t54 98t10 227v780h251v-768q0 -230 -26.5 -343t-135 -194t-298.5 -81q-178 0 -280 59.5t-145 167t-43 379.5v780zM778 1535l-84 -84l-369 231l112 167z"/>
<glyph glyph-name="Uacute" horiz-adv-x="1186" unicode="Ú" d="M129 1365h300v-780q0 -165 15 -230t62.5 -98.5t116.5 -33.5q75 0 119 37t54 98t10 227v780h251v-768q0 -230 -26.5 -343t-135 -194t-298.5 -81q-178 0 -280 59.5t-145 167t-43 379.5v780zM437 1535l341 314l112 -167l-369 -231z"/>
<glyph glyph-name="Ucircumflex" horiz-adv-x="1186" unicode="Û" d="M129 1365h300v-780q0 -165 15 -230t62.5 -98.5t116.5 -33.5q75 0 119 37t54 98t10 227v780h251v-768q0 -230 -26.5 -343t-135 -194t-298.5 -81q-178 0 -280 59.5t-145 167t-43 379.5v780zM116 1481l401 313l401 -313h-218l-183 118l-183 -118h-218z"/>
<glyph glyph-name="Udieresis" horiz-adv-x="1186" unicode="Ü" d="M129 1365h300v-780q0 -165 15 -230t62.5 -98.5t116.5 -33.5q75 0 119 37t54 98t10 227v780h251v-768q0 -230 -26.5 -343t-135 -194t-298.5 -81q-178 0 -280 59.5t-145 167t-43 379.5v780zM317 1601q0 45 33.5 76.5t80.5 31.5t80.5 -31.5t33.5 -76.5q0 -47 -35.5 -77 t-78.5 -30q-41 0 -77.5 29t-36.5 78zM655 1601q0 45 33.5 76.5t80.5 31.5q48 0 81 -31.5t33 -76.5q0 -48 -36 -77.5t-78 -29.5q-43 0 -78.5 30t-35.5 77z"/>
<glyph glyph-name="Yacute" horiz-adv-x="907" unicode="Ý" d="M-58 1365h330l193 -498l206 498h293l-379 -788v-577h-300v577zM305 1535l341 314l112 -167l-369 -231z"/>
<glyph glyph-name="Thorn" d="M429 958v-404h93q121 0 157.5 55.5t36.5 149.5q0 77 -27.5 124.5t-64 61t-102.5 13.5h-93zM129 1365h300v-186h93q179 0 278 -30.5t165.5 -136t66.5 -260.5q0 -150 -54 -248t-149.5 -141.5t-293.5 -43.5h-106v-319h-300v1365z" unicode="Þ"/>
<glyph glyph-name="germandbls" horiz-adv-x="1116" unicode="ß" d="M20 695v221h112q0 252 125 391.5t356 139.5q178 0 266 -87t88 -208q0 -230 -305 -326q16 -31 125 -77q186 -80 246 -172t60 -213q0 -177 -106.5 -281t-275.5 -104q-110 0 -224 42l68 191q82 -38 151 -38q135 0 135 135q0 64 -34 102t-131 96q-106 64 -153 122.5 t-47 137.5q0 73 37 169q191 28 191 172q0 65 -36.5 104t-100.5 39q-58 0 -95.5 -36t-48 -92.5t-10.5 -197.5v-1043h-281v813h-112z"/>
<glyph glyph-name="agrave" horiz-adv-x="977" unicode="à" d="M593 483q-123 -14 -175.5 -54.5t-52.5 -136.5q0 -128 94 -128q51 0 92.5 57.5t41.5 211.5v50zM374 689l-267 26q19 152 129.5 234t278.5 82q142 0 228 -54.5t108.5 -126.5t22.5 -223v-403q0 -188 17 -224h-261q-14 41 -14 155q-93 -176 -277 -176q-118 0 -192 70.5 t-74 205.5q0 169 112 261.5t408 110.5v38q0 101 -20.5 140t-79.5 39q-108 0 -119 -155zM670 1203l-84 -84l-369 231l112 167z"/>
<glyph glyph-name="aacute" horiz-adv-x="977" unicode="á" d="M593 483q-123 -14 -175.5 -54.5t-52.5 -136.5q0 -128 94 -128q51 0 92.5 57.5t41.5 211.5v50zM374 689l-267 26q19 152 129.5 234t278.5 82q142 0 228 -54.5t108.5 -126.5t22.5 -223v-403q0 -188 17 -224h-261q-14 41 -14 155q-93 -176 -277 -176q-118 0 -192 70.5 t-74 205.5q0 169 112 261.5t408 110.5v38q0 101 -20.5 140t-79.5 39q-108 0 -119 -155zM364 1203l341 314l112 -167l-369 -231z"/>
<glyph glyph-name="acircumflex" horiz-adv-x="977" unicode="â" d="M593 483q-123 -14 -175.5 -54.5t-52.5 -136.5q0 -128 94 -128q51 0 92.5 57.5t41.5 211.5v50zM374 689l-267 26q19 152 129.5 234t278.5 82q142 0 228 -54.5t108.5 -126.5t22.5 -223v-403q0 -188 17 -224h-261q-14 41 -14 155q-93 -176 -277 -176q-118 0 -192 70.5 t-74 205.5q0 169 112 261.5t408 110.5v38q0 101 -20.5 140t-79.5 39q-108 0 -119 -155zM56 1132l401 313l401 -313h-218l-183 118l-183 -118h-218z"/>
<glyph glyph-name="atilde" horiz-adv-x="977" unicode="ã" d="M593 483q-123 -14 -175.5 -54.5t-52.5 -136.5q0 -128 94 -128q51 0 92.5 57.5t41.5 211.5v50zM374 689l-267 26q19 152 129.5 234t278.5 82q142 0 228 -54.5t108.5 -126.5t22.5 -223v-403q0 -188 17 -224h-261q-14 41 -14 155q-93 -176 -277 -176q-118 0 -192 70.5 t-74 205.5q0 169 112 261.5t408 110.5v38q0 101 -20.5 140t-79.5 39q-108 0 -119 -155zM750 1385l89 -66q-102 -153 -229 -153q-48 0 -126 35q-88 39 -122 39q-39 0 -95 -63l-86 67q111 143 219 143q50 0 132 -35q90 -39 122 -39q45 0 96 72z"/>
<glyph glyph-name="adieresis" horiz-adv-x="977" unicode="ä" d="M593 483q-123 -14 -175.5 -54.5t-52.5 -136.5q0 -128 94 -128q51 0 92.5 57.5t41.5 211.5v50zM374 689l-267 26q19 152 129.5 234t278.5 82q142 0 228 -54.5t108.5 -126.5t22.5 -223v-403q0 -188 17 -224h-261q-14 41 -14 155q-93 -176 -277 -176q-118 0 -192 70.5 t-74 205.5q0 169 112 261.5t408 110.5v38q0 101 -20.5 140t-79.5 39q-108 0 -119 -155zM227 1269q0 45 33.5 76.5t80.5 31.5t80.5 -31.5t33.5 -76.5q0 -47 -35.5 -77t-78.5 -30q-41 0 -77.5 29t-36.5 78zM565 1269q0 45 33.5 76.5t80.5 31.5q48 0 81 -31.5t33 -76.5 q0 -48 -36 -77.5t-78 -29.5q-43 0 -78.5 30t-35.5 77z"/>
<glyph glyph-name="aring" horiz-adv-x="977" unicode="å" d="M593 483q-123 -14 -175.5 -54.5t-52.5 -136.5q0 -128 94 -128q51 0 92.5 57.5t41.5 211.5v50zM374 689l-267 26q19 152 129.5 234t278.5 82q142 0 228 -54.5t108.5 -126.5t22.5 -223v-403q0 -188 17 -224h-261q-14 41 -14 155q-93 -176 -277 -176q-118 0 -192 70.5 t-74 205.5q0 169 112 261.5t408 110.5v38q0 101 -20.5 140t-79.5 39q-108 0 -119 -155zM436 1302q0 -36 24.5 -58.5t52.5 -22.5q29 0 53 22.5t24 58.5q0 35 -23.5 58.5t-53.5 23.5t-53.5 -23.5t-23.5 -58.5zM320 1301q0 83 58 139t135 56t135 -55.5t58 -139.5 q0 -86 -60.5 -139t-132.5 -53t-132.5 53.5t-60.5 138.5z"/>
<glyph glyph-name="ae" horiz-adv-x="1430" unicode="æ" d="M573 483q-141 -18 -180 -65t-39 -121q0 -132 94 -132q126 0 126 239q0 27 -1 79zM1106 621q-3 223 -129 223q-121 0 -131 -223h260zM1370 458h-523q-1 -30 -1 -46q0 -238 134 -238q121 0 139 169l242 -17q-60 -347 -380 -347q-210 0 -290 172q-107 -172 -325 -172 q-139 0 -216 78t-77 206q0 86 39.5 167t133.5 129t327 69q2 47 2 66q0 97 -32.5 123.5t-74.5 26.5q-114 0 -125 -163l-245 28q51 322 385 322q176 0 242 -104q97 103 250 103q144 0 232 -71.5t125.5 -185t37.5 -315.5z"/>
<glyph glyph-name="ccedilla" horiz-adv-x="907" unicode="ç" d="M858 638l-262 -10q-6 93 -30 140.5t-81 47.5q-142 0 -142 -298q0 -173 34.5 -242t102.5 -69q106 0 116 187l262 -17q-34 -364 -352 -397l-32 -82q26 3 40 3q70 0 116.5 -44t46.5 -115q0 -76 -55 -123.5t-152 -47.5q-106 0 -220 72l34 88q96 -55 162 -55q71 0 71 61 q0 38 -33.5 62t-83.5 24q-26 0 -67 -5l60 165q-333 54 -333 519q0 258 108.5 393t304.5 135q354 0 385 -392z"/>
<glyph glyph-name="egrave" horiz-adv-x="942" unicode="è" d="M615 621q1 18 1 28q0 195 -132 195q-130 0 -131 -223h262zM881 458h-530v-56q0 -136 37 -182t97 -46q129 0 145 173l251 -16q-67 -352 -401 -352q-206 0 -313 139t-107 372q0 263 113.5 401.5t304.5 138.5q172 0 287.5 -122.5t115.5 -449.5zM651 1203l-84 -84l-369 231 l112 167z"/>
<glyph glyph-name="eacute" horiz-adv-x="942" unicode="é" d="M615 621q1 18 1 28q0 195 -132 195q-130 0 -131 -223h262zM881 458h-530v-56q0 -136 37 -182t97 -46q129 0 145 173l251 -16q-67 -352 -401 -352q-206 0 -313 139t-107 372q0 263 113.5 401.5t304.5 138.5q172 0 287.5 -122.5t115.5 -449.5zM338 1203l341 314l112 -167 l-369 -231z"/>
<glyph glyph-name="ecircumflex" horiz-adv-x="942" unicode="ê" d="M615 621q1 18 1 28q0 195 -132 195q-130 0 -131 -223h262zM881 458h-530v-56q0 -136 37 -182t97 -46q129 0 145 173l251 -16q-67 -352 -401 -352q-206 0 -313 139t-107 372q0 263 113.5 401.5t304.5 138.5q172 0 287.5 -122.5t115.5 -449.5zM90 1132l401 313l401 -313 h-218l-183 118l-183 -118h-218z"/>
<glyph glyph-name="edieresis" horiz-adv-x="942" unicode="ë" d="M615 621q1 18 1 28q0 195 -132 195q-130 0 -131 -223h262zM881 458h-530v-56q0 -136 37 -182t97 -46q129 0 145 173l251 -16q-67 -352 -401 -352q-206 0 -313 139t-107 372q0 263 113.5 401.5t304.5 138.5q172 0 287.5 -122.5t115.5 -449.5zM208 1269q0 45 33.5 76.5 t80.5 31.5t80.5 -31.5t33.5 -76.5q0 -47 -35.5 -77t-78.5 -30q-41 0 -77.5 29t-36.5 78zM546 1269q0 45 33.5 76.5t80.5 31.5q48 0 81 -31.5t33 -76.5q0 -48 -36 -77.5t-78 -29.5q-43 0 -78.5 30t-35.5 77z"/>
<glyph glyph-name="igrave" horiz-adv-x="488" unicode="ì" d="M103 1010h282v-1010h-282v1010zM404 1203l-84 -84l-369 231l112 167z"/>
<glyph glyph-name="iacute" horiz-adv-x="488" unicode="í" d="M103 1010h282v-1010h-282v1010zM85 1203l341 314l112 -167l-369 -231z"/>
<glyph glyph-name="icircumflex" horiz-adv-x="488" unicode="î" d="M103 1010h282v-1010h-282v1010zM-157 1132l401 313l401 -313h-218l-183 118l-183 -118h-218z"/>
<glyph glyph-name="idieresis" horiz-adv-x="488" unicode="ï" d="M103 1010h282v-1010h-282v1010zM-39 1269q0 45 33.5 76.5t80.5 31.5t80.5 -31.5t33.5 -76.5q0 -47 -35.5 -77t-78.5 -30q-41 0 -77.5 29t-36.5 78zM299 1269q0 45 33.5 76.5t80.5 31.5q48 0 81 -31.5t33 -76.5q0 -48 -36 -77.5t-78 -29.5q-43 0 -78.5 30t-35.5 77z"/>
<glyph glyph-name="eth" horiz-adv-x="942" unicode="ð" d="M591 505q0 193 -26.5 261t-92.5 68q-64 0 -92 -64.5t-28 -264.5q0 -185 24 -257t96 -72q69 0 94 71.5t25 257.5zM563 1366l132 80l61 -103l-128 -76q254 -405 254 -779q0 -230 -97.5 -369.5t-307.5 -139.5q-416 0 -416 526q0 260 100.5 392t244.5 132q73 0 132 -46 q-34 101 -80 181l-139 -83l-61 102l141 85l-70 113l159 96z"/>
<glyph glyph-name="ntilde" horiz-adv-x="977" unicode="ñ" d="M104 1010h267v-138q70 158 253 158q99 0 163.5 -44.5t82.5 -113.5t18 -210v-662h-282v662q0 102 -26 126t-70 24q-76 0 -100 -46.5t-24 -173.5v-592h-282v1010zM722 1385l89 -66q-102 -153 -229 -153q-48 0 -126 35q-88 39 -122 39q-39 0 -95 -63l-86 67q111 143 219 143 q50 0 132 -35q90 -39 122 -39q45 0 96 72z"/>
<glyph glyph-name="ograve" horiz-adv-x="942" unicode="ò" d="M591 505q0 193 -26.5 261t-92.5 68q-64 0 -92 -64.5t-28 -264.5q0 -185 24 -257t96 -72q69 0 94 71.5t25 257.5zM882 505q0 -526 -410 -526q-411 0 -411 526q0 525 411 525q410 0 410 -525zM638 1203l-84 -84l-369 231l112 167z"/>
<glyph glyph-name="oacute" horiz-adv-x="942" unicode="ó" d="M591 505q0 193 -26.5 261t-92.5 68q-64 0 -92 -64.5t-28 -264.5q0 -185 24 -257t96 -72q69 0 94 71.5t25 257.5zM882 505q0 -526 -410 -526q-411 0 -411 526q0 525 411 525q410 0 410 -525zM325 1203l341 314l112 -167l-369 -231z"/>
<glyph glyph-name="ocircumflex" horiz-adv-x="942" unicode="ô" d="M591 505q0 193 -26.5 261t-92.5 68q-64 0 -92 -64.5t-28 -264.5q0 -185 24 -257t96 -72q69 0 94 71.5t25 257.5zM882 505q0 -526 -410 -526q-411 0 -411 526q0 525 411 525q410 0 410 -525zM70 1132l401 313l401 -313h-218l-183 118l-183 -118h-218z"/>
<glyph glyph-name="otilde" horiz-adv-x="942" unicode="õ" d="M591 505q0 193 -26.5 261t-92.5 68q-64 0 -92 -64.5t-28 -264.5q0 -185 24 -257t96 -72q69 0 94 71.5t25 257.5zM882 505q0 -526 -410 -526q-411 0 -411 526q0 525 411 525q410 0 410 -525zM711 1385l89 -66q-102 -153 -229 -153q-48 0 -126 35q-88 39 -122 39 q-39 0 -95 -63l-86 67q111 143 219 143q50 0 132 -35q90 -39 122 -39q45 0 96 72z"/>
<glyph glyph-name="odieresis" horiz-adv-x="942" unicode="ö" d="M591 505q0 193 -26.5 261t-92.5 68q-64 0 -92 -64.5t-28 -264.5q0 -185 24 -257t96 -72q69 0 94 71.5t25 257.5zM882 505q0 -526 -410 -526q-411 0 -411 526q0 525 411 525q410 0 410 -525zM188 1269q0 45 33.5 76.5t80.5 31.5t80.5 -31.5t33.5 -76.5q0 -47 -35.5 -77 t-78.5 -30q-41 0 -77.5 29t-36.5 78zM526 1269q0 45 33.5 76.5t80.5 31.5q48 0 81 -31.5t33 -76.5q0 -48 -36 -77.5t-78 -29.5q-43 0 -78.5 30t-35.5 77z"/>
<glyph glyph-name="divide" d="M645 210h-242v271h242v-271zM942 574h-837v217h837v-217zM645 885h-242v270h242v-270z" unicode="÷"/>
<glyph glyph-name="oslash" horiz-adv-x="942" unicode="ø" d="M391 176q35 -14 81 -14q98 0 128.5 81.5t30.5 261.5q0 77 -7 176zM564 825q-45 23 -89 23q-96 0 -129.5 -75.5t-33.5 -267.5q0 -98 10 -201zM722 1115h134l-97 -193q123 -135 123 -417q0 -526 -410 -526q-100 0 -180 31l-64 -127h-133l98 195q-132 137 -132 427 q0 525 411 525q107 0 190 -35z"/>
<glyph glyph-name="ugrave" horiz-adv-x="977" unicode="ù" d="M90 1010h282v-648q0 -98 18 -131t78 -33q55 0 83.5 27t34.5 74.5t6 195.5v515h282v-1010h-265v138q-60 -103 -119.5 -131t-140.5 -28q-109 0 -167 45t-75 114t-17 215v657zM642 1203l-84 -84l-369 231l112 167z"/>
<glyph glyph-name="uacute" horiz-adv-x="977" unicode="ú" d="M90 1010h282v-648q0 -98 18 -131t78 -33q55 0 83.5 27t34.5 74.5t6 195.5v515h282v-1010h-265v138q-60 -103 -119.5 -131t-140.5 -28q-109 0 -167 45t-75 114t-17 215v657zM329 1203l341 314l112 -167l-369 -231z"/>
<glyph glyph-name="ucircumflex" horiz-adv-x="977" unicode="û" d="M90 1010h282v-648q0 -98 18 -131t78 -33q55 0 83.5 27t34.5 74.5t6 195.5v515h282v-1010h-265v138q-60 -103 -119.5 -131t-140.5 -28q-109 0 -167 45t-75 114t-17 215v657zM81 1132l401 313l401 -313h-218l-183 118l-183 -118h-218z"/>
<glyph glyph-name="udieresis" horiz-adv-x="977" unicode="ü" d="M90 1010h282v-648q0 -98 18 -131t78 -33q55 0 83.5 27t34.5 74.5t6 195.5v515h282v-1010h-265v138q-60 -103 -119.5 -131t-140.5 -28q-109 0 -167 45t-75 114t-17 215v657zM199 1269q0 45 33.5 76.5t80.5 31.5t80.5 -31.5t33.5 -76.5q0 -47 -35.5 -77t-78.5 -30 q-41 0 -77.5 29t-36.5 78zM537 1269q0 45 33.5 76.5t80.5 31.5q48 0 81 -31.5t33 -76.5q0 -48 -36 -77.5t-78 -29.5q-43 0 -78.5 30t-35.5 77z"/>
<glyph glyph-name="yacute" horiz-adv-x="733" unicode="ý" d="M-28 1010h282l136 -617l131 617h243l-304 -1026q-44 -147 -75 -206t-93 -97.5t-158 -38.5q-59 0 -120 16v222q42 -6 79 -6q82 0 112.5 27t57.5 118zM236 1203l341 314l112 -167l-369 -231z"/>
<glyph glyph-name="thorn" horiz-adv-x="977" unicode="þ" d="M381 413q0 -145 23.5 -188.5t95.5 -43.5q64 0 95 58t31 281q0 194 -27 256t-86 62q-64 0 -98 -59.5t-34 -174.5v-191zM104 1365h277v-483q85 141 219 141q139 0 228 -129t89 -372q0 -266 -90 -401t-252 -135q-116 0 -189 89l-5 -417h-277v1707z"/>
<glyph glyph-name="dotlessi" horiz-adv-x="488" unicode="ı" d="M103 1010h282v-1010h-282v1010z"/>
<glyph glyph-name="kgreenlandic" horiz-adv-x="942" unicode="ĸ" d="M104 1010h282v-390l284 390h256l-255 -339l280 -671h-304l-158 469l-103 -142v-327h-282v1010z"/>
<glyph glyph-name="OE" horiz-adv-x="1605" unicode="Œ" d="M763 1088q-56 54 -153 54q-137 0 -175.5 -143.5t-38.5 -337.5q0 -438 219 -438q91 0 148 51v814zM1587 1365v-234h-536v-317h419v-235h-419v-335h536v-244h-812q-106 -21 -180 -21q-139 0 -259.5 65t-188 236.5t-67.5 367.5q0 388 136 563t390 175q77 0 186 -21h795z"/>
<glyph glyph-name="oe" horiz-adv-x="1465" unicode="œ" d="M591 505q0 191 -26.5 260t-93.5 69q-64 0 -91.5 -64.5t-27.5 -264.5q0 -185 24.5 -257t94.5 -72q71 0 95.5 73t24.5 256zM1140 621v29q0 194 -132 194q-136 0 -137 -223h269zM1405 458h-536q-1 -35 -1 -56q0 -136 39.5 -182t102.5 -46q127 0 144 173l251 -16 q-74 -352 -395 -352q-170 0 -278 109q-93 -109 -270 -109q-200 0 -300.5 135t-100.5 391q0 525 404 525q183 0 279 -117q96 117 258 117q141 0 235 -74.5t131 -192t37 -305.5z"/>
<glyph glyph-name="Scaron" d="M964 1068l-248 -95q-53 169 -194 169q-66 0 -104.5 -37.5t-38.5 -87.5q0 -58 45.5 -92.5t190.5 -90.5q132 -49 207.5 -97t122 -130.5t46.5 -191.5q0 -191 -131.5 -313.5t-352.5 -122.5q-371 0 -474 375l262 75q48 -206 219 -206q78 0 126.5 40.5t48.5 106.5 q0 50 -34 89.5t-156 83.5q-157 56 -234 101.5t-127 130t-50 192.5q0 184 118.5 301.5t313.5 117.5q356 0 444 -318zM137 1762h218l183 -119l183 119h218l-401 -313z" unicode="Š"/>
<glyph glyph-name="scaron" horiz-adv-x="837" unicode="š" d="M770 767l-201 -60q-40 137 -148 137q-88 0 -88 -88q0 -50 33 -76t136 -62q116 -41 170 -72t91 -93.5t37 -143.5q0 -140 -101 -235t-282 -95q-341 0 -378 301l224 36q28 -151 159 -151q112 0 112 94q0 50 -33 76t-128 56q-174 56 -239 135t-65 183q0 146 102.5 234 t256.5 88q269 0 342 -264zM28 1426h218l183 -119l183 119h218l-401 -313z"/>
<glyph glyph-name="Ydieresis" horiz-adv-x="907" unicode="Ÿ" d="M-58 1365h330l193 -498l206 498h293l-379 -788v-577h-300v577zM171 1601q0 45 33.5 76.5t80.5 31.5t80.5 -31.5t33.5 -76.5q0 -47 -35.5 -77t-78.5 -30q-41 0 -77.5 29t-36.5 78zM509 1601q0 45 33.5 76.5t80.5 31.5q48 0 81 -31.5t33 -76.5q0 -48 -36 -77.5t-78 -29.5 q-43 0 -78.5 30t-35.5 77z"/>
<glyph glyph-name="circumflex" horiz-adv-x="942" unicode="ˆ" d="M70 1132l401 313l401 -313h-218l-183 118l-183 -118h-218z"/>
<glyph glyph-name="caron" horiz-adv-x="942" unicode="ˇ" d="M70 1426h218l183 -119l183 119h218l-401 -313z"/>
<glyph glyph-name="ring" horiz-adv-x="942" unicode="˚" d="M394 1302q0 -36 24.5 -58.5t52.5 -22.5q29 0 53 22.5t24 58.5q0 35 -23.5 58.5t-53.5 23.5t-53.5 -23.5t-23.5 -58.5zM278 1301q0 83 58 139t135 56t135 -55.5t58 -139.5q0 -86 -60.5 -139t-132.5 -53t-132.5 53.5t-60.5 138.5z"/>
<glyph glyph-name="tilde" horiz-adv-x="942" unicode="˜" d="M711 1385l89 -66q-102 -153 -229 -153q-48 0 -126 35q-88 39 -122 39q-39 0 -95 -63l-86 67q111 143 219 143q50 0 132 -35q90 -39 122 -39q45 0 96 72z"/>
<glyph glyph-name="Alpha" d="M630 516l-137 557l-133 -557h270zM370 1365h302l390 -1365h-307l-68 282h-384l-67 -282h-276z" unicode="Α"/>
<glyph glyph-name="Beta" horiz-adv-x="1140" unicode="Β" d="M417 235h147q207 0 207 178q0 99 -51.5 139.5t-155.5 40.5h-147v-358zM417 814h97q145 0 182.5 52t37.5 119q0 62 -37.5 110.5t-160.5 48.5h-119v-330zM129 1365h466q164 0 247.5 -26t140 -114t56.5 -219q0 -229 -195 -294q232 -82 232 -335q0 -133 -63 -224.5 t-155.5 -122t-262.5 -30.5h-466v1365z"/>
<glyph glyph-name="Gamma" horiz-adv-x="959" unicode="Γ" d="M959 1365v-248h-530v-1117h-300v1365h830z"/>
<glyph glyph-name="Delta" horiz-adv-x="1040" unicode="Δ" d="M709 256l-206 817l-195 -817h401zM345 1365h337l390 -1365h-1102z"/>
<glyph glyph-name="Epsilon" horiz-adv-x="1011" unicode="Ε" d="M129 1365h830v-234h-530v-317h412v-235h-412v-335h530v-244h-830v1365z"/>
<glyph glyph-name="Zeta" horiz-adv-x="942" unicode="Ζ" d="M44 1365h877v-213l-571 -908h589v-244h-937v209l575 912h-533v244z"/>
<glyph glyph-name="Eta" horiz-adv-x="1186" unicode="Η" d="M129 1365h300v-551h328v551h300v-1365h-300v558h-328v-558h-300v1365z"/>
<glyph glyph-name="Theta" horiz-adv-x="1166" unicode="Θ" d="M719 811v-235h-272v235h272zM770 683q0 277 -45 368t-142 91t-141.5 -91.5t-44.5 -367.5q0 -277 45 -368.5t141 -91.5t141.5 90.5t45.5 369.5zM1098 696q0 -717 -515 -717q-240 0 -377.5 169.5t-137.5 521.5q0 716 515 716q240 0 377.5 -169.5t137.5 -520.5z"/>
<glyph glyph-name="Iota" horiz-adv-x="558" unicode="Ι" d="M129 1365h300v-1365h-300v1365z"/>
<glyph glyph-name="Kappa" horiz-adv-x="1116" unicode="Κ" d="M129 1365h300v-569l332 569h303l-342 -502l371 -863h-310l-240 629l-114 -165v-464h-300v1365z"/>
<glyph glyph-name="Lambda" horiz-adv-x="1049" unicode="Λ" d="M245 0h-277l375 1365h337l390 -1365h-298l-271 1073z"/>
<glyph glyph-name="Mu" horiz-adv-x="1535" unicode="Μ" d="M129 1365h440l193 -843l217 843h427v-1365h-281v1143l-279 -1143h-218l-255 1143v-1143h-244v1365z"/>
<glyph glyph-name="Nu" horiz-adv-x="1151" unicode="Ν" d="M118 1365h333l351 -848v848h232v-1365h-268l-416 988v-988h-232v1365z"/>
<glyph glyph-name="Xi" horiz-adv-x="923" unicode="Ξ" d="M858 250v-251h-793v251h793zM734 822v-252h-544v252h544zM858 1365v-251h-793v251h793z"/>
<glyph glyph-name="Omicron" horiz-adv-x="1151" unicode="Ο" d="M755 683q0 276 -43 367.5t-137 91.5q-93 0 -136 -92t-43 -367q0 -270 42.5 -365t136.5 -95q93 0 136.5 91t43.5 369zM1071 683q0 -704 -495 -704q-246 0 -371 179.5t-125 524.5q0 703 495 703q242 0 369 -176t127 -527z"/>
<glyph glyph-name="Pi" horiz-adv-x="1186" unicode="Π" d="M129 1365h928v-1365h-300v1109h-328v-1109h-300v1365z"/>
<glyph glyph-name="Rho" d="M429 1144v-404h93q123 0 158.5 57t35.5 148q0 77 -27.5 124.5t-64 61t-102.5 13.5h-93zM129 1365h393q179 0 277.5 -30t165.5 -135.5t67 -261.5q0 -150 -54 -248t-149.5 -141.5t-293.5 -43.5h-106v-505h-300v1365z" unicode="Ρ"/>
<glyph glyph-name="Sigma" horiz-adv-x="915" unicode="Σ" d="M58 1365h796v-234h-496l271 -376l-298 -511h557v-244h-830v244l286 491l-286 396v234z"/>
<glyph glyph-name="Tau" horiz-adv-x="802" unicode="Τ" d="M-24 1365h851v-256h-279v-1109h-300v1109h-272v256z"/>
<glyph glyph-name="Upsilon" horiz-adv-x="907" unicode="Υ" d="M-58 1365h330l193 -498l206 498h293l-379 -788v-577h-300v577z"/>
<glyph glyph-name="Phi" horiz-adv-x="1332" unicode="Φ" d="M795 357q176 66 176 336q0 249 -176 317v-653zM537 1010q-176 -66 -176 -335q0 -250 176 -318v653zM537 126q-253 41 -359.5 194t-106.5 364q0 223 117.5 371.5t348.5 186.5v164h258v-165q223 -31 344.5 -180t121.5 -377q0 -472 -466 -556v-168h-258v166z"/>
<glyph glyph-name="Chi" horiz-adv-x="977" unicode="Χ" d="M10 1365h334l163 -355l172 355h287l-322 -617l364 -748h-329l-199 446l-224 -446h-287l375 700z"/>
<glyph glyph-name="Psi" horiz-adv-x="1454" unicode="Ψ" d="M577 0v246q-142 19 -229.5 62t-142 119.5t-74.5 188.5t-20 335v414h300v-414q0 -267 29.5 -348t136.5 -110v872h300v-872q106 29 136 109.5t30 348.5v414h300v-414q0 -228 -20 -338t-78 -189t-143 -119t-225 -59v-246h-300z"/>
<glyph glyph-name="alpha" horiz-adv-x="1114" unicode="α" d="M680 512q-50 198 -86 258.5t-89 60.5q-56 0 -96 -87t-40 -231q0 -159 42 -247t99 -88q52 0 89 69t81 265zM1098 0h-290l-74 234q-109 -255 -301 -255q-170 0 -274 156t-104 371q0 244 113 384.5t291 140.5q186 0 285 -210l53 189h278l-172 -478z"/>
<glyph glyph-name="beta" horiz-adv-x="1033" unicode="β" d="M392 274q0 -32 16 -53t48.5 -39.5t63.5 -18.5q74 0 117.5 77t43.5 210q0 72 -22 126t-57 73.5t-100 19.5v169q95 2 124 51.5t29 125.5q0 103 -40 153t-103 50q-67 0 -93.5 -53t-26.5 -245v-646zM110 -340v1221q0 182 34 286t123.5 162.5t250.5 58.5q193 0 290 -97 t97 -237q0 -224 -218 -283q167 -42 229 -142t62 -214q0 -174 -106.5 -305t-272.5 -131q-143 0 -207 102v-421h-282z"/>
<glyph glyph-name="gamma" horiz-adv-x="787" unicode="γ" d="M247 -341v342l-271 1009h281l166 -650l165 650h237l-296 -1009v-342h-282z"/>
<glyph glyph-name="delta" horiz-adv-x="1012" unicode="δ" d="M527 761q-153 0 -153 -294q0 -292 150 -292q151 0 151 298q0 151 -36 219.5t-112 68.5zM836 1365v-188h-339l117 -104l51 -42q286 -237 286 -554q0 -229 -118 -365.5t-326 -136.5q-205 0 -326 133.5t-121 369.5q0 189 111 315.5t263 143.5l-254 240v188h656z"/>
<glyph glyph-name="epsilon" horiz-adv-x="869" unicode="ε" d="M574 610v-191q-106 0 -140.5 -4t-59 -30.5t-24.5 -78.5q0 -68 32 -104t78 -36q102 0 147 155l241 -43q-73 -193 -169.5 -247t-231.5 -54q-198 0 -292.5 90.5t-94.5 227.5q0 160 161 234q-136 75 -136 215q0 119 92.5 202.5t271.5 83.5q328 0 377 -280l-251 -48 q-23 142 -107 142q-93 0 -93 -123q0 -52 20 -76.5t49.5 -29.5t129.5 -5z"/>
<glyph glyph-name="zeta" horiz-adv-x="716" unicode="ζ" d="M94 1147v218h596v-177q-346 -344 -346 -750q0 -124 27.5 -158t126.5 -42q106 -8 158 -57t52 -182q0 -144 -80 -344l-251 27q68 166 68 252q0 36 -17 48.5t-63 13.5q-110 3 -171.5 46.5t-97.5 130t-36 219.5q0 400 356 755h-322z"/>
<glyph glyph-name="eta" horiz-adv-x="986" unicode="η" d="M104 1010h282v-138q67 158 246 158q89 0 148.5 -38t83.5 -100t24 -230v-1006h-282v1006q0 134 -16.5 162t-71.5 28q-39 0 -77.5 -38t-46.5 -90t-8 -132v-592h-282v1010z"/>
<glyph glyph-name="theta" horiz-adv-x="1012" unicode="θ" d="M332 617q2 -438 175 -438q167 0 172 438h-347zM332 795h347q-12 392 -174 392q-160 0 -173 -392zM506 1386q219 0 331 -189.5t112 -514.5q0 -327 -114 -515t-329 -188q-216 0 -329.5 188t-113.5 515q0 321 110.5 512.5t332.5 191.5z"/>
<glyph glyph-name="iota" horiz-adv-x="488" unicode="ι" d="M103 1010h282v-1010h-282v1010z"/>
<glyph glyph-name="kappa" horiz-adv-x="942" unicode="κ" d="M104 1010h282v-390l284 390h256l-255 -339l280 -671h-304l-158 469l-103 -142v-327h-282v1010z"/>
<glyph glyph-name="lambda" horiz-adv-x="796" unicode="λ" d="M-24 0l284 922l-123 443h282l405 -1365h-287l-149 579l-170 -579h-242z"/>
<glyph glyph-name="mu" horiz-adv-x="998" unicode="μ" d="M103 -345v1355h282v-534q0 -136 4.5 -179.5t32 -72.5t73.5 -29q54 0 86 44t32 237v534h281v-1010h-273l1 137q-30 -161 -130 -161q-104 0 -124 157v-478h-265z"/>
<glyph glyph-name="nu" horiz-adv-x="733" unicode="ν" d="M-22 1010h271l139 -597l141 597h234l-277 -1010h-223z"/>
<glyph glyph-name="xi" horiz-adv-x="816" unicode="ξ" d="M530 -314q32 147 32 199t-31 68t-81 19q-156 8 -232 48t-119.5 127.5t-43.5 208.5q0 149 67 230.5t203 134.5q-133 51 -170 102.5t-37 109.5q0 147 200 215h-222v217h682v-217h-125q-77 0 -116.5 -11t-71.5 -53.5t-32 -102.5q0 -168 176 -168h99v-214h-99 q-94 0 -139 -14.5t-73 -60t-28 -114.5q0 -87 38 -122.5t130 -49.5q116 -17 164 -33.5t79 -67t31 -155.5q0 -126 -61 -332z"/>
<glyph glyph-name="omicron" horiz-adv-x="942" unicode="ο" d="M591 505q0 193 -26.5 261t-92.5 68q-64 0 -92 -64.5t-28 -264.5q0 -185 24 -257t96 -72q69 0 94 71.5t25 257.5zM882 505q0 -526 -410 -526q-411 0 -411 526q0 525 411 525q410 0 410 -525z"/>
<glyph glyph-name="pi" horiz-adv-x="1109" unicode="π" d="M976 782v-782h-282v782h-279v-782h-282v782h-102v228h1047v-228h-102z"/>
<glyph glyph-name="rho" horiz-adv-x="976" unicode="ρ" d="M631 505q0 193 -27 261t-93 68q-64 0 -92 -64.5t-28 -264.5q0 -212 30 -270.5t90 -58.5q70 0 95 71.5t25 257.5zM373 75v-417h-282v711q0 229 31.5 366.5t129 216t257.5 78.5q412 0 412 -525q0 -266 -99 -401.5t-259 -135.5q-164 0 -190 107z"/>
<glyph glyph-name="sigma1" horiz-adv-x="884" unicode="ς" d="M536 -299q53 123 53 203q0 40 -17 56.5t-70 20.5q-213 18 -330 152.5t-117 368.5q0 250 113 390.5t310 140.5q141 0 236 -75.5t141 -278.5l-259 -50q-23 188 -120 188q-54 0 -92.5 -65t-38.5 -211q0 -126 31.5 -189.5t81 -87.5t156.5 -43q122 -22 181 -73.5t59 -163.5 q0 -126 -65 -335z"/>
<glyph glyph-name="sigma" horiz-adv-x="992" unicode="σ" d="M585 505q0 193 -26.5 261t-92.5 68q-64 0 -92 -64.5t-28 -264.5q0 -185 24 -257t96 -72q69 0 94 71.5t25 257.5zM614 1011l358 -1v-200h-191q57 -62 76 -126t19 -187q0 -518 -410 -518q-411 0 -411 526q0 525 411 525q83 0 148 -19z"/>
<glyph glyph-name="tau" horiz-adv-x="747" unicode="τ" d="M-7 1010h762v-224h-244v-786h-281v786h-237v224z"/>
<glyph glyph-name="upsilon" horiz-adv-x="965" unicode="υ" d="M97 1010h282v-584q0 -151 18.5 -191t84.5 -40q68 0 87 40t19 191v584h281v-584q0 -177 -33.5 -264t-123 -136t-223.5 -49q-140 0 -229 45t-126 131t-37 273v584z"/>
<glyph glyph-name="phi" horiz-adv-x="1273" unicode="φ" d="M761 178q162 56 162 328q0 279 -162 331v-659zM505 -341v317q-205 13 -325 155.5t-120 371.5q0 351 281 480l78 -234q-74 -90 -74 -250q0 -261 160 -319v843q66 8 128 8q199 0 318 -59.5t191 -186.5t72 -287q0 -200 -112.5 -351t-340.5 -171v-317h-256z"/>
<glyph glyph-name="chi" horiz-adv-x="844" unicode="χ" d="M281 369l-269 641h269l162 -383l193 383h239l-294 -671l295 -676h-269l-190 470l-225 -470h-238z"/>
<glyph glyph-name="psi" horiz-adv-x="1293" unicode="ψ" d="M505 -341v325q-138 9 -229 63.5t-134.5 143.5t-43.5 293v526h282v-526q0 -154 23 -211t102 -69v806h282v-806q81 12 103.5 70.5t22.5 209.5v526h281v-526q0 -180 -37.5 -278t-132 -154t-237.5 -68v-325h-282z"/>
<glyph glyph-name="endash" horiz-adv-x="907" unicode="–" d="M81 622h744v-209h-744v209z"/>
<glyph glyph-name="emdash" horiz-adv-x="1361" unicode="—" d="M76 622h1209v-209h-1209v209z"/>
<glyph glyph-name="quoteleft" horiz-adv-x="488" unicode="‘" d="M372 819h-256v302l146 268h110l-113 -268h113v-302z"/>
<glyph glyph-name="quotesinglbase" horiz-adv-x="489" unicode="‚" d="M116 302h256v-302l-146 -268h-110l113 268h-113v302z"/>
<glyph glyph-name="quotedblleft" horiz-adv-x="872" unicode="“" d="M389 819h-256v302l146 268h110l-113 -268h113v-302zM738 819h-256v302l146 268h110l-113 -268h113v-302z"/>
<glyph glyph-name="quotedblright" horiz-adv-x="872" unicode="”" d="M482 1365h256v-302l-146 -268h-110l112 268h-112v302zM133 1365h256v-302l-146 -268h-110l113 268h-113v302z"/>
<glyph glyph-name="dagger" d="M388 1365h271v-366h283v-235h-283v-1106h-271v1106h-283v235h283v366z" unicode="†"/>
<glyph glyph-name="daggerdbl" d="M388 1365h271v-366h283v-235h-283v-504h283v-236h-283v-366h-271v366h-283v236h283v504h-283v235h283v366z" unicode="‡"/>
<glyph glyph-name="ellipsis" horiz-adv-x="1570" unicode="…" d="M1169 302h279v-302h-279v302zM645 302h280v-302h-280v302zM122 302h279v-302h-279v302z"/>
<glyph glyph-name="perthousand" horiz-adv-x="1989" unicode="‰" d="M1733 344q0 128 -20 164t-56 36q-40 0 -58 -39.5t-18 -160.5q0 -128 20 -164t56 -36q41 0 58.5 42.5t17.5 157.5zM1927 344q0 -171 -72 -261t-198 -90t-198 89.5t-72 261.5q0 173 72.5 262t197.5 89q124 0 197 -88t73 -263zM1111 344q0 128 -19.5 164t-56.5 36 q-40 0 -57.5 -41t-17.5 -159q0 -127 19.5 -163.5t55.5 -36.5q41 0 58.5 41.5t17.5 158.5zM1305 344q0 -172 -72 -261.5t-198 -89.5t-198 90t-72 261q0 172 72.5 261.5t197.5 89.5q124 0 197 -88t73 -263zM928 1365h154l-644 -1365h-155zM401 1021q0 128 -19.5 164t-55.5 36 q-40 0 -58 -40t-18 -160q0 -128 19.5 -164t56.5 -36q40 0 57.5 41.5t17.5 158.5zM596 1021q0 -171 -72 -261t-198 -90q-125 0 -197.5 88t-72.5 263q0 172 71.5 261.5t198.5 89.5t198.5 -90t71.5 -261z"/>
<glyph glyph-name="minute" horiz-adv-x="397" unicode="′" d="M211 797h-171l156 568h242z"/>
<glyph glyph-name="second" horiz-adv-x="759" unicode="″" d="M600 797h-170l155 568h242zM211 797h-171l156 568h242z"/>
<glyph glyph-name="guilsinglleft" horiz-adv-x="558" unicode="‹" d="M458 167h-148l-211 358l211 357h148l-125 -357z"/>
<glyph glyph-name="guilsinglright" horiz-adv-x="559" unicode="›" d="M100 882h149l210 -357l-210 -358h-149l125 358z"/>
<glyph glyph-name="uni203E" horiz-adv-x="1147" unicode="‾" d="M-42 1869h1231v-74h-1231v74z"/>
<glyph glyph-name="uni2044" horiz-adv-x="176" unicode="⁄" d="M329 1365h165l-651 -1365h-161z"/>
<glyph glyph-name="Euro" d="M1034 1014l-256 -66q-37 195 -186 195q-157 0 -186 -238h219v-153h-232l-2 -25v-96h234v-154h-224q32 -256 187 -256q76 0 118.5 41t69.5 137l256 -57q-52 -193 -152.5 -280t-291.5 -87q-192 0 -313 129t-158 373h-109v154h96q-2 13 -2 45l2 76h-96v153h115 q43 235 162 359.5t303 124.5q176 0 292 -96t154 -279z" unicode="€"/>
<glyph glyph-name="trademark" horiz-adv-x="1500" unicode="™" d="M600 1324h269l111 -477l126 477h261v-778h-169v648l-168 -648h-130l-153 648v-648h-147v778zM27 1324h511v-145h-168v-633h-180v633h-163v145z"/>
<glyph glyph-name="arrowleft" horiz-adv-x="2048" unicode="←" d="M492 876h78q-82 -170 -197 -309h1595v-101h-1595q101 -102 197 -309h-78q-222 253 -413 341v45q176 71 413 333z"/>
<glyph glyph-name="arrowup" horiz-adv-x="1024" unicode="↑" d="M153 1049q262 236 333 414h46q86 -191 340 -414v-77q-207 95 -309 196v-1595h-101v1595q-139 -114 -309 -196v77z"/>
<glyph glyph-name="arrowright" horiz-adv-x="2048" unicode="→" d="M1555 876q236 -262 413 -333v-45q-191 -88 -413 -341h-77q95 207 196 309h-1595v101h1595q-115 139 -196 309h77z"/>
<glyph glyph-name="arrowdown" horiz-adv-x="1024" unicode="↓" d="M153 -13v77q170 -82 309 -196v1595h101v-1595q102 100 309 196v-77q-254 -223 -340 -414h-46q-71 178 -333 414z"/>
<glyph glyph-name="partialdiff" horiz-adv-x="1012" unicode="∂" d="M815 758l-40 1q-229 0 -365 -124.5t-136 -296.5q0 -70 39.5 -121.5t101.5 -51.5q137 0 251 160t149 433zM380 1123l-137 84q51 147 154 215.5t216 68.5q161 0 263 -136.5t102 -413.5q0 -239 -77 -487t-226.5 -365t-317.5 -117q-140 0 -226 93t-86 261q0 261 204.5 439 t538.5 178q12 0 39 -1q0 178 -58 272.5t-161 94.5q-137 0 -228 -186z"/>
<glyph glyph-name="product" horiz-adv-x="1685" unicode="∏" d="M162 1536h1362v-1962h-191v1788h-978v-1788h-193v1962z"/>
<glyph glyph-name="summation" horiz-adv-x="1460" unicode="∑" d="M139 1536h1237v-164h-988l607 -803l-649 -834h1040v-161h-1264v187l620 800l-603 799v176z"/>
<glyph glyph-name="minus" d="M942 574h-837v217h837v-217z" unicode="−"/>
<glyph glyph-name="fraction" horiz-adv-x="176" unicode="∕" d="M329 1365h165l-651 -1365h-161z"/>
<glyph glyph-name="radical" horiz-adv-x="1124" unicode="√" d="M1047 1869h74l-312 -1947l-496 1021l-198 -91l-34 64l301 151l405 -823z"/>
<glyph glyph-name="infinity" horiz-adv-x="1460" unicode="∞" d="M593 739q-100 141 -190 141q-46 0 -79.5 -37.5t-33.5 -102.5q0 -58 29.5 -101t83.5 -43q80 0 190 143zM772 737q94 -148 139 -175.5t94 -27.5q79 0 118.5 62t39.5 143t-40.5 140t-114.5 59q-112 0 -236 -201zM679 856q134 228 323 228q129 0 218 -92t89 -257t-89 -257 t-218 -92q-189 0 -323 229q-49 -75 -129.5 -123.5t-157.5 -48.5q-107 0 -174.5 83.5t-67.5 208.5q0 126 67 209.5t175 83.5q77 0 157.5 -49t129.5 -123z"/>
<glyph glyph-name="intersection" horiz-adv-x="1473" unicode="∩" d="M350 0h-206v636q0 271 14 386t84 226q70 112 206 186t289 74q154 0 289 -75t203 -181t84 -222t16 -394v-636h-206v642q1 274 -21 386t-126 195t-239 83q-103 0 -195 -53t-132 -125t-50 -166q-10 -96 -10 -320v-642z"/>
<glyph glyph-name="approxequal" d="M177 275l-149 105q112 278 305 278q68 0 231 -69q120 -52 158 -52q79 0 147 107l149 -104q-104 -275 -322 -275q-63 0 -226 72q-101 46 -151 46q-73 0 -142 -108zM177 717l-149 105q111 278 305 278q69 0 231 -70q119 -51 158 -51q79 0 147 107l149 -104 q-105 -275 -320 -275q-66 0 -228 72q-101 45 -151 45q-73 0 -142 -107z" unicode="≈"/>
<glyph glyph-name="notequal" d="M771 958h171v-216h-271l-56 -119h327v-216h-428l-104 -224l-196 92l62 132h-171v216h272l55 119h-327v216h428l104 224l196 -91z" unicode="≠"/>
<glyph glyph-name="equivalence" d="M942 234h-837v216h837v-216zM942 569h-837v216h837v-216zM942 904h-837v216h837v-216z" unicode="≡"/>
<glyph glyph-name="lessequal" d="M967 325v-268h-887v268h887zM967 1308v-285l-554 -180l553 -178l1 -285l-887 336v256z" unicode="≤"/>
<glyph glyph-name="greaterequal" d="M80 57v268h887v-268h-887zM80 380l1 285l554 178l-555 180v285l887 -336v-256z" unicode="≥"/>
<glyph glyph-name="lozenge" horiz-adv-x="1012" unicode="◊" d="M495 1325l-340 -616l340 -615l359 615zM549 1422l418 -713l-418 -709h-111l-391 709l391 713h111z"/>
<glyph glyph-name="spade" horiz-adv-x="1092" unicode="♠" d="M547 1231q19 -82 65 -169t203 -230q121 -111 169 -181t48 -152q0 -96 -64 -160t-156 -64q-154 0 -254 190q0 -229 101 -325t277 -103l7 -37h-793l8 37q186 1 284 107t99 280v41q-90 -190 -262 -190q-91 0 -155 66t-64 155q0 150 188 305q262 215 299 430z"/>
<glyph glyph-name="club" horiz-adv-x="1354" unicode="♣" d="M1103 0h-848l8 34q153 32 219 68t126 139q58 103 58 228l-1 42q-55 -117 -143 -177t-184 -61q-114 0 -196 81t-82 199q0 111 72 193t170 82q64 0 163 -51q-67 106 -67 182q0 113 79 193t197 79q118 1 198 -79t81 -188q0 -94 -69 -187q106 53 162 53q105 0 176 -82 t71 -191q0 -119 -81 -201t-193 -82q-78 0 -167 50t-165 187q4 -157 48 -251q45 -94 123 -144q78 -51 237 -82z"/>
<glyph glyph-name="heart" horiz-adv-x="1210" unicode="♥" d="M607 -24q-33 122 -93 228t-275 390q-101 133 -140 212t-39 163q0 109 74 185t183 76q206 0 290 -251q33 129 113 191t172 61q110 0 184 -75t74 -177q0 -84 -40 -179t-174 -264q-284 -360 -329 -560z"/>
<glyph glyph-name="diamond" horiz-adv-x="1038" unicode="♦" d="M517 1231q193 -323 461 -627q-52 -52 -214 -265t-247 -363q-101 190 -457 628q324 383 457 627z"/>
<glyph glyph-name="uniF003" horiz-adv-x="698" unicode="" d="M363 876v313l-183 -313h183zM332 1377h234v-479h99v-167h-99v-185h-224v185h-314v155z"/>
<glyph glyph-name="uniF006" horiz-adv-x="1109" unicode="" d="M976 782v-782h-282v782h-279v-782h-282v782h-102v228h1047v-228h-102z"/>
</font>
</defs>
</svg>
