<?xml version="1.0" encoding="UTF-8"?>
<svg width="83px" height="83px" viewBox="0 0 83 83" version="1.1" xmlns="http://www.w3.org/2000/svg" xmlns:xlink="http://www.w3.org/1999/xlink">
    <title>carriage</title>
    <defs>
        <polygon id="path-1" points="0 0 74 0 74 2 0 2"></polygon>
    </defs>
    <g id="Careers" stroke="none" stroke-width="1" fill="none" fill-rule="evenodd">
        <g id="D---CLA-Benefits-Copy-3" transform="translate(-908.000000, -3120.000000)">
            <g id="Group-48" transform="translate(226.000000, 3073.062500)">
                <g id="Group-46" transform="translate(492.000000, 0.000000)">
                    <g id="Group-14" transform="translate(32.000000, 48.937500)">
                        <g id="Group-30" transform="translate(158.000000, 0.000000)">
                            <g id="Group-4" transform="translate(47.000000, 0.000000)">
                                <path d="M3.71557581,24 L18.0437546,10.2817861 C19.424824,8.95951018 19.2950368,6.7594343 17.7509014,5.6139929 C13.7607756,2.65082046 8.94200824,0.662627333 3.68396097,0.0253859464 C1.73715233,-0.21198647 5.91149888e-15,1.2457032 5.91149888e-15,3.12556529 L5.91149888e-15,22.5263793" id="Fill-1" fill="#7DD2D3"></path>
                                <path d="M3.71557581,24 L18.0437546,10.2817861 C19.424824,8.95951018 19.2950368,6.7594343 17.7509014,5.6139929 C13.7607756,2.65082046 8.94200824,0.662627333 3.68396097,0.0253859464 C1.73715233,-0.21198647 5.91149888e-15,1.2457032 5.91149888e-15,3.12556529 L5.91149888e-15,22.5263793" id="Stroke-3" stroke="#2E334E" stroke-width="3" stroke-linejoin="round"></path>
                            </g>
                            <g id="Group-8" transform="translate(51.000000, 9.000000)">
                                <path d="M1.47378351,19 L20.8847072,19 C22.7695568,19 24.213068,17.2557906 23.9740761,15.3035409 C23.3654434,10.3205609 21.5172392,5.47239094 18.4326501,1.29993574 C17.274336,-0.266191247 15.0676439,-0.455923952 13.7276959,0.942106511 L0,15.283569" id="Fill-5" fill="#7DD2D3"></path>
                                <path d="M1.47378351,19 L20.8847072,19 C22.7695568,19 24.213068,17.2557906 23.9740761,15.3035409 C23.3654434,10.3205609 21.5172392,5.47239094 18.4326501,1.29993574 C17.274336,-0.266191247 15.0676439,-0.455923952 13.7276959,0.942106511 L0,15.283569" id="Stroke-7" stroke="#2E334E" stroke-width="3" stroke-linejoin="round"></path>
                            </g>
                            <path d="M50.8956756,30 L73.6117842,30 C74.3778675,30 75,30.6167305 75,31.3761618 L75,44.1306725 C75,47.9245489 71.8976106,51 68.0688485,51 L22.9311515,51 C19.1023894,51 16,47.9245489 16,44.1306725 L16,30 L41.0060856,30" id="Stroke-9" stroke="#2E334E" stroke-width="3"></path>
                            <path d="M58,42 L66.9401956,42 C67.5254129,42 68,41.4957411 68,40.8739353 L68,35" id="Stroke-11" stroke="#2E334E" stroke-width="2"></path>
                            <path d="M52,28 C52,30.7612413 49.7615957,33 47.0007915,33 C44.2384043,33 42,30.7612413 42,28 C42,25.2387587 44.2384043,23 47.0007915,23 C49.7615957,23 52,25.2387587 52,28 Z" id="Stroke-13" stroke="#2E334E" stroke-width="3" stroke-linejoin="round"></path>
                            <path d="M66.6569378,65.3430622 C69.7810207,68.4671451 69.7810207,73.5328549 66.6569378,76.6569378 C63.5328549,79.7810207 58.4671451,79.7810207 55.3430622,76.6569378 C52.2189793,73.5328549 52.2189793,68.4671451 55.3430622,65.3430622 C58.4671451,62.2189793 63.5328549,62.2189793 66.6569378,65.3430622 Z" id="Stroke-15" stroke="#2E334E" stroke-width="3"></path>
                            <path d="M36.6569378,76.6569378 C33.5328549,79.7810207 28.4671451,79.7810207 25.3430622,76.6569378 C22.2189793,73.5328549 22.2189793,68.4671451 25.3430622,65.3430622 C28.4671451,62.2189793 33.5328549,62.2189793 36.6569378,65.3430622 C39.7810207,68.4671451 39.7810207,73.5328549 36.6569378,76.6569378 Z" id="Stroke-17" stroke="#2E334E" stroke-width="3"></path>
                            <line x1="37" y1="66" x2="61" y2="51" id="Stroke-19" stroke="#2E334E" stroke-width="3"></line>
                            <line x1="29" y1="51" x2="55" y2="66" id="Stroke-21" stroke="#2E334E" stroke-width="3"></line>
                            <polyline id="Stroke-23" stroke="#2E334E" stroke-width="3" points="17 30 8.79316105 14 0 14"></polyline>
                            <g id="Group-27" transform="translate(9.000000, 79.000000)">
                                <mask id="mask-2" fill="white">
                                    <use xlink:href="#path-1"></use>
                                </mask>
                                <g id="Clip-26"></g>
                                <line x1="0" y1="1" x2="74" y2="1" id="Stroke-25" stroke="#2E334E" stroke-width="2" mask="url(#mask-2)"></line>
                            </g>
                            <line x1="40" y1="71.5" x2="53" y2="71.5" id="Stroke-28" stroke="#2E334E" stroke-width="3"></line>
                        </g>
                    </g>
                </g>
            </g>
        </g>
    </g>
</svg>