<?xml version="1.0" encoding="UTF-8"?>
<svg width="71px" height="60px" viewBox="0 0 71 60" version="1.1" xmlns="http://www.w3.org/2000/svg" xmlns:xlink="http://www.w3.org/1999/xlink">
    <title>Consulting and Outsourcing</title>
    <defs>
        <polygon id="path-1" points="0 60 71 60 71 0 0 0"></polygon>
    </defs>
    <g id="Updated-Homepage-Module" stroke="none" stroke-width="1" fill="none" fill-rule="evenodd">
        <g id="Component" transform="translate(-411.000000, -87.000000)">
            <g id="Service-Squares/Active-Copy" transform="translate(34.000000, 33.000000)">
                <g id="Consulting-and-Outsourcing-Hover-Copy-2" transform="translate(285.000000, 0.000000)">
                    <g id="Consulting-and-Outsourcing" transform="translate(92.000000, 54.000000)">
                        <polygon id="Fill-1" fill="#7DD2D3" points="21 36 28 36 28 29 21 29"></polygon>
                        <polygon id="Fill-2" fill="#7DD2D3" points="44 36 51 36 51 29 44 29"></polygon>
                        <polygon id="Fill-3" fill="#2E334E" points="60 57.9116757 61.1046777 59 68.4747829 50.9568251 68.4747829 58.4566276 69.9984763 58.4566276 70 47"></polygon>
                        <path d="M1,60 L13,60 L1,49 L1,60 Z M2.54778795,52.4784793 L9.12124339,58.5049559 L2.54778795,58.5049559 L2.54778795,52.4784793 Z" id="Fill-4" fill="#2E334E"></path>
                        <g id="Group-18">
                            <path d="M3.21659947,56.7757537 L67.7834005,56.7757537 L67.7834005,10.9914557 C67.7834005,10.7141706 67.5566303,10.4868612 67.2800027,10.4868612 L3.71999728,10.4868612 C3.44336973,10.4868612 3.21659947,10.7141706 3.21659947,10.9914557 L3.21659947,56.7757537 Z M71,60 L0,60 L0,10.9914557 C0,8.93599871 1.66941512,7.26261486 3.71999728,7.26261486 L67.2800027,7.26261486 C69.3305849,7.26261486 71,8.93599871 71,10.9914557 L71,60 Z" id="Fill-5" fill="#2E334E"></path>
                            <path d="M61.5025076,34.1060777 L50.3232161,34.1060777 L50.3232161,30.8818314 L61.5025076,30.8818314 C64.9651769,30.8818314 67.782918,28.0573916 67.782918,24.5864904 L67.782918,23.6047074 L70.9995175,23.6047074 L70.9995175,24.5864904 C70.9995175,29.8355634 66.7391315,34.1060777 61.5025076,34.1060777" id="Fill-7" fill="#2E334E"></path>
                            <path d="M20.6763014,34.1060777 L9.49700992,34.1060777 C4.26038599,34.1060777 0,29.8355634 0,24.5864904 L0,23.6047074 L3.21659947,23.6047074 L3.21659947,24.5864904 C3.21659947,28.0573916 6.0343406,30.8818314 9.49700992,30.8818314 L20.6763014,30.8818314 L20.6763014,34.1060777 Z" id="Fill-9" fill="#2E334E"></path>
                            <mask id="mask-2" fill="white">
                                <use xlink:href="#path-1"></use>
                            </mask>
                            <g id="Clip-12"></g>
                            <polygon id="Fill-11" fill="#2E334E" mask="url(#mask-2)" points="27.810719 34.1060777 43.189281 34.1060777 43.189281 30.8818314 27.810719 30.8818314"></polygon>
                            <path d="M22.4631224,34.2785749 L26.023898,34.2785749 L26.023898,30.7093342 L22.4631224,30.7093342 L22.4631224,34.2785749 Z M19.2465229,37.5028212 L29.2404974,37.5028212 L29.2404974,27.4850879 L19.2465229,27.4850879 L19.2465229,37.5028212 Z" id="Fill-13" fill="#2E334E" mask="url(#mask-2)"></path>
                            <path d="M44.976102,34.2785749 L48.5368776,34.2785749 L48.5368776,30.7093342 L44.976102,30.7093342 L44.976102,34.2785749 Z M41.7595026,37.5028212 L51.7534771,37.5028212 L51.7534771,27.4850879 L41.7595026,27.4850879 L41.7595026,37.5028212 Z" id="Fill-14" fill="#2E334E" mask="url(#mask-2)"></path>
                            <path d="M46.5605989,7.26277608 L43.3439995,7.26277608 L43.3439995,4.7107851 C43.3439995,3.89021441 42.6781634,3.22440754 41.8611471,3.22440754 L29.0976804,3.22440754 C28.2806642,3.22440754 27.6148281,3.89021441 27.6148281,4.7107851 L27.6148281,7.26277608 L24.3982286,7.26277608 L24.3982286,4.7107851 C24.3982286,2.11365468 26.5067096,0.000161212317 29.0976804,0.000161212317 L41.8611471,0.000161212317 C44.452118,0.000161212317 46.5605989,2.11365468 46.5605989,4.7107851 L46.5605989,7.26277608 Z" id="Fill-15" fill="#2E334E" mask="url(#mask-2)"></path>
                            <polygon id="Fill-16" fill="#2E334E" mask="url(#mask-2)" points="60.4022697 59.4867 58.1281339 57.2071578 68.2958048 47.0153152 70.5699407 49.2948573"></polygon>
                            <polygon id="Fill-17" fill="#2E334E" mask="url(#mask-2)" points="10.5977303 59.4867 0.0907081049 48.9530872 2.36484393 46.6735451 12.8718661 57.2071578"></polygon>
                        </g>
                    </g>
                </g>
            </g>
        </g>
    </g>
</svg>