<?xml version="1.0" encoding="UTF-8"?>
<svg width="61px" height="66px" viewBox="0 0 61 66" version="1.1" xmlns="http://www.w3.org/2000/svg" xmlns:xlink="http://www.w3.org/1999/xlink">
    <title>calculator</title>
    <defs>
        <polygon id="path-1" points="0 66 61 66 61 0 0 0"></polygon>
    </defs>
    <g id="Careers" stroke="none" stroke-width="1" fill="none" fill-rule="evenodd">
        <g id="D---CLA-Benefits-Copy-3" transform="translate(-426.000000, -2301.000000)">
            <g id="Group-23" transform="translate(426.000000, 2301.000000)">
                <path d="M35.043271,14.3127983 C34.7139321,14.3127983 34.4456413,14.6360382 34.4456413,15.0347554 L34.4456413,50.9668854 C34.4456413,51.3639618 34.7139321,51.6872017 35.043271,51.6872017 L57.1893073,51.6872017 C57.5186463,51.6872017 57.7869371,51.3639618 57.7869371,50.9668854 L57.7869371,15.0347554 C57.7869371,14.6360382 57.5186463,14.3127983 57.1893073,14.3127983 L35.043271,14.3127983 Z M57.1893073,54.9688246 L35.043271,54.9688246 C32.9419278,54.9688246 31.2325784,53.1737768 31.2325784,50.9668854 L31.2325784,15.0347554 C31.2325784,12.827864 32.9419278,11.0311754 35.043271,11.0311754 L57.1893073,11.0311754 C59.2906505,11.0311754 61,12.827864 61,15.0347554 L61,50.9668854 C61,53.1737768 59.2906505,54.9688246 57.1893073,54.9688246 L57.1893073,54.9688246 Z" id="Fill-2" fill="#2E334E"></path>
                <mask id="mask-2" fill="white">
                    <use xlink:href="#path-1"></use>
                </mask>
                <g id="Clip-5"></g>
                <path d="M41.1127469,24.6072494 L51.1567817,24.6072494 L51.1567817,21.1188842 L41.1127469,21.1188842 L41.1127469,24.6072494 Z M37.9012905,27.8888723 L54.3714511,27.8888723 L54.3714511,17.8372613 L37.9012905,17.8372613 L37.9012905,27.8888723 Z" id="Fill-4" fill="#2E334E" mask="url(#mask-2)"></path>
                <polygon id="Fill-6" fill="#2E334E" mask="url(#mask-2)" points="37.8498815 48.1988365 41.1641559 48.1988365 41.1641559 44.9172136 37.8498815 44.9172136"></polygon>
                <polygon id="Fill-7" fill="#2E334E" mask="url(#mask-2)" points="44.4784303 48.1988365 47.7927048 48.1988365 47.7927048 44.9172136 44.4784303 44.9172136"></polygon>
                <polygon id="Fill-8" fill="#2E334E" mask="url(#mask-2)" points="51.1069792 48.1988365 54.4212536 48.1988365 54.4212536 44.9172136 51.1069792 44.9172136"></polygon>
                <polygon id="Fill-9" fill="#2E334E" mask="url(#mask-2)" points="37.8498815 41.4288484 41.1641559 41.4288484 41.1641559 38.1472255 37.8498815 38.1472255"></polygon>
                <polygon id="Fill-10" fill="#2E334E" mask="url(#mask-2)" points="44.4784303 41.4288484 47.7927048 41.4288484 47.7927048 38.1472255 44.4784303 38.1472255"></polygon>
                <polygon id="Fill-11" fill="#2E334E" mask="url(#mask-2)" points="51.1069792 41.4288484 54.4212536 41.4288484 54.4212536 38.1472255 51.1069792 38.1472255"></polygon>
                <polygon id="Fill-12" fill="#2E334E" mask="url(#mask-2)" points="37.8498815 34.6588604 41.1641559 34.6588604 41.1641559 31.3772375 37.8498815 31.3772375"></polygon>
                <polygon id="Fill-13" fill="#2E334E" mask="url(#mask-2)" points="44.4784303 34.6588604 47.7927048 34.6588604 47.7927048 31.3772375 44.4784303 31.3772375"></polygon>
                <polygon id="Fill-14" fill="#2E334E" mask="url(#mask-2)" points="51.1069792 34.6588604 54.4212536 34.6588604 54.4212536 31.3772375 51.1069792 31.3772375"></polygon>
                <polygon id="Fill-15" fill="#2E334E" mask="url(#mask-2)" points="11.8536318 12.10804 1.60717408 12.10804 1.60717408 8.82641706 8.64056887 8.82641706 8.64056887 1.6413037 11.8536318 1.6413037"></polygon>
                <polygon id="Fill-16" fill="#2E334E" mask="url(#mask-2)" points="16.256492 53.3280131 19.4695549 53.3280131 19.4695549 46.5580251 16.256492 46.5580251"></polygon>
                <polygon id="Fill-17" fill="#2E334E" mask="url(#mask-2)" points="22.8850408 53.3280131 26.0981038 53.3280131 26.0981038 43.1746718 22.8850408 43.1746718"></polygon>
                <polygon id="Fill-18" fill="#2E334E" mask="url(#mask-2)" points="9.62794311 53.3280131 12.8410061 53.3280131 12.8410061 49.9430191 9.62794311 49.9430191"></polygon>
                <path d="M41.7211404,66 L4.27610482,66 C1.91932315,66 -0.000481959442,64.0408711 -0.000481959442,61.6321599 L-0.000481959442,8.24507757 L8.07715828,0 L41.7211404,0 C44.0795286,0 45.9977272,1.96076969 45.9977272,4.3678401 L45.9977272,7.5772673 L42.7846642,7.5772673 L42.7846642,4.3678401 C42.7846642,3.76894391 42.3075244,3.28162291 41.7211404,3.28162291 L9.40736634,3.28162291 L3.21258098,9.60366945 L3.21258098,61.6321599 C3.21258098,62.2310561 3.68972083,62.7183771 4.27610482,62.7183771 L41.7211404,62.7183771 C42.3075244,62.7183771 42.7846642,62.2310561 42.7846642,61.6321599 L42.7846642,58.3784308 L45.9977272,58.3784308 L45.9977272,61.6321599 C45.9977272,64.0408711 44.0795286,66 41.7211404,66" id="Fill-19" fill="#2E334E" mask="url(#mask-2)"></path>
                <path d="M17.8631841,38.8448986 C14.3721912,38.8448986 11.530237,36.2967184 11.530237,33.1660501 L14.7433,33.1660501 C14.7433,34.4655728 16.1715065,35.5632757 17.8631841,35.5632757 C19.5548617,35.5632757 20.9830682,34.4655728 20.9830682,33.1660501 C20.9830682,31.6647076 19.8167264,30.7688246 17.8631841,30.7688246 C13.4885989,30.7688246 11.530237,27.9170943 11.530237,25.0899761 C11.530237,21.9593079 14.3721912,19.4111277 17.8631841,19.4111277 C21.354177,19.4111277 24.1961312,21.9593079 24.1961312,25.0899761 L20.9830682,25.0899761 C20.9830682,23.7904535 19.5548617,22.6927506 17.8631841,22.6927506 C16.1715065,22.6927506 14.7433,23.7904535 14.7433,25.0899761 C14.7433,26.61429 15.8807243,27.4872017 17.8631841,27.4872017 C21.5919436,27.4872017 24.1961312,29.8220764 24.1961312,33.1660501 C24.1961312,36.2967184 21.354177,38.8448986 17.8631841,38.8448986" id="Fill-20" fill="#7DD2D3" mask="url(#mask-2)"></path>
                <polygon id="Fill-21" fill="#7DD2D3" mask="url(#mask-2)" points="16.256492 20.2574582 19.4695549 20.2574582 19.4695549 17.4828461 16.256492 17.4828461"></polygon>
                <polygon id="Fill-22" fill="#7DD2D3" mask="url(#mask-2)" points="16.256492 40.7725239 19.4695549 40.7725239 19.4695549 37.9995525 16.256492 37.9995525"></polygon>
            </g>
        </g>
    </g>
</svg>