<?xml version="1.0" encoding="UTF-8"?>
<svg width="75px" height="59px" viewBox="0 0 75 59" version="1.1" xmlns="http://www.w3.org/2000/svg" xmlns:xlink="http://www.w3.org/1999/xlink">
    <title>Interactive Computer</title>
    <defs>
        <polygon id="path-1" points="2.08727773e-15 0 74.9984333 0 74.9984333 49.2818176 2.08727773e-15 49.2818176"></polygon>
        <polygon id="path-3" points="0 58.9285714 75 58.9285714 75 0 0 0"></polygon>
    </defs>
    <g id="Careers" stroke="none" stroke-width="1" fill="none" fill-rule="evenodd">
        <g id="D---CLA-Benefits-Copy-3" transform="translate(-414.000000, -1090.000000)">
            <g id="Group-45" transform="translate(228.000000, 1036.000000)">
                <g id="Group-42" transform="translate(31.000000, 54.000000)">
                    <g id="Omada's-Interactive---Computer" transform="translate(155.000000, 0.000000)">
                        <polygon id="Fill-1" fill="#7DD2D3" points="0.892857143 47.3214286 72.3214286 47.3214286 72.3214286 39.2857143 0.892857143 39.2857143"></polygon>
                        <g id="Group-15">
                            <g id="Group-4" transform="translate(0.000627, 0.000000)">
                                <mask id="mask-2" fill="white">
                                    <use xlink:href="#path-1"></use>
                                </mask>
                                <g id="Clip-3"></g>
                                <path d="M3.50159804,3.11718068 C3.29792568,3.11718068 3.13342107,3.28084085 3.13342107,3.48346773 L3.13342107,45.7966354 C3.13342107,45.9992622 3.29792568,46.1644811 3.50159804,46.1644811 L71.4968352,46.1644811 C71.7005076,46.1644811 71.8650122,45.9992622 71.8650122,45.7966354 L71.8650122,3.48346773 C71.8650122,3.28084085 71.7005076,3.11718068 71.4968352,3.11718068 L3.50159804,3.11718068 Z M71.4968352,49.2818176 L3.50159804,49.2818176 C1.57141067,49.2818176 2.08727773e-15,47.7184733 2.08727773e-15,45.7966354 L2.08727773e-15,3.48346773 C2.08727773e-15,1.56318841 1.57141067,-0.000155866827 3.50159804,-0.000155866827 L71.4968352,-0.000155866827 C73.4285893,-0.000155866827 74.9984333,1.56318841 74.9984333,3.48346773 L74.9984333,45.7966354 C74.9984333,47.7184733 73.4285893,49.2818176 71.4968352,49.2818176 L71.4968352,49.2818176 Z" id="Fill-2" fill="#2E334E" mask="url(#mask-2)"></path>
                            </g>
                            <mask id="mask-4" fill="white">
                                <use xlink:href="#path-3"></use>
                            </mask>
                            <g id="Clip-6"></g>
                            <polygon id="Fill-5" fill="#2E334E" mask="url(#mask-4)" points="1.56671053 41.1379318 73.4332895 41.1379318 73.4332895 38.0205952 1.56671053 38.0205952"></polygon>
                            <polygon id="Fill-7" fill="#2E334E" mask="url(#mask-4)" points="22.2081218 58.9285714 52.7903115 58.9285714 52.7903115 55.8112349 22.2081218 55.8112349"></polygon>
                            <polygon id="Fill-8" fill="#2E334E" mask="url(#mask-4)" points="31.0851037 57.3699032 34.2185248 57.3699032 34.2185248 47.7233052 31.0851037 47.7233052"></polygon>
                            <polygon id="Fill-9" fill="#2E334E" mask="url(#mask-4)" points="40.7814752 57.3699032 43.9148963 57.3699032 43.9148963 47.7233052 40.7814752 47.7233052"></polygon>
                            <polygon id="Fill-10" fill="#2E334E" mask="url(#mask-4)" points="7.21783543 33.1481982 10.3512565 33.1481982 10.3512565 7.98973357 7.21783543 7.98973357"></polygon>
                            <polygon id="Fill-11" fill="#2E334E" mask="url(#mask-4)" points="13.6053143 9.54840185 16.8374381 9.54840185 16.8374381 6.4310653 13.6053143 6.4310653"></polygon>
                            <polygon id="Fill-12" fill="#2E334E" mask="url(#mask-4)" points="20.0711287 9.54840185 23.3032525 9.54840185 23.3032525 6.4310653 20.0711287 6.4310653"></polygon>
                            <polygon id="Fill-13" fill="#2E334E" mask="url(#mask-4)" points="26.5353763 9.54840185 29.7675002 9.54840185 29.7675002 6.4310653 26.5353763 6.4310653"></polygon>
                            <polygon id="Fill-14" fill="#2E334E" mask="url(#mask-4)" points="68.5351257 33.1481982 65.4017046 33.1481982 65.4017046 9.54840185 32.9989973 9.54840185 32.9989973 6.4310653 68.5351257 6.4310653"></polygon>
                        </g>
                    </g>
                </g>
            </g>
        </g>
    </g>
</svg>