<?xml version="1.0" encoding="UTF-8"?>
<svg width="66px" height="79px" viewBox="0 0 66 79" version="1.1" xmlns="http://www.w3.org/2000/svg" xmlns:xlink="http://www.w3.org/1999/xlink">
    <title>Doctor</title>
    <defs>
        <polygon id="path-1" points="0 78.2571429 66 78.2571429 66 0 0 0"></polygon>
    </defs>
    <g id="Careers" stroke="none" stroke-width="1" fill="none" fill-rule="evenodd">
        <g id="D---CLA-Benefits-Copy-3">
            <g id="Group-51">
                <g id="DR.-ON-DEMAND">
                    <path d="M54.2142857,27.8545128 C52.6298155,27.8545128 51.3454872,26.5701845 51.3454872,24.9857143 C51.3454872,23.4012441 52.6298155,22.1169158 54.2142857,22.1169158 C55.7987559,22.1169158 57.0830842,23.4012441 57.0830842,24.9857143 C57.0830842,26.5701845 55.7987559,27.8545128 54.2142857,27.8545128 M54.2142857,16.0285714 C49.2671788,16.0285714 45.2571429,20.0386073 45.2571429,24.9857143 C45.2571429,29.9328212 49.2671788,33.9428571 54.2142857,33.9428571 C59.1613927,33.9428571 63.1714286,29.9328212 63.1714286,24.9857143 C63.1714286,20.0386073 59.1613927,16.0285714 54.2142857,16.0285714" id="Fill-1" fill="#7DD2D3"></path>
                    <mask id="mask-2" fill="white">
                        <use xlink:href="#path-1"></use>
                    </mask>
                    <g id="Clip-4"></g>
                    <polygon id="Fill-3" fill="#2E334E" mask="url(#mask-2)" points="24.5142857 5.65714286 28.2857143 5.65714286 28.2857143 0 24.5142857 0"></polygon>
                    <path d="M38.6571429,27.3428571 L35.2972956,27.3428571 L35.2972956,9.25916199 C35.2972956,6.593903 33.2074706,4.42685582 30.6371874,4.42685582 L27.3428571,4.42685582 L27.3428571,0.942857143 L30.6371874,0.942857143 C35.0587464,0.942857143 38.6571429,4.67247773 38.6571429,9.25916199 L38.6571429,27.3428571 Z" id="Fill-5" fill="#2E334E" mask="url(#mask-2)"></path>
                    <path d="M7.13127585,27.3428571 L3.77142857,27.3428571 L3.77142857,9.31996582 C3.77142857,4.70150121 7.36982501,0.942857143 11.7897041,0.942857143 L15.0857143,0.942857143 L15.0857143,4.45232873 L11.7897041,4.45232873 C9.22110086,4.45232873 7.13127585,6.63522005 7.13127585,9.31996582 L7.13127585,27.3428571 Z" id="Fill-6" fill="#2E334E" mask="url(#mask-2)"></path>
                    <polygon id="Fill-7" fill="#2E334E" mask="url(#mask-2)" points="12.2571429 5.65714286 16.0285714 5.65714286 16.0285714 0 12.2571429 0"></polygon>
                    <path d="M41.8470363,78.2571429 L33.5815352,78.2571429 C25.4622337,78.2571429 18.8571429,71.7584477 18.8571429,63.7720376 L22.3380867,63.7720376 C22.3380867,69.8718402 27.3802338,74.8331728 33.5815352,74.8331728 L41.8470363,74.8331728 C48.0483377,74.8331728 53.0904848,69.8718402 53.0904848,63.7720376 L53.0904848,34.8857143 L56.5714286,34.8857143 L56.5714286,63.7720376 C56.5714286,71.7584477 49.9663377,78.2571429 41.8470363,78.2571429" id="Fill-8" fill="#2E334E" mask="url(#mask-2)"></path>
                    <path d="M55.1571429,18.4849955 C51.0521891,18.4849955 47.7138333,21.8247892 47.7138333,25.9294212 C47.7138333,30.0323536 51.0521891,33.3721474 55.1571429,33.3721474 C59.2620966,33.3721474 62.6004524,30.0323536 62.6004524,25.9294212 C62.6004524,21.8247892 59.2620966,18.4849955 55.1571429,18.4849955 M55.1571429,36.7714286 C49.1773386,36.7714286 44.3142857,31.9070572 44.3142857,25.9294212 C44.3142857,19.9500857 49.1773386,15.0857143 55.1571429,15.0857143 C61.1369471,15.0857143 66,19.9500857 66,25.9294212 C66,31.9070572 61.1369471,36.7714286 55.1571429,36.7714286" id="Fill-9" fill="#2E334E" mask="url(#mask-2)"></path>
                    <path d="M54.6857143,23.277253 C54.004047,23.277253 53.4493229,23.8318748 53.4493229,24.515155 C53.4493229,25.1966966 54.004047,25.7513185 54.6857143,25.7513185 C55.3673816,25.7513185 55.9221057,25.1966966 55.9221057,24.515155 C55.9221057,23.8318748 55.3673816,23.277253 54.6857143,23.277253 M54.6857143,29.2285714 C52.0859883,29.2285714 49.9714286,27.1144016 49.9714286,24.515155 C49.9714286,21.9159084 52.0859883,19.8 54.6857143,19.8 C57.2854403,19.8 59.4,21.9159084 59.4,24.515155 C59.4,27.1144016 57.2854403,29.2285714 54.6857143,29.2285714" id="Fill-10" fill="#2E334E" mask="url(#mask-2)"></path>
                    <path d="M18.9916765,62.5828192 L23.3337808,62.5828192 L23.3337808,50.4706217 L24.7436463,50.1921215 C32.8969579,48.5843379 38.8510905,41.5381111 38.8967968,33.4376839 L38.9126183,30.0136687 L35.4811253,29.9948742 L35.4811253,33.5675368 C35.4811253,40.5642145 29.6236793,46.2572378 22.4249274,46.2572378 L20.0323752,46.2572378 C12.8336233,46.2572378 6.97617728,40.5642145 6.97617728,33.5675368 L6.97617728,29.8376839 L3.53237875,29.8188894 L3.51627389,33.241196 C3.46909302,41.3997152 9.3880668,48.5211201 17.5906007,50.1750356 L18.9916765,50.4586616 L18.9916765,62.5828192 Z M23.6379039,66 L18.6875534,66 C16.9155529,66 15.4758025,64.5972473 15.4758025,62.8749881 L15.4758025,53.1889891 C6.37496283,50.7132416 -0.053812677,42.5308021 0.000339530137,33.2241101 L0.016504802,29.5438064 C0.0200206759,28.6980541 0.361060449,27.9069767 0.979854263,27.3140959 C1.59689014,26.7195064 2.44069989,26.4700522 3.27923582,26.4 L7.26447894,26.4205031 C9.04526909,26.4324632 10.4920512,27.8471761 10.4920512,29.5762696 L10.4920512,33.5675368 C10.4920512,38.6796393 14.7726278,42.840057 20.0323752,42.840057 L22.4249274,42.840057 C27.6864328,42.840057 31.9652513,38.6796393 31.9652513,33.5675368 L31.9652513,29.7317513 C31.9652513,28.8842905 32.3062911,28.0897959 32.923327,27.4917893 C33.5403629,26.8971998 34.3806567,26.5315615 35.2314982,26.5759848 L39.2009199,26.5981965 C40.9887418,26.6101566 42.4372819,28.0317038 42.428532,29.7659231 L42.4126708,33.4547698 C42.3599327,42.6948268 35.8959984,50.7884196 26.8496548,53.2129093 L26.8496548,62.8749881 C26.8496548,64.5972473 25.4099044,66 23.6379039,66 L23.6379039,66 Z" id="Fill-11" fill="#2E334E" mask="url(#mask-2)"></path>
                </g>
            </g>
        </g>
    </g>
</svg>