<?xml version="1.0" encoding="UTF-8"?>
<svg width="75px" height="88px" viewBox="0 0 75 88" version="1.1" xmlns="http://www.w3.org/2000/svg" xmlns:xlink="http://www.w3.org/1999/xlink">
    <title>EARLY PROFESSIONALS</title>
    <defs>
        <polygon id="path-1" points="0 87.5 75 87.5 75 0 0 0"></polygon>
    </defs>
    <g id="Careers" stroke="none" stroke-width="1" fill="none" fill-rule="evenodd">
        <g id="D---Careers-Landing-Page-Copy-2" transform="translate(-398.000000, -748.000000)">
            <g id="EARLY-PROFESSIONALS" transform="translate(398.000000, 748.000000)">
                <path d="M28.4206408,12.5111889 C28.3374559,15.3409837 28.6107778,21.7814405 32.3914484,25.5618563 C36.172119,29.3439696 42.61301,29.6223658 45.4429956,29.5323963 C45.5261805,26.7009039 45.2528585,20.2621446 41.472188,16.4817288 C37.6915174,12.701313 31.2506264,12.4297071 28.4206408,12.5111889" id="Fill-1" fill="#7DD2D3"></path>
                <path d="M48.8738922,20.4449925 C51.7413614,20.5200892 58.1486359,20.2371667 61.9189563,16.4666127 C65.691023,12.6943122 65.9774207,6.27616209 65.898836,3.41899377 C63.038352,3.34215061 56.6240923,3.62681958 52.8520255,7.39737362 C49.0817051,11.1696741 48.7953075,17.5878242 48.8738922,20.4449925" id="Fill-3" fill="#7DD2D3"></path>
                <path d="M48.9386151,20.379956 C51.7842892,20.4544825 58.1428629,20.1737083 61.8845257,16.431785 C65.6279215,12.6881285 65.9121423,6.31871289 65.8341548,3.48323973 C62.995413,3.40698006 56.6299071,3.68948747 52.8865113,7.43141079 C49.1448485,11.1750673 48.8606277,17.5444829 48.9386151,20.379956 M49.7306206,23.8636364 C48.2297962,23.8636364 47.2315573,23.7527132 47.0998453,23.7371146 L45.7428643,23.5759294 L45.5816903,22.2188539 C45.5279656,21.7664955 44.342557,11.0745432 50.4359735,4.98070233 C56.52939,-1.11140535 67.2240638,0.0740858757 67.6729247,0.126081105 L69.0299057,0.287266315 L69.1910797,1.64434179 C69.2448044,2.09670029 70.430213,12.7886526 64.3350635,18.8824934 C60.0162939,23.2015638 53.3838977,23.8636364 49.7306206,23.8636364" id="Fill-5" fill="#2E334E"></path>
                <path d="M27.4429826,12.6703144 C27.3557927,15.6365987 27.6422738,22.3876983 31.6049651,26.3504549 C35.5676564,30.314991 42.3186447,30.606815 45.2848802,30.512506 C45.37207,27.5444422 45.085589,20.7951221 41.1228977,16.8323655 C37.1602064,12.8696088 30.4092181,12.5849024 27.4429826,12.6703144 M44.4112019,34.0909091 C40.574847,34.0909091 33.6192294,33.3969373 29.0889141,28.8665474 C22.6973617,22.476669 23.9411521,11.257459 23.9963131,10.7823553 L24.1617959,9.38907356 L25.5550547,9.22358799 C26.0337094,9.16842613 37.2491756,7.92461522 43.640728,14.316273 C50.0305011,20.7061514 48.7867107,31.9253613 48.7297703,32.3986857 L48.5660669,33.7937468 L47.1710287,33.957453 C47.034016,33.9752471 45.9841786,34.0909091 44.4112019,34.0909091" id="Fill-7" fill="#2E334E"></path>
                <mask id="mask-2" fill="white">
                    <use xlink:href="#path-1"></use>
                </mask>
                <g id="Clip-10"></g>
                <polygon id="Fill-9" fill="#2E334E" mask="url(#mask-2)" points="45.4545455 42.0454545 50 42.0454545 50 21.5909091 45.4545455 21.5909091"></polygon>
                <polygon id="Fill-11" fill="#2E334E" mask="url(#mask-2)" points="49.0976457 23.8636364 46.5909091 21.3572552 56.5841725 11.3636364 59.0909091 13.8700175"></polygon>
                <polygon id="Fill-12" fill="#2E334E" mask="url(#mask-2)" points="44.0217617 32.9545455 30.6818182 19.6146019 33.2509656 17.0454545 46.5909091 30.3853981"></polygon>
                <path d="M60.4793201,51.1363636 C58.1171289,45.6484319 52.6649921,42.104251 46.5900489,42.104251 C40.5151056,42.104251 35.0629688,45.6484319 32.7007776,51.1363636 L29.5454545,49.7561445 C32.451311,43.0006999 39.1421788,38.6363636 46.5900489,38.6363636 C54.0379189,38.6363636 60.7287867,43.0006999 63.6363636,49.7561445 L60.4793201,51.1363636 Z" id="Fill-13" fill="#2E334E" mask="url(#mask-2)"></path>
                <polygon id="Fill-14" fill="#2E334E" mask="url(#mask-2)" points="9.05999302 71.5909091 6.81818182 69.3498795 9.12182516 67.0454545 11.3636364 69.2864841"></polygon>
                <polygon id="Fill-15" fill="#2E334E" mask="url(#mask-2)" points="23.780762 87.5 21.1621188 84.8813568 26.5808954 79.4625802 8.03741977 60.9191046 2.61864322 66.3378812 0 63.719238 8.03741977 55.6818182 31.8181818 79.4625802"></polygon>
                <path d="M49.3806178,65.9090909 L37.5785102,65.9090909 L37.5785102,62.4206949 L49.3806178,62.4206949 C50.8179516,62.4206949 52.0228277,61.3166176 52.1239734,59.9090498 C52.1292969,59.8427703 52.1310713,59.778235 52.1310713,59.7136997 C52.1328458,59.0421834 51.8826433,58.4055512 51.4195024,57.9032222 C50.9119993,57.3520556 50.2146263,57.0363558 49.4569207,57.0136812 L39.3583198,56.7328653 C37.5572164,56.6822836 36.1464998,55.3479721 35.8821014,55.0811098 C34.0987428,53.3281909 31.121155,52.2607417 27.9022371,52.3496958 C24.4650573,52.4002775 21.2124242,53.6892398 18.9765716,55.8869293 L11.6000325,63.1375603 L9.09090909,60.6712644 L16.4674481,53.4206333 C22.8733432,47.1240786 33.5220348,47.8287346 38.4071952,52.6305117 C38.7372497,52.9636535 39.2536251,53.240981 39.4576911,53.2462135 L49.5598409,53.5270294 C51.2935139,53.575867 52.8887769,54.2997091 54.0510654,55.5625085 C55.1122081,56.7154233 55.6818182,58.1718287 55.6818182,59.7084671 C55.6818182,59.8567239 55.6747202,60.0049807 55.6658478,60.1549818 C55.4316156,63.381748 52.6705151,65.9090909 49.3806178,65.9090909" id="Fill-16" fill="#2E334E" mask="url(#mask-2)"></path>
                <path d="M22.9564033,76.1363636 L20.4545455,73.6481299 L23.20942,70.9082572 L47.6087264,70.9082572 C49.0135886,70.9082572 50.3795251,70.4120183 51.4552886,69.5075259 L57.6214657,64.3286915 C59.2722672,62.9402782 60.6435118,61.6240131 62.094377,60.2320803 C63.0551329,59.3099909 64.0318129,58.372064 65.1181924,57.3883846 L71.3162178,51.794258 C71.4329948,51.6886752 71.4613044,51.5637356 71.4613044,51.4651917 C71.4613044,51.4546334 71.4613044,51.4423154 71.459535,51.4299974 C71.4524576,51.3314535 71.4117626,51.1906765 71.2613681,51.0903729 C68.8161294,49.4450415 68.1101596,49.9184042 64.7094731,52.1761156 C64.2175944,52.5034222 63.6885594,52.8553647 63.111752,53.2249044 C58.1540394,56.4082247 51.9719381,59.058352 51.711844,59.1692139 L50.3158286,55.9366217 C50.3777558,55.910226 56.4908525,53.2882541 61.1920096,50.2685871 C61.7511235,49.9096057 62.2660038,49.5664617 62.7437277,49.2497134 C66.2788846,46.9022567 68.8302842,45.2058937 73.2430376,48.174529 C74.2639513,48.8608169 74.9009165,49.9553582 74.9893839,51.1765988 C74.9964613,51.2751427 75,51.3719269 75,51.4687111 C75,52.584369 74.5346615,53.6384369 73.69776,54.3986328 L67.4997346,59.9909997 C66.443434,60.9500431 65.4897555,61.8650937 64.5502318,62.7643069 C63.0569022,64.1984727 61.6449627,65.5534515 59.9056938,67.0157728 L53.7377473,72.1963669 C52.0250186,73.6358119 49.8487208,74.4276826 47.6087264,74.4276826 L24.67444,74.4276826 L22.9564033,76.1363636 Z" id="Fill-17" fill="#2E334E" mask="url(#mask-2)"></path>
            </g>
        </g>
    </g>
</svg>