<?xml version="1.0" encoding="UTF-8"?>
<svg width="28px" height="22px" viewBox="0 0 28 22" version="1.1" xmlns="http://www.w3.org/2000/svg" xmlns:xlink="http://www.w3.org/1999/xlink">
    <title>955E7CA0-BB0A-4647-88D3-9C5ED5E1643D@3x</title>
    <g id="MVP" stroke="none" stroke-width="1" fill="none" fill-rule="evenodd">
        <g id="D---industry-Detail-Page---Dairy-Producer" transform="translate(-313.000000, -725.000000)" fill="currentColor">
            <g id="Left-Rail" transform="translate(165.000000, 689.000000)">
                <g id="Share-popout" transform="translate(0.000000, 25.000000)">
                    <g id="Email" transform="translate(148.000000, 11.000000)">
                        <path d="M13.99984,13.60024 C13.38544,13.60024 12.77024,13.39784 12.26144,12.99464 L-0.00016,3.28264 L-0.00016,19.20024 C-0.00016,20.52504 1.07424,21.60024 2.39984,21.60024 L25.59984,21.60024 C26.92544,21.60024 27.99984,20.52504 27.99984,19.20024 L27.99984,3.28264 L15.73824,12.99464 C15.22944,13.39864 14.61504,13.60024 13.99984,13.60024" id="Fill-4"></path>
                        <path d="M27.028,0.48072 C26.628,0.18232 26.1376,-8e-05 25.6,-8e-05 L2.4,-8e-05 C1.8632,-8e-05 1.372,0.18232 0.9728,0.48072 L14,10.79992 L27.028,0.48072 Z" id="Fill-1"></path>
                    </g>
                </g>
            </g>
        </g>
    </g>
</svg>