<?xml version="1.0" encoding="UTF-8"?>
<svg width="81px" height="84px" viewBox="0 0 81 84" version="1.1" xmlns="http://www.w3.org/2000/svg" xmlns:xlink="http://www.w3.org/1999/xlink">
    <title>EMPLOYEE ASSISTANCE</title>
    <defs>
        <polygon id="path-1" points="0 0 28.5602511 0 28.5602511 28.6146418 0 28.6146418"></polygon>
        <polygon id="path-3" points="0 0 28.560458 0 28.560458 28.6146418 0 28.6146418"></polygon>
        <polygon id="path-5" points="0 -1.10478782e-14 28.5602511 -1.10478782e-14 28.5602511 28.6133979 0 28.6133979"></polygon>
    </defs>
    <g id="Careers" stroke="none" stroke-width="1" fill="none" fill-rule="evenodd">
        <g id="D---CLA-Benefits-Copy-3" transform="translate(-982.000000, -4268.000000)">
            <g id="Group-51" transform="translate(223.000000, 4217.062500)">
                <g id="EMPLOYEE-ASSISTANCE" transform="translate(759.000000, 51.000000)">
                    <polygon id="Fill-1" fill="#7DD2D3" points="3 63.2509674 20.0066457 81 25 75.708771 8.0319365 58"></polygon>
                    <polygon id="Fill-2" fill="#7DD2D3" points="78 63.0677283 61.0978119 80 56 74.8931148 72.8631008 58"></polygon>
                    <polygon id="Fill-3" fill="#7DD2D3" points="74.0086764 24 57 6.25096739 62.0319365 1 79 18.7066519"></polygon>
                    <polygon id="Fill-4" fill="#7DD2D3" points="26 6.99132361 8.25096739 24 3 18.9680635 20.7066519 2"></polygon>
                    <polygon id="Fill-5" fill="#2E334E" points="61.3186421 81 54 73.6813579 71.6792829 56 79 63.3186421 76.063828 66.2548141 71.6792829 61.8681939 59.8681939 73.6813579 64.252739 78.0659031"></polygon>
                    <g id="Group-29">
                        <path d="M42.3841998,60.389984 C41.8544593,60.389984 41.3247189,60.1868169 40.9212057,59.7825557 L25.8132573,44.6466031 C25.0062309,43.8380807 25.0062309,42.5257868 25.8132573,41.7151913 C26.622353,40.906669 27.932219,40.906669 28.7392454,41.7151913 L43.8471938,56.851144 C44.6562895,57.6617394 44.6562895,58.9719602 43.8471938,59.7825557 C43.4436806,60.1868169 42.9139402,60.389984 42.3841998,60.389984" id="Fill-6" fill="#2E334E"></path>
                        <path d="M57.8979376,73.4886677 L55.7686294,71.3554126 C53.3703125,71.7845514 47.9197802,72.59722 44.9751684,71.7389425 C44.1453797,71.4984589 43.3259375,71.268341 42.5292576,71.0444425 C37.1366657,69.5331277 33.2401766,68.4385128 32.2055273,65.6190504 C31.8806475,64.7338221 31.731658,63.3240908 32.8739107,61.6199745 C33.513324,60.6725522 34.7983584,60.4196298 35.7481664,61.0581552 C36.6959051,61.6987536 36.9462902,62.9861699 36.3089463,63.9377385 C36.1289173,64.2030997 36.1082243,64.3274878 36.1082243,64.3295609 C36.6007174,65.0758892 40.84071,66.2658682 43.6466788,67.0536592 C44.4537052,67.2796308 45.2855632,67.5118219 46.129837,67.7585248 C48.1225714,68.3369293 53.2689168,67.6548681 56.0417768,67.0826831 L57.1322972,66.8587846 L57.8979376,67.6258442 L65.3556894,60.1542687 C65.1715219,59.9573209 64.9832157,59.7500075 64.8031867,59.5364747 C64.3955349,59.0492881 63.9754673,58.2034494 62.8249373,55.8234914 C61.0122319,52.0814842 57.9786402,45.8185458 55.5616996,43.395052 L43.7460051,31.5574558 C42.9389787,30.7489335 42.9389787,29.4366395 43.7460051,28.6260441 C44.5551008,27.8175217 45.8649668,27.8175217 46.6719932,28.6260441 L58.4876877,40.4636402 C61.3991907,43.38054 64.4969305,49.7803052 66.5476054,54.0136452 C67.1394247,55.2388675 67.8119468,56.6257943 68.0168073,56.9284719 C68.7038144,57.7349211 69.6432759,58.5413703 69.6515531,58.5496628 L71.3545858,60.005003 L57.8979376,73.4886677 Z" id="Fill-8" fill="#2E334E"></path>
                        <path d="M49.1923988,46.4610101 C48.6626584,46.4610101 48.1329179,46.2578429 47.7294047,45.8535818 L35.0094268,33.1120991 C34.2024004,32.3015036 34.2024004,30.9892097 35.0094268,30.1786142 C35.8185225,29.3700919 37.1283885,29.3700919 37.9374842,30.1786142 L50.6553928,42.92217 C51.4644885,43.7327655 51.4644885,45.0429863 50.6553928,45.8535818 C50.2518796,46.2578429 49.7221392,46.4610101 49.1923988,46.4610101" id="Fill-10" fill="#2E334E"></path>
                        <path d="M43.3925689,51.0324783 C42.8628285,51.0324783 42.3330881,50.8293111 41.9295749,50.42505 L28.9799048,37.4513763 C28.1728784,36.6428539 28.1728784,35.33056 28.9799048,34.5199645 C29.7890005,33.7114422 31.0988665,33.7114422 31.9058929,34.5199645 L44.855563,47.4936382 C45.6646587,48.3042337 45.6646587,49.6144545 44.855563,50.42505 C44.4520498,50.8293111 43.9223093,51.0324783 43.3925689,51.0324783" id="Fill-12" fill="#2E334E"></path>
                        <g id="Group-16">
                            <mask id="mask-2" fill="white">
                                <use xlink:href="#path-1"></use>
                            </mask>
                            <g id="Clip-15"></g>
                            <polygon id="Fill-14" fill="#2E334E" mask="url(#mask-2)" points="7.33752558 28.6146418 -0.000206929851 21.2612349 2.92578116 18.3298232 7.33752558 22.7518184 22.7082749 7.35050455 18.2965305 2.93058248 21.2225186 -0.000829253672 28.5602511 7.35050455"></polygon>
                        </g>
                        <path d="M17.079783,38.3749575 C13.849608,35.1387951 12.3307429,31.475567 11.4223208,29.2863373 C11.2009059,28.7514687 10.9236199,28.0859926 10.8056699,27.9056299 C10.1952268,27.1883255 8.57703539,25.6500599 8.005909,25.1214107 L6.43117283,23.657778 L23.415975,6.64149266 L26.8365254,10.0704566 C29.0920608,10.2238685 35.1219966,10.9867819 38.8508726,14.7225697 L41.2657439,17.1336247 C42.2755616,18.1432411 43.0184397,18.8854231 43.5481802,19.4285843 L40.5808061,22.3206065 C40.0634815,21.7857378 39.3350884,21.0601409 38.3438944,20.073329 L35.9228152,17.6539814 C33.1230543,14.8490309 27.7532247,14.1918473 25.9198262,14.1752623 L25.0734831,14.1669697 L23.415975,12.5043161 L12.3741981,23.5665601 C12.9639482,24.1511839 13.5909457,24.7917824 14.0027361,25.2789689 C14.4724668,25.8345689 14.7807923,26.5767509 15.2443152,27.6962434 C16.0865197,29.7237686 17.357069,32.7899341 20.005771,35.4435458 L17.079783,38.3749575 Z" id="Fill-17" fill="#2E334E"></path>
                        <g id="Group-21" transform="translate(52.439542, 0.000000)">
                            <mask id="mask-4" fill="white">
                                <use xlink:href="#path-3"></use>
                            </mask>
                            <g id="Clip-20"></g>
                            <polygon id="Fill-19" fill="#2E334E" mask="url(#mask-4)" points="21.2227255 28.6146418 0 7.35050455 7.33773251 -0.000829253672 10.2637206 2.93058248 5.85197618 7.35050455 21.2227255 22.7518184 25.6344699 18.3298232 28.560458 21.2612349"></polygon>
                        </g>
                        <path d="M64.8958913,41.5534869 L61.9699032,38.6220751 L64.4861702,36.0990708 C65.3759685,35.2076231 65.684294,30.9162354 65.4049387,27.6220252 L65.3221668,26.6621641 L68.519233,23.4591717 L57.4671096,12.3886352 C56.3683121,13.5184934 54.9611892,14.9365171 54.3134987,15.4879708 C53.5954521,16.0953991 52.5856345,16.3980767 51.3047387,16.7816066 C49.7651806,17.2439155 47.8448716,17.8202468 46.8040144,18.8630333 L43.8780263,15.9316215 C45.6576231,14.146653 48.235969,13.373374 50.1169614,12.8094815 C50.7005035,12.6353382 51.4951142,12.3969278 51.7165291,12.2642472 C52.3331801,11.7335248 54.592854,9.41368768 55.9461752,7.99773704 L57.4071,6.46361774 L74.3712092,23.4591717 L69.5952682,28.2439654 C69.7546042,31.0095264 69.7566735,36.6857678 67.4121583,39.0304826 L64.8958913,41.5534869 Z" id="Fill-22" fill="#2E334E"></path>
                        <g id="Group-26" transform="translate(0.000000, 54.386602)">
                            <mask id="mask-6" fill="white">
                                <use xlink:href="#path-5"></use>
                            </mask>
                            <g id="Clip-25"></g>
                            <polygon id="Fill-24" fill="#2E334E" mask="url(#mask-6)" points="21.2225186 28.6133979 18.2965305 25.6819862 22.7082749 21.2620641 7.33752558 5.86282346 2.92578116 10.2827455 -0.000206929851 7.3513338 7.33752558 -1.10478782e-14 28.5602511 21.2620641"></polygon>
                        </g>
                        <path d="M23.5827604,76.525602 L6.62899777,59.5404136 L9.98953855,56.1736437 C9.95229117,53.3085723 10.1716368,47.2342891 12.5058055,44.8937207 C12.5016669,44.8937207 14.61649,42.4785193 16.9816982,40.587821 L19.5641827,43.8281297 C17.4948842,45.4824908 15.545605,47.7028175 15.5269814,47.7235488 C14.5130251,48.7476771 14.0184627,53.36662 14.14469,56.9365571 L14.1777987,57.8383705 L12.4809739,59.5404136 L23.5393052,70.6171695 C25.056101,69.0602458 27.2702504,66.8150415 27.9986435,66.2013937 L30.6701078,69.3670696 C29.9768928,69.9537666 26.8522521,73.1401738 25.0457545,75.012214 L23.5827604,76.525602 Z" id="Fill-27" fill="#2E334E"></path>
                    </g>
                </g>
            </g>
        </g>
    </g>
</svg>