<?xml version="1.0" encoding="UTF-8"?>
<svg width="60px" height="83px" viewBox="0 0 60 83" version="1.1" xmlns="http://www.w3.org/2000/svg" xmlns:xlink="http://www.w3.org/1999/xlink">
    <title>CPA EXAM REVIEW</title>
    <g id="Careers" stroke="none" stroke-width="1" fill="none" fill-rule="evenodd">
        <g id="D--CPA-Exam-V2-Copy" transform="translate(-394.000000, -1518.000000)">
            <g id="CPA-EXAM-REVIEW" transform="translate(394.000000, 1518.000000)">
                <polygon id="Fill-1" fill="#7DD2D3" points="9.31034483 74.4827586 24.8275862 74.4827586 24.8275862 61.0344828 9.31034483 61.0344828"></polygon>
                <polygon id="Fill-2" fill="#7DD2D3" points="9.31034483 26.8965517 15.5172414 26.8965517 15.5172414 12.4137931 9.31034483 12.4137931"></polygon>
                <polygon id="Fill-3" fill="#7DD2D3" points="36.2068966 47.583725 29.2175442 50.6896552 23.7931034 38.278344 30.7824558 35.1724138"></polygon>
                <polygon id="Fill-4" fill="#7DD2D3" points="38.2758621 74.4827586 51.7241379 74.4827586 51.7241379 61.0344828 38.2758621 61.0344828"></polygon>
                <path d="M0,76.5517241 L60,76.5517241 L60,0 L0,0 L0,76.5517241 Z M3.41851124,73.1165237 L56.5814888,73.1165237 L56.5814888,3.43520044 L3.41851124,3.43520044 L3.41851124,73.1165237 Z" id="Fill-5" fill="#2E334E"></path>
                <path d="M3.10344828,73.4482759 L5.77795078,82.7586207 L12.8188136,82.7586207 L15.5172414,73.4482759 L3.10344828,73.4482759 Z M7.62190491,76.8124474 L10.9868221,76.8124474 L10.2400122,79.3944491 L8.36358803,79.3944491 L7.62190491,76.8124474 Z" id="Fill-6" fill="#2E334E"></path>
                <path d="M45.5172414,73.4482759 L48.1917439,82.7586207 L55.2326067,82.7586207 L57.9310345,73.4482759 L45.5172414,73.4482759 Z M50.035698,76.8124474 L53.4006152,76.8124474 L52.6538053,79.3944491 L50.7773811,79.3944491 L50.035698,76.8124474 Z" id="Fill-7" fill="#2E334E"></path>
                <polygon id="Fill-8" fill="#2E334E" points="2.06896552 27.9310345 58.9655172 27.9310345 58.9655172 24.8275862 2.06896552 24.8275862"></polygon>
                <polygon id="Fill-9" fill="#2E334E" points="2.06896552 51.7241379 58.9655172 51.7241379 58.9655172 48.6206897 2.06896552 48.6206897"></polygon>
                <path d="M10.681056,24.4712259 L14.1465302,24.4712259 L14.1465302,13.8046361 L10.681056,13.8046361 L10.681056,24.4712259 Z M7.24137931,27.9310345 L17.5862069,27.9310345 L17.5862069,10.3448276 L7.24137931,10.3448276 L7.24137931,27.9310345 Z" id="Fill-10" fill="#2E334E"></path>
                <path d="M16.8891003,24.4712259 L20.3557181,24.4712259 L20.3557181,13.8046361 L16.8891003,13.8046361 L16.8891003,24.4712259 Z M13.4482759,27.9310345 L23.7931034,27.9310345 L23.7931034,10.3448276 L13.4482759,10.3448276 L13.4482759,27.9310345 Z" id="Fill-11" fill="#2E334E"></path>
                <path d="M24.1287601,24.4712259 L27.5953778,24.4712259 L27.5953778,13.8046361 L24.1287601,13.8046361 L24.1287601,24.4712259 Z M20.6896552,27.9310345 L31.0344828,27.9310345 L31.0344828,10.3448276 L20.6896552,10.3448276 L20.6896552,27.9310345 Z" id="Fill-12" fill="#2E334E"></path>
                <path d="M10.681056,49.2991524 L14.1465302,49.2991524 L14.1465302,38.6318821 L10.681056,38.6318821 L10.681056,49.2991524 Z M7.24137931,52.7586207 L17.5862069,52.7586207 L17.5862069,35.1724138 L7.24137931,35.1724138 L7.24137931,52.7586207 Z" id="Fill-13" fill="#2E334E"></path>
                <path d="M16.8891003,49.2991524 L20.3557181,49.2991524 L20.3557181,38.6318821 L16.8891003,38.6318821 L16.8891003,49.2991524 Z M13.4482759,52.7586207 L23.7931034,52.7586207 L23.7931034,35.1724138 L13.4482759,35.1724138 L13.4482759,52.7586207 Z" id="Fill-14" fill="#2E334E"></path>
                <path d="M10.7025773,66.9057227 L21.3698477,66.9057227 L21.3698477,63.4391049 L10.7025773,63.4391049 L10.7025773,66.9057227 Z M7.24137931,70.3448276 L24.8275862,70.3448276 L24.8275862,60 L7.24137931,60 L7.24137931,70.3448276 Z" id="Fill-15" fill="#2E334E"></path>
                <g id="Group-25" transform="translate(7.241379, 8.275862)" fill="#2E334E">
                    <path d="M3.4690904,64.8253294 L14.1660307,64.8253294 L14.1660307,61.3489178 L3.4690904,61.3489178 L3.4690904,64.8253294 Z M15.8988413,68.2758621 L1.7345452,68.2758621 C0.775341705,68.2758621 0,67.504668 0,66.5505957 L0,59.6236514 C0,58.6695792 0.775341705,57.8983851 1.7345452,57.8983851 L15.8988413,57.8983851 C16.8563103,57.8983851 17.6333865,58.6695792 17.6333865,59.6236514 L17.6333865,66.5505957 C17.6333865,67.504668 16.8563103,68.2758621 15.8988413,68.2758621 L15.8988413,68.2758621 Z" id="Fill-16"></path>
                    <path d="M18.5752446,29.9777101 L22.6410185,39.8186292 L25.8742108,38.4953499 L21.8084368,28.6544308 L18.5752446,29.9777101 Z M22.4189967,43.393381 C21.2152224,43.393381 20.0721571,42.6825713 19.588219,41.5111155 L14.0498161,28.0971698 L23.6990911,24.153211 L30.4013738,40.3758902 L23.5759384,43.1673711 C23.1978075,43.3209198 22.8040658,43.393381 22.4189967,43.393381 L22.4189967,43.393381 Z" id="Fill-18"></path>
                    <path d="M19.4248248,54.2240854 L23.4888642,64.0650045 L26.7220565,62.7434505 L22.6580171,52.9025314 L19.4248248,54.2240854 Z M23.3622424,67.5879984 C22.0908208,67.5879984 20.8835773,66.8392328 20.3718865,65.5987663 L14.8976618,52.3435451 L24.5486713,48.4013116 L31.2492195,64.6239908 L24.5850968,67.3464611 C24.1844168,67.5103614 23.7698605,67.5879984 23.3622424,67.5879984 L23.3622424,67.5879984 Z" id="Fill-19"></path>
                    <path d="M32.6215916,40.3438003 L36.1167002,40.3438003 L36.1167002,29.7040828 L32.6215916,29.7040828 L32.6215916,40.3438003 Z M29.1525012,43.7943329 L39.5857906,43.7943329 L39.5857906,26.2535502 L29.1525012,26.2535502 L29.1525012,43.7943329 Z" id="Fill-20"></path>
                    <path d="M39.5857906,40.3438003 L43.0826337,40.3438003 L43.0826337,29.7040828 L39.5857906,29.7040828 L39.5857906,40.3438003 Z M36.1167002,43.7943329 L46.5517241,43.7943329 L46.5517241,26.2535502 L36.1167002,26.2535502 L36.1167002,43.7943329 Z" id="Fill-21"></path>
                    <path d="M32.6215916,64.8253294 L36.1167002,64.8253294 L36.1167002,54.1873373 L32.6215916,54.1873373 L32.6215916,64.8253294 Z M29.1525012,68.2758621 L39.5857906,68.2758621 L39.5857906,50.7368046 L29.1525012,50.7368046 L29.1525012,68.2758621 Z" id="Fill-22"></path>
                    <path d="M39.5857906,64.8253294 L43.0826337,64.8253294 L43.0826337,54.1873373 L39.5857906,54.1873373 L39.5857906,64.8253294 Z M36.1167002,68.2758621 L46.5517241,68.2758621 L46.5517241,50.7368046 L36.1167002,50.7368046 L36.1167002,68.2758621 Z" id="Fill-23"></path>
                    <path d="M26.7864081,5.22755696 L29.7351349,15.4549357 L33.094949,14.4956877 L30.1462222,4.26830889 L26.7864081,5.22755696 Z M29.4576077,18.9986328 C28.9424478,18.9986328 28.4359606,18.8692378 27.972837,18.6156236 C27.2564699,18.2205377 26.7361063,17.5718375 26.5106154,16.7885666 L22.4951433,2.86221683 L32.5260182,0 L37.3862138,16.8610278 L30.3058003,18.8795894 C30.0265385,18.9606769 29.7403386,18.9986328 29.4576077,18.9986328 L29.4576077,18.9986328 Z" id="Fill-24"></path>
                </g>
            </g>
        </g>
    </g>
</svg>