<?xml version="1.0" encoding="UTF-8"?>
<svg width="28px" height="28px" viewBox="0 0 28 28" version="1.1" xmlns="http://www.w3.org/2000/svg" xmlns:xlink="http://www.w3.org/1999/xlink">
    <title>26B6BA9E-0A1C-42BF-855C-D7BB1B624319@3x</title>
    <g id="MVP" stroke="none" stroke-width="1" fill="none" fill-rule="evenodd">
        <g id="D---industry-Detail-Page---Dairy-Producer" transform="translate(-269.000000, -722.000000)" fill="currentColor" fill-rule="nonzero">
            <g id="Left-Rail" transform="translate(165.000000, 689.000000)">
                <g id="Share-popout" transform="translate(0.000000, 25.000000)">
                    <g id="facebook" transform="translate(104.000000, 8.000000)">
                        <path d="M26.4543945,-3.16721085e-08 L1.54423828,-3.16721085e-08 C0.691284169,0.0005126975 -3.16722826e-08,0.692309581 -3.16722826e-08,1.54560547 L-3.16722826e-08,26.4557617 C0.0005126975,27.3087158 0.692309581,28 1.54560547,28 L14.9570313,28 L14.9570313,17.171875 L11.3203125,17.171875 L11.3203125,12.9335938 L14.9570313,12.9335938 L14.9570313,9.81452636 C14.9570313,6.19746094 17.16521,4.22871094 20.3917725,4.22871094 C21.937207,4.22871094 23.2652588,4.34389646 23.6523438,4.39533693 L23.6523438,8.17578125 L21.427417,8.17578125 C19.6719482,8.17578125 19.3320313,9.00993651 19.3320313,10.2342529 L19.3320313,12.9335938 L23.5292969,12.9335938 L22.9824219,17.171875 L19.3320313,17.171875 L19.3320313,28 L26.4543945,28 C27.3078614,28 28,27.3085449 28,26.4550781 C28,26.4549072 28,26.4547364 28,26.4543945 L28,1.54423828 C27.9996582,0.691284169 27.3076904,-3.16721085e-08 26.4543945,-3.16721085e-08 Z" id="Path"></path>
                    </g>
                </g>
            </g>
        </g>
    </g>
</svg>