<?xml version="1.0" encoding="UTF-8"?>
<svg width="35px" height="36px" viewBox="0 0 35 36" version="1.1" xmlns="http://www.w3.org/2000/svg" xmlns:xlink="http://www.w3.org/1999/xlink">
    <title>Fax</title>
    <defs>
        <polygon id="path-1" points="2.84431637e-15 0 19.5859734 0 19.5859734 25.9934843 2.84431637e-15 25.9934843"></polygon>
        <polygon id="path-3" points="0 0 3.04381591 0 3.04381591 25.8479748 0 25.8479748"></polygon>
        <polygon id="path-5" points="-1.42215819e-15 0 11.1622074 0 11.1622074 32.2319521 -1.42215819e-15 32.2319521"></polygon>
    </defs>
    <g id="Locations" stroke="none" stroke-width="1" fill="none" fill-rule="evenodd">
        <g id="D---Location-Detail-Page" transform="translate(-647.000000, -951.000000)">
            <g id="CB1---Location-Information" transform="translate(0.000000, 619.000000)">
                <g id="Location-Information" transform="translate(641.000000, 157.000000)">
                    <g id="phone-info" transform="translate(6.000000, 131.000000)">
                        <g id="fax" transform="translate(0.000000, 44.000000)">
                            <g id="Group-46" transform="translate(0.000000, 0.000000)">
                                <polygon id="Fill-1" fill="#2E334E" points="18.9869782 29 15 28.9559902 15.0130218 27 19 27.0440098"></polygon>
                                <g id="Group-45">
                                    <g id="Group-4" transform="translate(15.414027, 3.250457)">
                                        <mask id="mask-2" fill="white">
                                            <use xlink:href="#path-1"></use>
                                        </mask>
                                        <g id="Clip-3"></g>
                                        <path d="M17.883089,25.9934843 L13.48297,25.9558497 L13.4965803,24.3568446 L17.7886177,24.3936217 L17.9831644,1.75330905 L2.84431637e-15,1.59900506 L0.0144108699,0 L18.1048562,0.155103491 C18.9286776,0.162299014 19.5923783,0.837079151 19.5860194,1.65896775 L19.3890249,24.5151461 C19.3818194,25.3370347 18.7061098,26.0006218 17.883089,25.9934843" id="Fill-2" fill="#2E334E" mask="url(#mask-2)"></path>
                                    </g>
                                    <g id="Group-7" transform="translate(0.000000, 3.132713)">
                                        <mask id="mask-4" fill="white">
                                            <use xlink:href="#path-3"></use>
                                        </mask>
                                        <g id="Clip-6"></g>
                                        <path d="M2.5898735,25.8479748 L1.48023652,25.8383808 C0.657215728,25.8311853 -0.00728549535,25.1564051 -8.00603884e-05,24.3345165 L0.196868495,1.47833815 C0.203273326,0.656449548 0.878983004,-0.00713755339 1.7028044,0 L3.04381591,0.0112510048 L3.03020564,1.61025607 L1.79647506,1.59986254 L1.60192831,24.2401752 L2.60348377,24.2489698 L2.5898735,25.8479748 Z" id="Fill-5" fill="#2E334E" mask="url(#mask-4)"></path>
                                    </g>
                                    <g id="Group-10" transform="translate(3.485822, 0.000000)">
                                        <mask id="mask-6" fill="white">
                                            <use xlink:href="#path-5"></use>
                                        </mask>
                                        <g id="Clip-9"></g>
                                        <path d="M2.63887802,1.5988916 C2.20014709,1.5949276 1.84067595,1.94910722 1.83667293,2.38723461 L1.60126175,29.7797904 C1.59729237,30.2179177 1.95115928,30.5768944 2.38989021,30.5808919 L8.52331657,30.6328932 C8.9620475,30.6368571 9.32231924,30.2842765 9.32552166,29.8461491 L9.56093283,2.45279382 C9.56490222,2.01546593 9.2110353,1.65489029 8.77230437,1.65169228 L2.63887802,1.5988916 Z M8.5097063,32.2319521 L2.37627994,32.179897 C1.05448293,32.1679044 -0.0111208374,31.085378 1.33226763e-14,29.7661988 L0.235465159,2.37284356 C0.246673613,1.05286488 1.33069127,-0.0112729857 2.65248828,-0.000167446695 L8.78671524,0.0526872168 C10.1077117,0.0638802523 11.174116,1.14640668 11.1622074,2.46718486 L10.9267294,29.8597406 C10.915521,31.1789198 9.83150331,32.2430577 8.5097063,32.2319521 L8.5097063,32.2319521 Z" id="Fill-8" fill="#2E334E" mask="url(#mask-6)"></path>
                                    </g>
                                    <path d="M18.4017202,12.0941547 L30.16099,12.1948921 L30.195416,8.14701075 L18.4361461,8.04627343 L18.4017202,12.0941547 Z M31.7485875,13.8074887 L16.7869021,13.6795683 L16.8493492,6.43367682 L31.810234,6.56159723 L31.7485875,13.8074887 Z" id="Fill-11" fill="#2E334E"></path>
                                    <polygon id="Fill-13" fill="#2E334E" points="20.278816 16.889491 18.6776083 16.8758994 18.6912185 15.2904859 20.2924263 15.3040775"></polygon>
                                    <polygon id="Fill-15" fill="#2E334E" points="23.4533705 16.9166741 21.8521628 16.9030825 21.865773 15.317669 23.4669808 15.3312605"></polygon>
                                    <polygon id="Fill-17" fill="#2E334E" points="26.6283254 16.9439371 25.0271176 16.9303456 25.0407279 15.344932 26.6419356 15.3585236"></polygon>
                                    <polygon id="Fill-19" fill="#2E334E" points="29.8027998 16.9711202 28.2015921 16.9575286 28.2152023 15.3721151 29.8164101 15.3857067"></polygon>
                                    <polygon id="Fill-21" fill="#2E334E" points="20.2515955 20.0600782 18.6503877 20.0464866 18.663998 18.4610731 20.2652058 18.4746647"></polygon>
                                    <polygon id="Fill-23" fill="#2E334E" points="23.4260699 20.0872613 21.8248622 20.0736697 21.8384724 18.4882562 23.4396802 18.5018477"></polygon>
                                    <polygon id="Fill-25" fill="#2E334E" points="26.6010248 20.1145243 24.999817 20.1009328 25.0134273 18.5155192 26.614635 18.5291108"></polygon>
                                    <polygon id="Fill-27" fill="#2E334E" points="29.7755793 20.1417074 28.1743715 20.1281158 28.1879818 18.5427023 29.7891896 18.5562939"></polygon>
                                    <polygon id="Fill-29" fill="#2E334E" points="20.2242949 23.2298659 18.6230871 23.2162743 18.6366974 21.6308608 20.2379052 21.6452518"></polygon>
                                    <polygon id="Fill-31" fill="#2E334E" points="23.3988494 23.2570489 21.7976416 23.2434574 21.8112519 21.6580439 23.4124597 21.6724349"></polygon>
                                    <polygon id="Fill-33" fill="#2E334E" points="26.5738042 23.284312 24.9725965 23.2707204 24.9862067 21.6853069 26.5874145 21.699698"></polygon>
                                    <polygon id="Fill-35" fill="#2E334E" points="29.7483588 23.3114951 28.147151 23.2979035 28.1607613 21.71249 29.761969 21.7268811"></polygon>
                                    <polygon id="Fill-37" fill="#2E334E" points="31.639225 26.5055077 16.6775396 26.3775873 16.6911499 24.7785822 31.6528353 24.9065026"></polygon>
                                    <path d="M20.129023,34.3194457 L28.0517991,34.3874034 L28.1198504,26.4755263 L20.1970744,26.4075686 L20.129023,34.3194457 Z M29.6393966,36 L18.514205,35.9048592 L18.6094769,24.794972 L29.7346684,24.8901128 L29.6393966,36 Z" id="Fill-39" fill="#2E334E"></path>
                                    <polygon id="Fill-41" fill="#2E334E" points="26.4849372 32.8021498 21.7229453 32.7613751 21.7365556 31.1623701 26.4985475 31.2031447"></polygon>
                                    <polygon id="Fill-43" fill="#2E334E" points="26.5121577 29.6323621 21.7501658 29.5915875 21.7637761 27.9925824 26.525768 28.033357"></polygon>
                                </g>
                            </g>
                        </g>
                    </g>
                </g>
            </g>
        </g>
    </g>
</svg>