<svg width="35" height="45" viewBox="0 0 35 45" fill="none" xmlns="http://www.w3.org/2000/svg">
    <path d="M24.1916 0.250421L24.1922 0.250419C24.5308 0.249518 24.8696 0.388327 25.109 0.625152C25.1091 0.625234 25.1092 0.625316 25.1093 0.625397L34.3733 9.82925C34.3734 9.82935 34.3735 9.82944 34.3735 9.82954C34.6115 10.067 34.75 10.4029 34.75 10.7387V43.4658C34.75 44.1295 34.1278 44.75 33.4558 44.75H1.5442C0.872184 44.75 0.25 44.1295 0.25 43.4658V1.53526C0.252421 1.27593 0.387844 0.951727 0.631809 0.688081C0.873133 0.427289 1.19554 0.252712 1.54512 0.25L24.1916 0.250421ZM3.0884 2.81835H2.8384L2.8384 3.06835L2.83849 41.9319L2.83849 42.1819H3.08849H31.9119H32.1619V41.9319V12.273V12.023H31.9119H24.1913C23.5193 12.023 22.8971 11.4025 22.8971 10.7388V3.06835V2.81835H22.6471H3.0884ZM25.9115 5.04831L25.4853 4.62487V5.22566V9.2046V9.4546H25.7353H29.7403H30.3466L29.9165 9.02725L25.9115 5.04831ZM5.91183 18.9211C5.91183 18.2132 6.48983 17.6369 7.20603 17.6369H23.6765C24.3927 17.6369 24.9707 18.2136 24.9707 18.9211C24.9707 19.6287 24.3927 20.2053 23.6765 20.2053H7.20603C6.48985 20.2053 5.91183 19.6287 5.91183 18.9211ZM5.91183 27.1031C5.91183 26.3952 6.48983 25.8189 7.20603 25.8189H27.7942C28.5107 25.8189 29.0884 26.3955 29.0884 27.1031C29.0884 27.8106 28.5103 28.3873 27.7942 28.3873H7.20603C6.48985 28.3873 5.91183 27.8106 5.91183 27.1031ZM5.91183 35.285C5.91183 34.5772 6.48983 34.0009 7.20603 34.0009H27.7942C28.5107 34.0009 29.0884 34.5775 29.0884 35.285C29.0884 35.9926 28.5103 36.5692 27.7942 36.5692H7.20603C6.48985 36.5692 5.91183 35.9926 5.91183 35.285Z" fill="#2D3C59" stroke="white" stroke-width="0.5"/>
    <rect x="7.75" y="6.75" width="6.5" height="6.5" fill="#90D0D2" stroke="#2D3C59" stroke-width="1.5"/>
</svg>
