<?xml version="1.0" encoding="UTF-8"?>
<svg width="80px" height="79px" viewBox="0 0 80 79" version="1.1" xmlns="http://www.w3.org/2000/svg" xmlns:xlink="http://www.w3.org/1999/xlink">
    <title>HomeThrive</title>
    <g id="Careers" stroke="none" stroke-width="1" fill="none" fill-rule="evenodd">
        <g id="D---CLA-Benefits-Copy-3" transform="translate(-909.000000, -3416.000000)">
            <g id="Group-48" transform="translate(226.000000, 3073.062500)">
                <g id="Group-38" transform="translate(492.000000, 305.000000)">
                    <g id="Group-27" transform="translate(32.000000, 38.000000)">
                        <g id="HomeThrive" transform="translate(159.000000, 0.000000)">
                            <polygon id="Fill-1" fill="#2E334E" points="8.57618757 0 7.36505272 2.99799264 11.6394568 4.739545 5.48553894 19.9526598 1.21113485 18.2094904 0 21.207483 7.25714576 24.1666667 15.8333333 2.96080071"></polygon>
                            <polygon id="Fill-2" fill="#2E334E" points="8.0194508 8.33333333 5.83333333 7.53798768 6.9805492 5 9.16666667 5.79534565"></polygon>
                            <polygon id="Fill-3" fill="#2E334E" points="60 73.7963313 66.8915138 78.3333333 68.5856388 75.6905572 64.3021449 72.869705 74.0223811 57.6922592 78.305875 60.5146873 80 57.8703354 73.1084862 53.3333333"></polygon>
                            <polygon id="Fill-4" fill="#2E334E" points="75.2294304 65.8333333 73.3333333 64.0435171 74.7692511 60.8333333 76.6666667 62.6212353"></polygon>
                            <g id="Group-17" transform="translate(7.500000, 4.166667)">
                                <path d="M21.8578913,26.1217547 C20.3968066,26.1217547 18.953364,25.4675022 18.0006919,24.2379588 L14.0071673,19.0812892 L16.5380033,17.1008057 L20.531528,22.2574754 C21.0672056,22.9471799 22.0519542,23.1067144 22.7736755,22.6200537 C23.1537821,22.3654432 23.4055826,21.9722471 23.4857739,21.519427 C23.5034159,21.421128 23.5114351,21.322829 23.5114351,21.2261415 C23.5114351,20.8732319 23.402375,20.5316025 23.1890662,20.2415398 L20.1017028,15.9163832 C19.347905,14.8882722 18.9645908,13.9826321 18.9661946,13.234915 C18.9661946,13.1382274 18.9726099,13.0447628 18.9854405,12.954521 C19.0078941,12.7659803 19.0191208,12.5726052 19.0191208,12.3776186 C19.0207247,9.26589078 16.1210088,5.4080573 12.0472929,4.89883617 L7.3561044,3.85783348 L5.16046778,3.00859445 L6.31201423,1.14501068e-14 L8.39377927,0.805729633 L12.587782,1.72587287 C18.2508886,2.42846911 22.218752,7.85102954 22.2203558,12.4469114 C22.2203558,12.6902417 22.2091291,12.9287377 22.1882793,13.1672337 C22.2652629,13.3477171 22.4545143,13.6893465 22.6966919,14.0213071 L25.7856591,18.3480752 C26.3983203,19.1892569 26.7206892,20.1851388 26.7206892,21.2164727 C26.7206892,21.5000895 26.695028,21.7885407 26.6453094,22.0769919 C26.4127548,23.4032229 25.6733914,24.547359 24.5587329,25.298299 C23.7343668,25.8542525 22.7929214,26.1217547 21.8578913,26.1217547 L21.8578913,26.1217547 Z" id="Fill-5" fill="#2E334E"></path>
                                <path d="M33.5696641,39.0806267 L32.3988717,38.811513 C31.6049783,38.6310295 30.4341859,38.1701522 29.5921777,37.8156312 L27.388522,36.8987108 C25.0613717,35.9221665 22.1648635,34.7055148 20.0670602,33.6935184 C19.3004318,33.3244942 18.6332405,33.0215398 18.0430329,32.7540376 C15.3373798,31.5293286 13.8474263,30.8557386 11.6405629,27.6763295 L3.99833608,17.3210922 L0,15.7531423 L1.16598088,12.7509937 L6.02396724,14.6557386 L14.2451749,25.794145 C15.9724946,28.2822381 16.8273334,28.6689884 19.3613771,29.8163474 C19.9708307,30.0935184 20.6604755,30.40453 21.4543689,30.7880573 C23.4783963,31.7646016 26.3316012,32.9635273 28.6250712,33.9255685 L30.819104,34.8376544 C31.1799646,34.9891316 31.5199755,35.1261056 31.8263061,35.2437422 C31.8631941,35.0648702 31.8808362,34.8908326 31.8808362,34.7248523 C31.8808362,34.520197 31.855175,34.3252104 31.8006449,34.1398926 C31.6049783,33.4630797 31.0404318,32.8668397 30.1246477,32.3688988 C29.433399,31.9966517 28.7341313,31.6179588 28.1006203,31.1361325 C23.3388635,27.5087377 21.4607842,25.67812 21.3821968,25.6007699 L23.6243444,23.2947717 C23.6419864,23.3124978 25.4703471,25.0867144 30.0380411,28.5674664 C30.4710739,28.8978156 31.0035438,29.1846553 31.5680903,29.4892211 C33.3258827,30.4448165 34.4437488,31.727538 34.8799892,33.2406983 C35.0179182,33.7176902 35.0868827,34.2107968 35.0868827,34.7135721 C35.0868827,35.7916383 34.7741368,36.913214 34.1550603,38.0283438 L33.5696641,39.0806267 Z" id="Fill-7" fill="#2E334E"></path>
                                <path d="M43.7791338,56.7760609 L36.5715436,56.3973679 C33.843437,56.2523366 31.6686501,53.9898478 31.618928,51.2471441 L31.618928,51.1440107 C31.6173277,49.7372068 32.1610245,48.4206446 33.1586037,47.4247628 C34.1786365,46.4030976 35.5370764,45.9083796 36.9724999,45.8970994 L42.8104234,45.972838 C43.3380819,45.990564 43.804795,45.9325515 44.0164999,45.8809848 C47.9619098,42.4953089 55.8623524,42.4389078 60.3691011,47.4682722 L63.7692104,50.6235094 L65.8333333,52.022256 L64.0370492,54.6940555 L61.68103,53.0729275 L58.0868579,49.727538 C54.6851448,45.9406088 48.7429726,45.9438317 46.0212813,48.3996956 C45.2642759,49.1039033 43.8400791,49.2183169 42.7510819,49.1957565 L36.9131583,49.1184064 C36.3470081,49.1184064 35.8177458,49.3150045 35.421601,49.709812 C35.0350791,50.0933393 34.824978,50.6025604 34.8265818,51.1472337 L34.8265818,51.1875201 C34.8442239,52.2478603 35.6862321,53.1228827 36.7415491,53.1776723 L43.9475354,53.5563653 L43.7791338,56.7760609 Z" id="Fill-9" fill="#2E334E"></path>
                                <path d="M55.7680475,67.5 L51.7729191,64.8120859 L37.4395338,64.394718 L37.4347223,64.394718 C33.255154,64.394718 31.7154818,63.4697404 28.916807,61.7905998 C28.2977304,61.4199642 27.6016703,61.0009848 26.7757004,60.5336616 C24.5816676,59.2863921 21.6995938,57.45094 19.3836703,55.9748433 L16.9987823,54.4407341 C16.1599818,53.9041182 15.0068315,53.1322292 14.3460555,52.527932 L13.460744,51.7157565 L13.983591,50.6328559 C14.864091,48.808684 16.1696047,47.5614145 17.7557878,47.0215756 C19.3580091,46.4736795 21.1831621,46.6831692 23.0291648,47.6145927 C23.7909818,47.9997314 24.3795856,48.2978514 24.9521512,48.4847807 C31.0146102,50.4572068 33.7908316,51.00188 33.8164928,51.0067144 L33.2166622,54.1716204 C33.0995829,54.1506714 30.2592086,53.5979409 23.9641949,51.5513876 C23.155867,51.2871083 22.4293342,50.9196956 21.725255,50.5635631 C20.5095555,49.9495971 19.5665064,49.8077887 18.7838397,50.075291 C18.331561,50.2267681 17.9225856,50.5216652 17.5601211,50.9487019 C17.9017359,51.1871979 18.2978807,51.4498657 18.726102,51.7238138 L21.1029709,53.2530886 C23.3884217,54.7098478 26.2303998,56.521128 28.3538643,57.7264996 C29.2054955,58.2083259 29.9240091,58.640197 30.5607277,59.0237243 C33.2391157,60.6303491 34.1420693,61.1717995 37.4876485,61.1717995 L52.7881404,61.6181737 L57.5531049,64.8217547 L55.7680475,67.5 Z" id="Fill-11" fill="#2E334E"></path>
                                <path d="M38.9371857,27.1693644 C39.8593851,30.0458192 41.4632103,34.7319427 42.2747458,37.0895076 C44.6564261,36.3772426 49.381295,34.9511012 52.2441229,34.0245121 C53.5881284,33.5894181 54.6498606,32.7143957 55.233653,31.5654252 C55.7805573,30.4905819 55.8735792,29.2497583 55.4918688,28.0750045 C54.7059945,25.6481468 52.096571,24.3106356 49.674795,25.0889705 L48.1479535,25.582077 L47.657183,24.0479678 C46.877724,21.6178872 44.2747158,20.2674843 41.8465245,21.0458192 C40.6757321,21.4229006 39.7278715,22.220573 39.1777595,23.2954163 C38.5891556,24.4427753 38.5041529,25.8189615 38.9371857,27.1693644 L38.9371857,27.1693644 Z M40.2507185,41.0553089 L39.7487212,39.6049955 C39.72306,39.5308684 37.1617512,32.1407162 35.8835026,28.1571889 C35.1874425,25.9865533 35.3462212,23.7353447 36.3261583,21.8209311 C37.2676037,19.9790331 38.8826556,18.6141271 40.8713988,17.9759893 C44.5008551,16.8092927 48.3676775,18.4610385 50.1302814,21.7000716 C53.7902103,21.248863 57.3651366,23.4436705 58.5439481,27.0775112 C59.1886858,29.0741092 59.0266994,31.1883438 58.0900655,33.0318532 C57.1149399,34.9494897 55.389224,36.3917457 53.2288715,37.0911191 C49.262612,38.3754521 41.7919944,40.5976544 41.7182185,40.6202149 L40.2507185,41.0553089 Z" id="Fill-13" fill="#2E334E"></path>
                                <path d="M38.9371857,27.1693644 C39.8593851,30.0458192 41.4632103,34.7319427 42.2747458,37.0895076 C44.6564261,36.3772426 49.381295,34.9511012 52.2441229,34.0245121 C53.5881284,33.5894181 54.6498606,32.7143957 55.233653,31.5654252 C55.7805573,30.4905819 55.8735792,29.2497583 55.4918688,28.0750045 C54.7059945,25.6481468 52.096571,24.3106356 49.674795,25.0889705 L48.1479535,25.582077 L47.657183,24.0479678 C46.877724,21.6178872 44.2747158,20.2674843 41.8465245,21.0458192 C40.6757321,21.4229006 39.7278715,22.220573 39.1777595,23.2954163 C38.5891556,24.4427753 38.5041529,25.8189615 38.9371857,27.1693644" id="Fill-15" fill="#7DD2D3"></path>
                            </g>
                        </g>
                    </g>
                </g>
            </g>
        </g>
    </g>
</svg>