<?xml version="1.0" encoding="UTF-8"?>
<svg width="75px" height="69px" viewBox="0 0 75 69" version="1.1" xmlns="http://www.w3.org/2000/svg" xmlns:xlink="http://www.w3.org/1999/xlink">
    <title>Hospital</title>
    <defs>
        <polygon id="path-1" points="0 68.6170213 75 68.6170213 75 0 0 0"></polygon>
    </defs>
    <g id="Careers" stroke="none" stroke-width="1" fill="none" fill-rule="evenodd">
        <g id="D---CLA-Benefits-Copy-3" transform="translate(-914.000000, -1078.000000)">
            <g id="Group-45" transform="translate(228.000000, 1036.000000)">
                <g id="Group-44" transform="translate(492.000000, 0.000000)">
                    <g id="Group-40" transform="translate(32.000000, 42.000000)">
                        <g id="Edison---Hospital" transform="translate(162.000000, 0.000000)">
                            <polygon id="Fill-1" fill="#7DD2D3" points="27.9255319 67.0212766 47.8723404 67.0212766 47.8723404 52.6595745 27.9255319 52.6595745"></polygon>
                            <g id="Group-30">
                                <path d="M37.5116077,3.19418558 C32.7238323,3.19418558 28.8281002,7.10507473 28.8281002,11.9134403 C28.8281002,16.7218058 32.7238323,20.6342919 37.5116077,20.6342919 C42.299383,20.6342919 46.1935251,16.7218058 46.1935251,11.9134403 C46.1935251,7.10507473 42.299383,3.19418558 37.5116077,3.19418558" id="Fill-2" fill="#7DD2D3"></path>
                                <polygon id="Fill-4" fill="#2E334E" points="66.9221596 16.9412244 47.4005661 16.9412244 47.4005661 13.7473583 63.74197 13.7473583 63.74197 10.0792029 46.8806051 10.0792029 46.8806051 6.88533674 66.9221596 6.88533674"></polygon>
                                <polygon id="Fill-6" fill="#2E334E" points="28.0176289 16.9412244 8.10010177 16.9412244 8.10010177 6.88533674 28.0176289 6.88533674 28.0176289 10.0792029 11.2802913 10.0792029 11.2802913 13.7473583 28.0176289 13.7473583"></polygon>
                                <mask id="mask-2" fill="white">
                                    <use xlink:href="#path-1"></use>
                                </mask>
                                <g id="Clip-9"></g>
                                <polygon id="Fill-8" fill="#2E334E" mask="url(#mask-2)" points="13.6430131 67.0200882 16.8232027 67.0200882 16.8232027 15.3449301 13.6430131 15.3449301"></polygon>
                                <polygon id="Fill-10" fill="#2E334E" mask="url(#mask-2)" points="58.1990587 67.0200882 61.3792482 67.0200882 61.3792482 15.3449301 58.1990587 15.3449301"></polygon>
                                <path d="M28.8284182,65.4231551 L46.1938432,65.4231551 L46.1938432,54.0561853 L28.8284182,54.0561853 L28.8284182,65.4231551 Z M25.6482286,68.6170213 L49.3740327,68.6170213 L49.3740327,50.8623191 L25.6482286,50.8623191 L25.6482286,68.6170213 Z" id="Fill-11" fill="#2E334E" mask="url(#mask-2)"></path>
                                <polygon id="Fill-12" fill="#2E334E" mask="url(#mask-2)" points="35.9218309 67.0200882 39.1020205 67.0200882 39.1020205 52.4592522 35.9218309 52.4592522"></polygon>
                                <polygon id="Fill-13" fill="#2E334E" mask="url(#mask-2)" points="35.9218309 17.2883977 39.1020205 17.2883977 39.1020205 6.5378441 35.9218309 6.5378441"></polygon>
                                <polygon id="Fill-14" fill="#2E334E" mask="url(#mask-2)" points="32.3950007 13.510054 42.6272606 13.510054 42.6272606 10.3161878 32.3950007 10.3161878"></polygon>
                                <polygon id="Fill-15" fill="#2E334E" mask="url(#mask-2)" points="0.0190811372 23.893313 10.318125 23.893313 10.318125 20.6994468 0.0190811372 20.6994468"></polygon>
                                <polygon id="Fill-16" fill="#2E334E" mask="url(#mask-2)" points="2.55528229 67.0200882 5.73547183 67.0200882 5.73547183 22.2309056 2.55528229 22.2309056"></polygon>
                                <polygon id="Fill-17" fill="#2E334E" mask="url(#mask-2)" points="64.7009562 23.8278387 75 23.8278387 75 20.6339725 64.7009562 20.6339725"></polygon>
                                <polygon id="Fill-18" fill="#2E334E" mask="url(#mask-2)" points="69.2836093 67.0200882 72.4637988 67.0200882 72.4637988 22.2963799 69.2836093 22.2963799"></polygon>
                                <polygon id="Fill-19" fill="#2E334E" mask="url(#mask-2)" points="0 68.6170213 75 68.6170213 75 65.4231551 0 65.4231551"></polygon>
                                <path d="M37.5116077,3.19418558 C32.7238323,3.19418558 28.8281002,7.10507473 28.8281002,11.9134403 C28.8281002,16.7218058 32.7238323,20.6342919 37.5116077,20.6342919 C42.299383,20.6342919 46.1935251,16.7218058 46.1935251,11.9134403 C46.1935251,7.10507473 42.299383,3.19418558 37.5116077,3.19418558 M37.5116077,23.8281581 C30.9699578,23.8281581 25.6479106,18.483223 25.6479106,11.9134403 C25.6479106,5.34525446 30.9699578,0.000319386619 37.5116077,0.000319386619 C44.0516675,0.000319386619 49.3737147,5.34525446 49.3737147,11.9134403 C49.3737147,18.483223 44.0516675,23.8281581 37.5116077,23.8281581" id="Fill-20" fill="#2E334E" mask="url(#mask-2)"></path>
                                <polygon id="Fill-21" fill="#2E334E" mask="url(#mask-2)" points="28.8266691 39.9876838 25.6464795 39.9876838 25.6464795 34.088613 31.5218797 34.088613 31.5218797 37.2824791 28.8266691 37.2824791"></polygon>
                                <polygon id="Fill-22" fill="#2E334E" mask="url(#mask-2)" points="28.8266691 48.5961114 25.6464795 48.5961114 25.6464795 42.6954436 31.5218797 42.6954436 31.5218797 45.8893098 28.8266691 45.8893098"></polygon>
                                <polygon id="Fill-23" fill="#2E334E" mask="url(#mask-2)" points="28.8266691 31.3370972 25.6464795 31.3370972 25.6464795 25.4364294 31.5218797 25.4364294 31.5218797 28.6302956 28.8266691 28.6302956"></polygon>
                                <polygon id="Fill-24" fill="#2E334E" mask="url(#mask-2)" points="46.1547268 39.9876838 42.9745373 39.9876838 42.9745373 34.088613 48.8499375 34.088613 48.8499375 37.2824791 46.1547268 37.2824791"></polygon>
                                <polygon id="Fill-25" fill="#2E334E" mask="url(#mask-2)" points="46.1547268 48.5961114 42.9745373 48.5961114 42.9745373 42.6954436 48.8499375 42.6954436 48.8499375 45.8893098 46.1547268 45.8893098"></polygon>
                                <polygon id="Fill-26" fill="#2E334E" mask="url(#mask-2)" points="46.1547268 31.3370972 42.9745373 31.3370972 42.9745373 25.4364294 48.8499375 25.4364294 48.8499375 28.6302956 46.1547268 28.6302956"></polygon>
                                <polygon id="Fill-27" fill="#2E334E" mask="url(#mask-2)" points="37.4898234 39.9876838 34.3096339 39.9876838 34.3096339 34.088613 40.185034 34.088613 40.185034 37.2824791 37.4898234 37.2824791"></polygon>
                                <polygon id="Fill-28" fill="#2E334E" mask="url(#mask-2)" points="37.4898234 48.5961114 34.3096339 48.5961114 34.3096339 42.6954436 40.185034 42.6954436 40.185034 45.8893098 37.4898234 45.8893098"></polygon>
                                <polygon id="Fill-29" fill="#2E334E" mask="url(#mask-2)" points="37.4898234 31.3370972 34.3096339 31.3370972 34.3096339 25.4364294 40.185034 25.4364294 40.185034 28.6302956 37.4898234 28.6302956"></polygon>
                            </g>
                        </g>
                    </g>
                </g>
            </g>
        </g>
    </g>
</svg>