<?xml version="1.0" encoding="UTF-8"?>
<svg width="81px" height="78px" viewBox="0 0 81 78" version="1.1" xmlns="http://www.w3.org/2000/svg" xmlns:xlink="http://www.w3.org/1999/xlink">
    <title>LEARN TO LIVE</title>
    <g id="Careers" stroke="none" stroke-width="1" fill="none" fill-rule="evenodd">
        <g id="D---CLA-Benefits-Copy-3" transform="translate(-655.000000, -4275.000000)">
            <g id="LEARN-TO-LIVE" transform="translate(655.000000, 4275.000000)">
                <path d="M27.3021891,40.7387452 C30.9980398,44.3628418 37.3411594,50.3371841 39.9991099,52.8359585 C42.6588406,50.3371841 49.0037404,44.3628418 52.6978109,40.7387452 C54.4691845,38.9983401 55.4429948,36.7948755 55.439444,34.5337468 C55.437654,32.4071675 54.5688799,30.3924214 53.0022379,28.8599563 C49.7621376,25.6989193 44.4925238,25.7024141 41.2577642,28.8774302 C40.5616767,29.5571668 39.4347627,29.5589142 38.7404555,28.8756828 C35.5074762,25.7041615 30.2396427,25.6989193 26.9977621,28.8599563 C25.4293399,30.3924214 24.5641263,32.4071675 24.560556,34.5354942 C24.5570052,36.7948755 25.5308155,38.9983401 27.3021891,40.7387452 M39.9991099,57 C39.5576017,57 39.1143132,56.8392397 38.7689399,56.5159717 C38.6799261,56.4303493 29.5542369,47.8873368 24.7848803,43.2095613 C22.3387826,40.8068936 20.994675,37.7244894 21,34.5319994 C21.0053567,31.4688165 22.2426478,28.575131 24.4875744,26.3821506 C28.7175077,22.2548044 35.3614937,21.9053255 39.9991099,25.3319665 C44.6402866,21.9088203 51.2878332,22.2530571 55.5124256,26.3821506 C57.755572,28.5733836 58.9964236,31.4670691 59,34.5285046 C59.005325,37.7244894 57.6612174,40.8068936 55.2151197,43.2095613 C50.4475434,47.8873368 41.3182936,56.4303493 41.2274996,56.5159717 C40.8839065,56.8392397 40.440618,57 39.9991099,57" id="Fill-1" fill="#2E334E"></path>
                <path d="M70.2520261,34 C69.2853965,34 68.5040521,33.2039653 68.5040521,32.2191618 L68.5040521,9.60429776 C68.5040521,8.47880803 67.6038455,7.56167636 66.500874,7.56167636 C65.3961545,7.56167636 64.4959479,8.47880803 64.4959479,9.60429776 L64.4959479,31.8113499 C64.4959479,32.7961534 63.7146035,33.5921881 62.7479739,33.5921881 C61.7813444,33.5921881 61,32.7961534 61,31.8113499 L61,9.60429776 C61,6.51276267 63.4663912,4 66.500874,4 C69.5336088,4 72,6.51276267 72,9.60429776 L72,32.2191618 C72,33.2039653 71.2186556,34 70.2520261,34" id="Fill-3" fill="#2E334E"></path>
                <path d="M55.7479739,31 C54.7813444,31 54,30.2210793 54,29.257448 L54,5.48206858 C54,2.45874087 56.4663912,0 59.499126,0 C62.5336088,0 65,2.45874087 65,5.48206858 L65,14.5991006 C65,15.5627319 64.2186556,16.3416526 63.2520261,16.3416526 C62.2853965,16.3416526 61.5040521,15.5627319 61.5040521,14.5991006 L61.5040521,5.48206858 C61.5040521,4.38251827 60.6038455,3.48510399 59.499126,3.48510399 C58.3961545,3.48510399 57.4959479,4.38251827 57.4959479,5.48206858 L57.4959479,29.257448 C57.4959479,30.2210793 56.7146035,31 55.7479739,31" id="Fill-5" fill="#2E334E"></path>
                <path d="M47.7479739,26 C46.7813444,26 46,25.228978 46,24.2751186 L46,7.42647693 C46,4.43380768 48.4663912,2 51.499126,2 C54.5336088,2 57,4.43380768 57,7.42647693 C57,8.38033635 56.2186556,9.15135834 55.2520261,9.15135834 C54.2853965,9.15135834 53.5040521,8.38033635 53.5040521,7.42647693 C53.5040521,6.33807676 52.6038455,5.44976283 51.499126,5.44976283 C50.3961545,5.44976283 49.4959479,6.33807676 49.4959479,7.42647693 L49.4959479,24.2751186 C49.4959479,25.228978 48.7146035,26 47.7479739,26" id="Fill-7" fill="#2E334E"></path>
                <path d="M40.7482517,29 C39.7814685,29 39,28.2317702 39,27.2813651 L39,13.4085441 C39,10.4249939 41.4667832,8 44.5,8 C47.5332168,8 50,10.4249939 50,13.4085441 C50,14.3572305 49.2185315,15.127179 48.2517483,15.127179 C47.284965,15.127179 46.5034965,14.3572305 46.5034965,13.4085441 C46.5034965,12.3223668 45.6048951,11.4372698 44.5,11.4372698 C43.3968531,11.4372698 42.4965035,12.3223668 42.4965035,13.4085441 L42.4965035,27.2813651 C42.4965035,28.2317702 41.715035,29 40.7482517,29" id="Fill-9" fill="#2E334E"></path>
                <path d="M66,77 C64.894,77 64,76.2184632 64,75.2515954 L64,58.7484046 C64,57.7815368 64.894,57 66,57 C67.106,57 68,57.7815368 68,58.7484046 L68,75.2515954 C68,76.2184632 67.106,77 66,77" id="Fill-11" fill="#2E334E"></path>
                <path d="M10.7482517,34 C9.78146853,34 9,33.2039653 9,32.2191618 L9,9.60429776 C9,6.51276267 11.4667832,4 14.5,4 C17.5332168,4 20,6.51276267 20,9.60429776 L20,31.8113499 C20,32.7961534 19.2185315,33.5921881 18.2517483,33.5921881 C17.284965,33.5921881 16.5034965,32.7961534 16.5034965,31.8113499 L16.5034965,9.60429776 C16.5034965,8.47880803 15.6048951,7.56167636 14.5,7.56167636 C13.3968531,7.56167636 12.4965035,8.47880803 12.4965035,9.60429776 L12.4965035,32.2191618 C12.4965035,33.2039653 11.715035,34 10.7482517,34" id="Fill-13" fill="#2E334E"></path>
                <path d="M25.2520261,31 C24.2853965,31 23.5040521,30.2210793 23.5040521,29.257448 L23.5040521,5.48206858 C23.5040521,4.38251827 22.6038455,3.48510399 21.500874,3.48510399 C20.3961545,3.48510399 19.4959479,4.38251827 19.4959479,5.48206858 L19.4959479,14.5991006 C19.4959479,15.5627319 18.7146035,16.3416526 17.7479739,16.3416526 C16.7813444,16.3416526 16,15.5627319 16,14.5991006 L16,5.48206858 C16,2.45874087 18.4663912,0 21.500874,0 C24.5336088,0 27,2.45874087 27,5.48206858 L27,29.257448 C27,30.2210793 26.2186556,31 25.2520261,31" id="Fill-15" fill="#2E334E"></path>
                <path d="M33.2520261,26 C32.2853965,26 31.5040521,25.2278681 31.5040521,24.2726357 L31.5040521,7.43601555 C31.5040521,6.34432129 30.6038455,5.45472866 29.500874,5.45472866 C28.3961545,5.45472866 27.4959479,6.34432129 27.4959479,7.43601555 C27.4959479,8.39124802 26.7146035,9.16337988 25.7479739,9.16337988 C24.7813444,9.16337988 24,8.39124802 24,7.43601555 C24,4.43903843 26.4663912,2 29.500874,2 C32.5336088,2 35,4.43903843 35,7.43601555 L35,24.2726357 C35,25.2278681 34.2186556,26 33.2520261,26" id="Fill-17" fill="#2E334E"></path>
                <path d="M40.2520261,29 C39.2853965,29 38.5040521,28.2317702 38.5040521,27.2813651 L38.5040521,13.4085441 C38.5040521,12.3223668 37.6038455,11.4372698 36.500874,11.4372698 C35.3961545,11.4372698 34.4959479,12.3223668 34.4959479,13.4085441 C34.4959479,14.3572305 33.7146035,15.127179 32.7479739,15.127179 C31.7813444,15.127179 31,14.3572305 31,13.4085441 C31,10.4249939 33.4663912,8 36.500874,8 C39.5336088,8 42,10.4249939 42,13.4085441 L42,27.2813651 C42,28.2317702 41.2186556,29 40.2520261,29" id="Fill-19" fill="#2E334E"></path>
                <path d="M65.7363255,61 C65.3609038,61 64.983744,60.8783243 64.6656784,60.6243923 C64.2294244,60.2769993 64,59.7603184 64,59.2383472 C64,58.8556858 64.1199264,58.4712611 64.3702075,58.1485559 C65.9466312,56.1082833 67.7211942,54.0768278 69.4349249,52.1141455 C73.4116144,47.5610047 77.5238728,42.8526833 77.5238728,39.6326852 L77.5238728,30.0555714 C77.5238728,28.6607092 76.4062979,27.5268325 75.0297516,27.5268325 C73.6549433,27.5268325 72.5356303,28.6607092 72.5356303,30.0555714 L72.5356303,38.6222476 C72.5356303,39.5956534 71.7587159,40.3856639 70.7975667,40.3856639 C69.8364175,40.3856639 69.0595031,39.5956534 69.0595031,38.6222476 L69.0595031,30.0555714 C69.0595031,26.7174245 71.7378591,24 75.0297516,24 C78.321644,24 81,26.7174245 81,30.0555714 L81,39.6326852 C81,44.1911162 76.6461507,49.1745305 72.0368061,54.4524354 C70.3560986,56.3763226 68.618035,58.3672195 67.1059196,60.3246116 C66.7635211,60.7672291 66.2525304,61 65.7363255,61" id="Fill-21" fill="#2E334E"></path>
                <path d="M15.2636745,61 C14.7474696,61 14.2364789,60.7672291 13.8940804,60.3246116 C12.3837031,58.3689829 10.6473776,56.3798494 8.96667007,54.4577257 C4.35558736,49.1780574 0,44.1911162 0,39.6326852 L0,30.0555714 C0,26.7174245 2.678356,24 5.96851038,24 C9.26214089,24 11.9404969,26.7174245 11.9404969,30.0555714 L11.9404969,38.6222476 C11.9404969,39.5956534 11.1635825,40.3856639 10.2024333,40.3856639 C9.24128412,40.3856639 8.4643697,39.5956534 8.4643697,38.6222476 L8.4643697,30.0555714 C8.4643697,28.6607092 7.34505674,27.5268325 5.96851038,27.5268325 C4.59370208,27.5268325 3.47612719,28.6607092 3.47612719,30.0555714 L3.47612719,39.6326852 C3.47612719,42.8526833 7.59012371,47.5645315 11.5685513,52.1194357 C13.2805439,54.0803546 15.0533688,56.1100467 16.6297925,58.1485559 C16.8800736,58.4712611 17,58.8556858 17,59.2383472 C17,59.7603184 16.7705756,60.2769993 16.3343216,60.6243923 C16.016256,60.8783243 15.6390962,61 15.2636745,61" id="Fill-23" fill="#2E334E"></path>
                <path d="M60.7898236,51 C59.8000511,51 59,50.1999489 59,49.2101764 C59,42.4768601 64.47865,37 71.2101764,37 C72.1999489,37 73,37.8000511 73,38.7898236 C73,39.7778062 72.1999489,40.5796471 71.2101764,40.5796471 C66.4510355,40.5796471 62.5796471,44.4510355 62.5796471,49.2101764 C62.5796471,50.1999489 61.779596,51 60.7898236,51" id="Fill-25" fill="#2E334E"></path>
                <path d="M20.2101764,51 C19.220404,51 18.4203529,50.1999489 18.4203529,49.2101764 C18.4203529,44.4510355 14.5489645,40.5796471 9.78982357,40.5796471 C8.80005114,40.5796471 8,39.7778062 8,38.7898236 C8,37.8000511 8.80005114,37 9.78982357,37 C16.52135,37 22,42.4768601 22,49.2101764 C22,50.1999489 21.1999489,51 20.2101764,51" id="Fill-27" fill="#2E334E"></path>
                <path d="M15,77 C13.894,77 13,76.2184632 13,75.2515954 L13,58.7484046 C13,57.7815368 13.894,57 15,57 C16.106,57 17,57.7815368 17,58.7484046 L17,75.2515954 C17,76.2184632 16.106,77 15,77" id="Fill-29" fill="#2E334E"></path>
                <path d="M41,78 C39.894,78 39,77.1908038 39,76.1897176 L39,64.8102824 C39,63.8091962 39.894,63 41,63 C42.106,63 43,63.8091962 43,64.8102824 L43,76.1897176 C43,77.1908038 42.106,78 41,78" id="Fill-31" fill="#2E334E"></path>
                <path d="M27.6635996,41.0604311 C31.2542575,44.6373004 37.4168365,50.5337883 39.9991352,53 C42.5831635,50.5337883 48.7474721,44.6373004 52.3364004,41.0604311 C54.0573564,39.3427061 55.0034498,37.1679558 55,34.9362929 C54.9982609,32.837426 54.1542142,30.848935 52.6321627,29.3364402 C49.4842834,26.2165962 44.3646557,26.2200454 41.2219652,29.3536864 C40.5456901,30.024565 39.4508507,30.0262896 38.7763052,29.3519618 C35.6353443,26.22177 30.5174462,26.2165962 27.3678373,29.3364402 C25.8440562,30.848935 25.0034687,32.837426 25,34.9380175 C24.9965502,37.1679558 25.9426436,39.3427061 27.6635996,41.0604311" id="Fill-33" fill="#7DD2D3"></path>
            </g>
        </g>
    </g>
</svg>