<?xml version="1.0" encoding="UTF-8"?>
<svg width="75px" height="84px" viewBox="0 0 75 84" version="1.1" xmlns="http://www.w3.org/2000/svg" xmlns:xlink="http://www.w3.org/1999/xlink">
    <defs>
        <polygon id="path-1" points="0 83.5443038 75 83.5443038 75 0 0 0"></polygon>
    </defs>
    <g id="Careers" stroke="none" stroke-width="1" fill="none" fill-rule="evenodd">
        <g id="D---CLA-Benefits-Copy-3" transform="translate(-419.000000, -1979.000000)">
            <g id="Group-26" transform="translate(226.000000, 1946.284960)">
                <g id="Group-8" transform="translate(31.000000, 33.000000)">
                    <g id="GOT-ZOOM" transform="translate(162.000000, -0.000000)">
                        <polygon id="Fill-1" fill="#2E334E" points="0 61.7731192 2.19826157 63.9713808 6.70982809 59.4582596 24.0860442 76.8344757 19.572923 81.3460422 21.7711846 83.5443038 28.4810127 76.8344757 6.70982809 55.0632911"></polygon>
                        <polygon id="Fill-2" fill="#2E334E" points="6.62563889 68.3544304 4.74683544 66.4756269 6.66550035 64.556962 8.5443038 66.4357655"></polygon>
                        <g id="Group-16">
                            <path d="M47.6971718,63.514028 L36.2914019,63.514028 L36.2914019,60.3081836 L47.6971718,60.3081836 C49.157022,60.3081836 50.3832962,59.1492709 50.4858802,57.6697737 C50.4906149,57.6008481 50.4921931,57.5303195 50.4921931,57.4613939 C50.4921931,56.757711 50.2396785,56.0908954 49.76937,55.563534 C49.2532932,54.9848791 48.5462523,54.6530742 47.7760827,54.6306333 L38.013236,54.3501219 C36.3277009,54.3020343 34.9988426,53.0020644 34.7494844,52.742391 C31.1906065,49.1294044 23.0138673,48.6725716 18.2160894,53.545455 L11.0872859,60.7858545 L8.85568789,58.5193225 L15.9844914,51.278923 C22.1174403,45.0483645 32.3158748,45.739224 36.9968646,50.4902853 C37.320399,50.826899 37.8506797,51.1378659 38.1016161,51.1458805 L47.866041,51.4263919 C49.5026514,51.4744795 51.0098481,52.1781624 52.1098649,53.4124124 C53.1104541,54.534458 53.6486259,55.954647 53.6486259,57.4517763 C53.6486259,57.5992452 53.6438913,57.7483169 53.634422,57.8973887 C53.4150499,61.0455278 50.8062582,63.514028 47.6971718,63.514028" id="Fill-3" fill="#2E334E"></path>
                            <path d="M24.5941353,74.5044639 L22.3625374,72.2379319 L24.9934241,69.5658607 L48.5861811,69.5658607 C49.9813244,69.5658607 51.3370123,69.0625431 52.4023084,68.1488775 L58.3790139,63.0195265 C59.98406,61.6442193 61.3144964,60.3394406 62.7222655,58.9593246 C63.6518349,58.0488648 64.5987648,57.1207729 65.6498569,56.1477991 L71.6581268,50.6113059 C71.812792,50.4670429 71.8427781,50.2939274 71.8427781,50.1817228 C71.8427781,50.1656936 71.8427781,50.1512673 71.8411999,50.1384439 C71.834887,50.0310481 71.7906969,49.8322858 71.5902635,49.6944345 C69.1456062,48.0177779 68.3675456,48.5451393 65.0864337,50.7699952 C64.6082341,51.0937855 64.096892,51.4416196 63.5382034,51.8070859 C58.7435819,54.9520192 52.7621417,57.571194 52.5096271,57.6801927 L51.2644144,54.7356247 C51.3243866,54.708375 57.2584803,52.1084353 61.8258386,49.1141766 C62.3703232,48.7583279 62.8690396,48.4201113 63.3330352,48.1043357 C66.7135748,45.810554 69.1566538,44.1547354 73.3578658,47.0383924 C74.3111085,47.6939876 74.9060961,48.7390928 74.9897416,49.9060202 C74.9976327,49.9989897 74.9992109,50.0935621 74.9992109,50.1865316 C74.9992109,51.2508719 74.5652014,52.257507 73.782406,52.9820278 L67.7741362,58.518521 C66.7482955,59.4690539 65.8234607,60.3763078 64.9144081,61.2675326 C63.4671836,62.6845158 62.1004482,64.0229558 60.4164913,65.4687916 L54.4397858,70.5965396 C52.8047536,72.0006995 50.7262426,72.771705 48.5861811,72.771705 L26.3001873,72.771705 L24.5941353,74.5044639 Z" id="Fill-5" fill="#2E334E"></path>
                            <mask id="mask-2" fill="white">
                                <use xlink:href="#path-1"></use>
                            </mask>
                            <g id="Clip-8"></g>
                            <polygon id="Fill-7" fill="#7DD2D3" mask="url(#mask-2)" points="44.712449 28.9054956 47.8688818 28.9054956 47.8688818 26.2478506 44.712449 26.2478506"></polygon>
                            <polygon id="Fill-9" fill="#7DD2D3" mask="url(#mask-2)" points="44.712449 48.5605273 47.8688818 48.5605273 47.8688818 45.9028823 44.712449 45.9028823"></polygon>
                            <path d="M61.4494339,45.7520474 L58.6765077,44.2212567 C59.7875721,42.1454725 60.3746686,39.787574 60.3746686,37.4040287 C60.3746686,29.5176516 54.0570683,23.0995512 46.2922436,23.0995512 C38.5258407,23.0995512 32.2066622,29.5176516 32.2066622,37.4040287 C32.2066622,39.3355499 32.5791212,41.2093659 33.3129919,42.9725803 L30.4059173,44.2196538 C29.5063339,42.0605176 29.0502294,39.766736 29.0502294,37.4040287 C29.0502294,27.7496284 36.785068,19.8937068 46.2922436,19.8937068 C55.797841,19.8937068 63.5311014,27.7496284 63.5311014,37.4040287 C63.5311014,40.321347 62.8114347,43.2082099 61.4494339,45.7520474" id="Fill-10" fill="#2E334E" mask="url(#mask-2)"></path>
                            <path d="M46.2914545,46.743615 C42.9093367,46.743615 40.1600838,44.2895412 40.1600838,41.2728416 L43.3165166,41.2728416 C43.3165166,42.50068 44.6785173,43.5377707 46.2914545,43.5377707 C47.9043917,43.5377707 49.2663924,42.50068 49.2663924,41.2728416 C49.2663924,39.8542555 48.1553281,39.0079126 46.2914545,39.0079126 C42.0555217,39.0079126 40.1600838,36.2589011 40.1600838,33.5355363 C40.1600838,30.5188368 42.9093367,28.0647629 46.2914545,28.0647629 C49.6735722,28.0647629 52.4228252,30.5188368 52.4228252,33.5355363 L49.2663924,33.5355363 C49.2663924,32.3076979 47.9043917,31.2706073 46.2914545,31.2706073 C44.6785173,31.2706073 43.3165166,32.3076979 43.3165166,33.5355363 C43.3165166,35.5071306 45.1803901,35.8020683 46.2914545,35.8020683 C49.9024136,35.8020683 52.4228252,38.0509681 52.4228252,41.2728416 C52.4228252,44.2895412 49.6735722,46.743615 46.2914545,46.743615" id="Fill-11" fill="#7DD2D3" mask="url(#mask-2)"></path>
                            <path d="M26.2378477,33.2494147 C20.3684609,33.2494147 15.5927781,28.3989722 15.5927781,22.4361017 C15.5927781,16.4748341 20.3684609,11.6243916 26.2378477,11.6243916 C30.6631665,11.6243916 34.6734144,14.4535493 36.2169101,18.6628229 L33.2593325,19.7832655 C32.1735196,16.8210653 29.3516687,14.830236 26.2378477,14.830236 C22.1076554,14.830236 18.7492109,18.2428573 18.7492109,22.4361017 C18.7492109,26.630949 22.1076554,30.0435703 26.2378477,30.0435703 L26.2378477,33.2494147 Z" id="Fill-12" fill="#2E334E" mask="url(#mask-2)"></path>
                            <path d="M50.8450823,3.20568406 C47.9853542,3.20568406 45.657485,5.56999427 45.657485,8.47448925 C45.657485,11.3805872 47.9853542,13.7432944 50.8450823,13.7432944 C53.7048104,13.7432944 56.0326796,11.3805872 56.0326796,8.47448925 C56.0326796,5.56999427 53.7048104,3.20568406 50.8450823,3.20568406 M50.8450823,16.9491388 C46.2430032,16.9491388 42.5010521,13.1486103 42.5010521,8.47448925 C42.5010521,3.80197111 46.2430032,-0.000160292218 50.8450823,-0.000160292218 C55.4471613,-0.000160292218 59.1891124,3.80197111 59.1891124,8.47448925 C59.1891124,13.1486103 55.4471613,16.9491388 50.8450823,16.9491388" id="Fill-13" fill="#2E334E" mask="url(#mask-2)"></path>
                            <polygon id="Fill-14" fill="#7DD2D3" mask="url(#mask-2)" points="49.234039 10.0775717 52.4567569 10.0775717 52.4567569 6.87172737 49.234039 6.87172737"></polygon>
                            <polygon id="Fill-15" fill="#7DD2D3" mask="url(#mask-2)" points="24.3424098 24.0390239 27.5651277 24.0390239 27.5651277 20.8331795 24.3424098 20.8331795"></polygon>
                        </g>
                    </g>
                </g>
            </g>
        </g>
    </g>
</svg>