<?xml version="1.0" encoding="UTF-8"?>
<svg width="75px" height="80px" viewBox="0 0 75 80" version="1.1" xmlns="http://www.w3.org/2000/svg" xmlns:xlink="http://www.w3.org/1999/xlink">
    <title>PET INSURANCE</title>
    <defs>
        <polygon id="path-1" points="0 0 26 0 26 31 0 31"></polygon>
    </defs>
    <g id="Careers" stroke="none" stroke-width="1" fill="none" fill-rule="evenodd">
        <g id="D---CLA-Benefits-Copy-3" transform="translate(-914.000000, -2301.000000)">
            <g id="Group-29" transform="translate(718.000000, 2251.000000)">
                <g id="Group-20" transform="translate(34.000000, 50.284960)">
                    <g id="PET-INSURANCE" transform="translate(162.000000, 0.000000)">
                        <path d="M41.715594,44.3736117 C42.4774586,46.779275 41.6560459,49.2346726 39.8801133,49.8554295 C38.1024293,50.4780285 36.0462706,49.0320516 35.284406,46.6263883 C34.5225414,44.220725 35.3439541,41.7671694 37.1198867,41.1445705 C38.8958193,40.5219715 40.9537294,41.9679484 41.715594,44.3736117" id="Fill-1" fill="#7DD2D3"></path>
                        <path d="M53.4469684,47.1206863 C52.4045612,49.4390711 50.2398233,50.5916826 48.6124438,49.6966695 C46.9850643,48.8016563 46.5106245,46.197469 47.5530316,43.8790842 C48.5954388,41.5625796 50.7601767,40.4080879 52.3875562,41.303101 C54.0149357,42.1981141 54.4893755,44.8023015 53.4469684,47.1206863" id="Fill-3" fill="#7DD2D3"></path>
                        <path d="M60.8473841,55.0453409 C59.2961609,56.9441174 56.7626817,57.5660405 55.191072,56.4368505 C53.6176091,55.3076604 53.6009293,52.852975 55.1540058,50.9559357 C56.705229,49.0571592 59.2387082,48.4334988 60.8103178,49.5626889 C62.3819275,50.6936161 62.3986073,53.1465644 60.8473841,55.0453409" id="Fill-5" fill="#7DD2D3"></path>
                        <path d="M33.3085887,51.3639256 C34.4615177,53.3790304 34.1397701,55.7457642 32.5880081,56.6485041 C31.0379218,57.5529345 28.8443403,56.6518851 27.6914113,54.6350898 C26.5384823,52.6199851 26.8602299,50.2549418 28.4119919,49.3505114 C29.9620782,48.4477715 32.1556597,49.3488209 33.3085887,51.3639256" id="Fill-7" fill="#7DD2D3"></path>
                        <path d="M51.7182598,41.2135239 C51.3194611,41.2135239 50.9081018,41.5255845 50.7338236,41.6767891 C50.1277752,42.1979623 49.6253516,43.0504989 49.355299,44.0156346 C49.0852463,44.9823789 49.0695455,45.9764686 49.3113369,46.7469686 C49.3929807,47.0075553 49.6316319,47.6236336 50.0838131,47.757144 C50.5391345,47.8938716 51.060399,47.4981659 51.2629385,47.322833 C51.8689869,46.8016597 52.3714105,45.9475146 52.6414631,44.9823789 C53.1988393,42.9941993 52.5818003,41.4387222 51.9113789,41.2408694 C51.8485759,41.2215667 51.7842029,41.2135239 51.7182598,41.2135239 M50.2706519,51 C49.9142452,51 49.5609786,50.9517432 49.2171325,50.8487954 C47.8778596,50.4546983 46.8212,49.3190553 46.3219166,47.7346242 C45.8870062,46.351263 45.8932865,44.715358 46.3376174,43.1261012 C46.7819482,41.5400615 47.6266478,40.1518746 48.7115687,39.215693 C49.9566372,38.1427838 51.4403568,37.7583381 52.7780596,38.149218 C55.3922322,38.919718 56.6577116,42.3121701 55.6591447,45.8719123 C55.2148139,47.4595605 54.3716843,48.8477474 53.2851934,49.783929 C52.36042,50.5817745 51.3021903,51 50.2706519,51" id="Fill-9" fill="#2E334E"></path>
                        <path d="M59.9397377,51.2688708 C59.3404422,51.2688708 58.2879807,52.0103472 57.6755499,53.439404 C56.9843076,55.057913 57.3208982,56.4706378 57.8495919,56.6927541 C58.3667921,56.9067043 59.6310595,56.1782936 60.3239437,54.5614178 C61.0168278,52.9412756 60.6785953,51.530184 60.1515436,51.3064346 C60.0907931,51.2819365 60.0185492,51.2688708 59.9397377,51.2688708 M58.056472,60 C57.5474812,60 57.0450581,59.9020075 56.5623378,59.6978565 C54.1257499,58.6656692 53.288378,55.3551569 54.6544435,52.1606023 C56.020509,48.9676809 59.0022096,47.2675115 61.4371557,48.3029653 C63.8737436,49.3335195 64.7111155,52.645665 63.3466919,55.8402196 L63.34505,55.8402196 C62.249899,58.4010895 60.1154216,60 58.056472,60" id="Fill-11" fill="#2E334E"></path>
                        <path d="M38.2678006,41.2177931 C38.2034486,41.2177931 38.1422358,41.2274419 38.0857317,41.2435231 C37.4170994,41.4413219 36.8002626,42.9947664 37.3574561,44.9840116 L37.3574561,44.9856197 C37.6274203,45.948884 38.1296793,46.802796 38.7339597,47.3238271 C38.9380024,47.4975041 39.4590961,47.8882774 39.9126988,47.7580197 C40.5829006,47.5602208 41.1997374,46.0067763 40.6425439,44.015923 C40.1308675,42.1955305 38.9741023,41.2177931 38.2678006,41.2177931 M39.7274908,51 C38.6962903,51.0015989 37.6399768,50.5818795 36.7139368,49.7842516 C35.6278017,48.8483254 34.7849483,47.4589092 34.340763,45.8733023 C33.3425233,42.3145314 34.6075881,38.923005 37.2193349,38.1527153 C39.8310817,37.3872498 42.6609972,39.5694695 43.659237,43.1282404 C44.6574767,46.6902276 43.3924119,50.0817539 40.7806651,50.8488275 C40.4369316,50.9517472 40.0837807,51 39.7274908,51" id="Fill-13" fill="#2E334E"></path>
                        <path d="M30.0595336,51.2675085 C29.9807275,51.2675085 29.9084886,51.2805762 29.8477423,51.3050781 C29.3207267,51.5288625 28.9841591,52.9401743 29.6769958,54.5605693 L29.6769958,54.5605693 C30.3681907,56.1809642 31.6258042,56.9111221 32.1528198,56.6922381 C32.6781936,56.4700871 33.016403,55.0571419 32.3235663,53.4383804 C31.7128193,52.0091006 30.6604299,51.2675085 30.0595336,51.2675085 M31.9426703,60 C29.8838617,60 27.7511725,58.40084 26.6544547,55.8395705 C25.2884828,52.6445175 26.1257973,49.3318552 28.5605765,48.3011403 C31.000281,47.2704253 33.9784937,48.9659596 35.3444656,52.1593791 C36.7120793,55.3544321 35.8747648,58.665461 33.4383438,59.6978094 C32.9556566,59.9019922 32.4516262,60 31.9426703,60" id="Fill-15" fill="#2E334E"></path>
                        <path d="M44.0000059,57.4185225 C43.6272678,57.4185225 43.256224,57.4989482 42.9156769,57.6632221 C42.0211054,58.094441 40.6894138,58.9945248 39.4492124,60.8306273 C38.087024,62.851538 36.6689249,64.3898942 35.1152847,65.5363888 L33.1685752,66.973785 C31.9673419,67.8618905 31.320133,69.2291281 31.3929864,70.7315494 C31.4658397,72.2322595 32.243507,73.5327608 33.5260649,74.2959498 C36.9061219,76.2655248 38.4360425,75.5673609 40.2133255,74.7699483 C40.7537958,74.5235375 41.2756292,74.2942386 41.8008511,74.1333871 C42.9309252,73.7843052 45.0690866,73.782594 46.200855,74.1350983 C46.7260769,74.2942386 47.246216,74.5252487 47.784992,74.7699483 C49.5622751,75.5724945 51.0938899,76.2638136 54.487501,74.2873938 C55.7548106,73.5327608 56.5324778,72.2322595 56.6053312,70.7315494 C56.6781845,69.2291281 56.0326699,67.8618905 54.8314366,66.973785 L52.8830328,65.5363888 C51.3310869,64.3916053 49.9129878,62.8532492 48.5507994,60.8306273 C47.3089038,58.9945248 45.9789064,58.094441 45.0826407,57.6632221 C44.7437879,57.4989482 44.372744,57.4185225 44.0000059,57.4185225 M37.3839044,79 C35.8810921,79 34.0682295,78.5619364 31.8182467,77.2528791 C29.556404,75.9044646 28.1366107,73.5327608 28.0095409,70.8992456 C27.8807768,68.2657304 29.0616789,65.7656877 31.1693435,64.2102196 L33.116053,62.7728234 C34.3528659,61.8607613 35.508354,60.5944837 36.6485938,58.9038319 C38.317444,56.4345906 40.1862173,55.1837136 41.460304,54.571109 C43.051218,53.8079201 44.9487938,53.8113425 46.5380136,54.571109 C47.8121003,55.1837136 49.6825679,56.4345906 51.3497238,58.9021207 C52.4916578,60.5961949 53.647146,61.8624725 54.8822645,62.7728234 L56.8306683,64.2102196 C58.9366387,65.7656877 60.119235,68.2657304 59.990471,70.8992456 C59.8617069,73.5327608 58.4436078,75.9044646 56.1953193,77.2443232 C51.2853418,80.1002926 48.4626977,78.8237478 46.4007782,77.8928627 C45.9958491,77.7080546 45.6078626,77.5283801 45.213099,77.408597 L45.2097105,77.4068859 C44.7132911,77.2528791 43.2867207,77.2528791 42.788607,77.4068859 C42.390455,77.5283801 42.0041627,77.7080546 41.5975394,77.8928627 C40.4844078,78.3959514 39.1476334,79 37.3839044,79" id="Fill-17" fill="#2E334E"></path>
                        <polygon id="Fill-19" fill="#2E334E" points="7.06434412 22 4 19.9996425 5.93565588 17 9 19.0003575"></polygon>
                        <g id="Group-23">
                            <mask id="mask-2" fill="white">
                                <use xlink:href="#path-1"></use>
                            </mask>
                            <g id="Clip-22"></g>
                            <polygon id="Fill-21" fill="#2E334E" mask="url(#mask-2)" points="8.89994614 31 -0.000172884985 25.4188651 1.88427345 22.6199526 7.88338243 26.3802089 21.2162725 6.55916873 15.2171635 2.80058146 17.099881 0 26 5.57946592"></polygon>
                        </g>
                        <path d="M27.5761907,37 C27.1999683,37 26.8220436,36.9865178 26.4407142,36.9612387 C22.3107803,36.6848536 18.6064373,34.9625026 16.0120353,32.1093322 L11.6454729,28.1135454 L9,26.3473773 L10.9049448,23.5515062 L13.8619502,25.5536128 L18.4344986,29.7448915 C20.5130844,32.0200126 23.475197,33.3850853 26.6705333,33.5991152 C29.6547765,33.7979777 32.4789976,32.9806193 34.2392415,31.4116284 C35.1210658,30.606067 36.8727978,30.4830419 38.1631894,30.4998947 L45.5974108,30.5976406 C46.4026288,30.5774173 47.1703947,30.3195703 47.7372818,29.760059 C48.2922523,29.2157152 48.595273,28.4927323 48.595273,27.7208763 C48.595273,27.7023383 48.595273,27.6838003 48.5935706,27.6652623 C48.5663328,26.1603118 47.3559523,24.9199494 45.8374441,24.8424268 L36.6702166,24.3671793 L36.8489647,21 L46.0161922,21.4752475 C49.3085633,21.6471456 51.9370125,24.3368443 51.9982976,27.6029071 C52,27.6416684 52,27.6838003 52,27.7225616 C52,29.3977249 51.3411853,30.9667158 50.1393167,32.1497788 C48.9068055,33.3631767 47.2640247,33.9799874 45.5344234,33.9681904 L38.1002019,33.8704445 C37.332436,33.8485359 36.6617047,33.9378555 36.4012431,34.0170634 C34.1677422,35.9433326 31.0098579,37 27.5761907,37" id="Fill-24" fill="#2E334E"></path>
                        <path d="M67.6803902,33 C66.3406553,33 64.9249908,32.6295314 63.4958277,31.8937637 C62.5812983,31.4233548 61.7815069,31.0115316 61.0238986,30.7599576 C53.3482636,28.2235403 49.8386305,27.5222347 49.8031967,27.5153423 L50.4359431,24.1311551 C50.5844275,24.1587249 54.1446803,24.8634767 62.0616027,27.4826032 C63.0689348,27.8134403 63.9868389,28.2872954 64.8726838,28.7421963 C66.453706,29.5572271 67.7293226,29.743323 68.8058351,29.3728544 C69.5313842,29.1212804 70.1742545,28.6129631 70.724322,27.8547949 C70.2265615,27.4929419 69.619125,27.0776725 68.9492576,26.645172 L66.0301878,24.7359666 C63.1229292,22.8526079 59.5053074,20.5074558 56.7954657,18.9445954 C55.7290772,18.3277222 54.8246717,17.7763271 54.0248804,17.2886871 C50.6772303,15.2485254 49.4252362,14.4851879 45.1141244,14.4851879 L25.9258805,13.9165617 L20,9.86380807 L21.8763038,7 L26.9956436,10.4996355 L45.1630568,11.0389688 L45.1681188,11.0389688 C50.3583262,11.0389688 52.1620751,12.1400358 55.754387,14.330108 C56.5356179,14.8056863 57.4147135,15.3432964 58.4557921,15.9429386 C61.2415634,17.5505998 64.8996809,19.9215985 67.8389987,21.8273577 L70.7665051,23.7417324 C71.6186035,24.2914043 73.1996257,25.3511167 74.0669101,26.1558089 L75,27.022533 L74.4499325,28.1821857 C73.378482,30.436013 71.8008345,31.9747498 69.8874095,32.6364239 C69.1837956,32.8793823 68.4447478,33 67.6803902,33" id="Fill-26" fill="#2E334E"></path>
                        <path d="M43.8064352,57 C43.416475,57 43.0282873,57.0841749 42.6720055,57.2561067 C41.736101,57.7074277 40.3428795,58.6494707 39.0453756,60.5711667 C37.6202483,62.686286 36.136627,64.2963557 34.5112019,65.4962963 L32.4745461,67.0006996 C31.2178107,67.9302059 30.540698,69.3611799 30.6169175,70.9336395 C30.693137,72.5043081 31.5067358,73.8654348 32.8485534,74.6642013 C36.3847834,76.7255919 37.9853928,75.9948818 39.844794,75.1602962 C40.4102363,74.9023985 40.9561806,74.6624103 41.50567,74.4940604 C42.6879584,74.1287054 44.9249119,74.1269144 46.1089729,74.4958514 C46.6584623,74.6624103 47.202634,74.9041894 47.7663038,75.1602962 C49.6257049,76.0002546 51.2280869,76.7238009 54.7784973,74.6552465 C56.104362,73.8654348 56.9179608,72.5043081 56.9941803,70.9336395 C57.0703998,69.3611799 56.3950596,67.9302059 55.1383242,67.0006996 L53.0998959,65.4962963 C51.4762434,64.2981466 49.992622,62.688077 48.5674948,60.5711667 C47.2682183,58.6494707 45.8767693,57.7074277 44.9390923,57.2561067 C44.584583,57.0841749 44.1963954,57 43.8064352,57" id="Fill-28" fill="#7DD2D3"></path>
                    </g>
                </g>
            </g>
        </g>
    </g>
</svg>