<?xml version="1.0" encoding="UTF-8"?>
<svg width="75px" height="74px" viewBox="0 0 75 74" version="1.1" xmlns="http://www.w3.org/2000/svg" xmlns:xlink="http://www.w3.org/1999/xlink">
    <title>SMART SHOPPER</title>
    <defs>
        <polygon id="path-1" points="0 0 75 0 75 50.2840909 0 50.2840909"></polygon>
        <polygon id="path-3" points="-5.41015064e-15 0 12.7840909 0 12.7840909 16.1931818 -5.41015064e-15 16.1931818"></polygon>
    </defs>
    <g id="Careers" stroke="none" stroke-width="1" fill="none" fill-rule="evenodd">
        <g id="D---CLA-Benefits-Copy-3" transform="translate(-914.000000, -1981.000000)">
            <g id="Group-32" transform="translate(720.000000, 1946.000000)">
                <g id="Group-11" transform="translate(32.000000, 35.284960)">
                    <g id="SMART-SHOPPER" transform="translate(162.000000, -0.000000)">
                        <g id="Group-3" transform="translate(0.000000, 23.011364)">
                            <mask id="mask-2" fill="white">
                                <use xlink:href="#path-1"></use>
                            </mask>
                            <g id="Clip-2"></g>
                            <path d="M64.5699008,18.284428 C64.5024615,18.7468597 64.3813774,19.2215413 64.2020502,19.6931604 C63.221115,19.3011653 62.4195071,18.7177663 61.8355442,17.9460259 C61.2500485,17.1742856 61.0063475,16.3581395 61.0063475,15.6859291 C61.0078802,15.2418722 61.1136372,14.8590645 61.2975626,14.5941615 C61.5964412,14.1608232 62.1420864,14.0628244 62.9237691,14.2909778 C64.1376763,14.6492858 64.6312093,16.0411747 64.6312093,17.4284699 C64.6312093,17.7178725 64.6097513,18.0057439 64.5699008,18.284428 L64.5699008,18.284428 Z M26.0681975,47.2216291 L26.0681975,44.4317265 C30.1038259,45.231029 34.2927253,45.231029 38.326821,44.4317265 L38.326821,47.2216291 L26.0681975,47.2216291 Z M74.0068032,19.1051677 C71.4946897,19.9657195 69.1925576,20.3454647 67.2414163,20.2842155 C67.4069491,19.7681907 67.5280333,19.2445097 67.6031361,18.72236 C67.66751,18.278303 67.6996969,17.8419022 67.6996969,17.4177513 C67.6996969,14.4686006 66.1991727,12.0645681 63.7928163,11.354077 C61.7236563,10.7415846 59.8476179,11.3020151 58.7762528,12.8516208 C58.2168132,13.6585795 57.9439906,14.6416297 57.9455234,15.6767418 C57.9455234,17.0609745 58.4375236,18.5340186 59.3908699,19.7942216 C59.921188,20.4924629 60.8852633,21.4984816 62.4516941,22.264097 C61.4201795,23.205804 59.9702348,23.9040453 58.0788692,24.1597608 C58.0788692,24.1566984 58.0788692,24.1536359 58.0788692,24.1521047 C58.0788692,16.5235124 52.933558,9.50588131 44.6507871,5.83705212 L43.4077584,8.63614217 C50.567052,11.8073213 55.013447,17.7515596 55.013447,24.1521047 C55.013447,29.2618221 52.1687351,34.141855 47.2058165,37.5396563 L46.5406199,37.9974943 L46.5406199,47.2216291 L41.3922433,47.2216291 L41.3922433,40.5209628 L39.4702235,41.0293315 C34.7249499,42.2788159 29.6716013,42.2788159 24.9263277,41.0293315 L23.0027752,40.5209628 L23.0027752,47.2216291 L17.8559313,47.2216291 L17.8559313,37.9959631 L17.1892019,37.5396563 C13.9429198,35.316309 11.5794792,32.4636259 10.3517776,29.2863218 L9.97319799,28.3063341 L3.91592364,28.3063341 C3.58792346,28.3063341 3.32276444,28.0398999 3.32276444,27.7122165 L3.32276444,22.0129751 C3.32276444,21.686823 3.58792346,21.4203888 3.91592364,21.4203888 L9.62067443,21.4203888 L9.93641292,20.3056527 C10.7564134,17.4131576 12.5282274,14.6921603 15.0602662,12.4366572 L15.5737244,11.9803504 L15.5737244,5.22762223 L21.3842323,8.48148785 L22.0586252,8.21811614 C22.8188499,7.92105735 23.6127943,7.65309194 24.4220657,7.41881362 L23.5698783,4.47578787 C22.9123453,4.6656605 22.2624758,4.87850159 21.6294661,5.10818622 L12.5083022,0 L12.5083022,10.6206174 C10.121871,12.8791829 8.35772047,15.5251499 7.34459842,18.357927 L3.91592364,18.357927 C1.8973431,18.357927 0.257342197,19.9963441 0.257342197,22.0129751 L0.257342197,27.7122165 C0.257342197,29.7288476 1.8973431,31.3687958 3.91592364,31.3687958 L7.90403798,31.3687958 C9.33405745,34.5062879 11.6898344,37.3222215 14.790509,39.5945681 L14.790509,47.2216291 L-0.000153271113,47.2216291 L-0.000153271113,50.2840909 L14.790509,50.2840909 L26.0681975,50.2840909 L38.326821,50.2840909 L49.6060422,50.2840909 L64.2786857,50.2840909 L64.2786857,47.2216291 L49.6060422,47.2216291 L49.6060422,39.5945681 C54.0325119,36.3468274 56.8664947,31.9950693 57.7524018,27.2819406 C61.4109832,26.9879443 64.059508,25.3755582 65.6949108,23.2379599 C68.0276971,23.5732994 71.068596,23.3497397 75,22.0037878 L74.0068032,19.1051677 Z" id="Fill-1" fill="#2E334E" mask="url(#mask-2)"></path>
                        </g>
                        <g id="Group-6" transform="translate(27.272727, 0.000000)">
                            <mask id="mask-4" fill="white">
                                <use xlink:href="#path-3"></use>
                            </mask>
                            <g id="Clip-5"></g>
                            <polygon id="Fill-4" fill="#2E334E" mask="url(#mask-4)" points="12.7840909 10.0107002 10.6308206 7.9277769 7.85623883 10.6117134 7.85623883 -0.000294614326 4.81059478 -0.000294614326 4.81059478 10.4982869 2.15479317 7.9277769 -5.41015064e-15 10.0107002 6.39280687 16.1931818"></polygon>
                        </g>
                        <path d="M28.4985441,27.924773 C28.4985441,24.9969879 30.8164606,22.6143973 33.6647727,22.6143973 C36.5130848,22.6143973 38.8310014,24.9969879 38.8310014,27.924773 C38.8310014,29.3615564 38.25372,30.682373 37.274979,31.6748681 C34.7827059,31.0754553 32.1483103,30.8917157 29.5783826,31.1372039 C28.8897474,30.2154937 28.4985441,29.1055258 28.4985441,27.924773 M26.313959,31.6793863 L27.0069897,34.6071714 C31.2867838,33.533349 36.1687673,33.9640828 40.0588232,35.7954545 L41.279319,33.0559272 C40.9672355,32.9098392 40.6375697,32.7878481 40.3152299,32.6583268 C41.2441547,31.284798 41.7613636,29.6507204 41.7613636,27.924773 C41.7613636,23.3358012 38.1291796,19.6022727 33.6647727,19.6022727 C29.2003658,19.6022727 25.5681818,23.3358012 25.5681818,27.924773 C25.5681818,29.2455896 25.8993128,30.5031516 26.4604771,31.649265 C26.4121261,31.6613135 26.36231,31.6673378 26.313959,31.6793863" id="Fill-7" fill="#2E334E"></path>
                        <path d="M19.9761117,43.353569 C19.4998459,43.7100328 18.9193969,43.8535443 18.3359712,43.7594131 C17.7540339,43.6637388 17.2450248,43.3381376 16.8997321,42.8443348 L14.4886364,44.6559738 C15.3012649,45.8179534 16.5008595,46.5818046 17.8671471,46.8071021 C18.1439766,46.8533961 18.4193178,46.875 18.6946589,46.875 C19.7766754,46.875 20.8289252,46.5247087 21.7234119,45.8519024 C22.844125,45.0093514 23.5808487,43.7655857 23.7981449,42.3489889 C23.8427949,42.0635092 23.8636364,41.7780295 23.8636364,41.495636 C23.8651198,40.3706916 23.5257804,39.2781529 22.8768682,38.3522727 L20.4672608,40.1639117 C20.742602,40.5574107 20.8869701,41.021894 20.8869701,41.5002654 C20.8869701,41.6206298 20.8765518,41.7425374 20.8586918,41.8629018 C20.7664153,42.4662671 20.4523775,42.9955619 19.9761117,43.353569" id="Fill-9" fill="#2E334E"></path>
                        <path d="M32.8125,62.2159091 C36.1669387,62.2159091 39.3456612,61.6053086 41.7613636,60.4953853 L40.3239732,57.9545455 C38.3736813,58.8490466 35.6350409,59.3626358 32.8125,59.3626358 C29.9899591,59.3626358 27.2513187,58.8490466 25.3010268,57.9545455 L23.8636364,60.4953853 C26.2809218,61.6053086 29.4580613,62.2159091 32.8125,62.2159091" id="Fill-11" fill="#2E334E"></path>
                        <path d="M28.9772727,28.506086 C28.9772727,25.4766645 31.2715928,23.0113636 34.0909091,23.0113636 C36.9102253,23.0113636 39.2045455,25.4766645 39.2045455,28.506086 C39.2045455,29.9927466 38.6331408,31.3594147 37.6643634,32.3863636 C35.1974617,31.7661426 32.5898842,31.5760245 30.0461184,31.8300347 C29.3644936,30.8763279 28.9772727,29.7278281 28.9772727,28.506086" id="Fill-13" fill="#7DD2D3"></path>
                    </g>
                </g>
            </g>
        </g>
    </g>
</svg>