<?xml version="1.0" encoding="UTF-8"?>
<svg width="76px" height="79px" viewBox="0 0 76 79" version="1.1" xmlns="http://www.w3.org/2000/svg" xmlns:xlink="http://www.w3.org/1999/xlink">
    <title>PRE EXAM BONUS</title>
    <defs>
        <polygon id="path-1" points="0 -5.55598298e-15 51.1705857 -5.55598298e-15 51.1705857 17.9413829 0 17.9413829"></polygon>
        <polygon id="path-3" points="0 78.2107116 74.0943584 78.2107116 74.0943584 0 0 0"></polygon>
    </defs>
    <g id="Careers" stroke="none" stroke-width="1" fill="none" fill-rule="evenodd">
        <g id="D--CPA-Exam-V2-Copy" transform="translate(-972.000000, -1534.000000)">
            <g id="PRE-EXAM-BONUS" transform="translate(972.153655, 1534.000000)">
                <polygon id="Fill-1" fill="#7DD2D3" points="35.8599667 17.4945013 48.2090264 17.4945013 48.2090264 12.3490597 35.8599667 12.3490597"></polygon>
                <g id="Group-16" transform="translate(0.870964, 0.000000)">
                    <g id="Group-4" transform="translate(0.000000, 47.711764)">
                        <mask id="mask-2" fill="white">
                            <use xlink:href="#path-1"></use>
                        </mask>
                        <g id="Clip-3"></g>
                        <path d="M2.13209483,17.9413829 L-0.00061328774,15.6941015 L11.0263003,4.80643729 C17.5302168,-1.83062776 28.3685444,-1.09560877 33.3392415,3.97289448 C33.7225463,4.37324525 34.3205019,4.71729669 34.6378783,4.72667991 L45.1189658,5.03007072 C46.833105,5.08011457 48.4123209,5.82138904 49.5622355,7.11783741 C50.6094243,8.2985594 51.1721158,9.79361929 51.1705857,11.3684366 C51.1705857,11.5232597 51.1659829,11.676519 51.1552504,11.8313421 C50.9252675,15.1404914 48.1976702,17.7349521 44.9426456,17.7349521 L32.6968226,17.7349521 L32.6968226,14.6072117 L44.9426456,14.6072117 C46.5939228,14.6072117 47.9799531,13.290433 48.0964778,11.6108364 C48.1010774,11.5295152 48.1041439,11.4513217 48.1041439,11.3715643 C48.1041439,10.5739905 47.8189651,9.81551348 47.2869379,9.2165512 C46.7027814,8.55816185 45.9024409,8.18126914 45.0315723,8.15624721 L34.552018,7.8528564 C33.1920524,7.81375965 31.8719506,6.92078977 31.1559371,6.16856822 C27.2860915,2.21979601 18.3903528,1.71622981 13.1758738,7.0349523 L2.13209483,17.9413829 Z" id="Fill-2" fill="#2E334E" mask="url(#mask-2)"></path>
                    </g>
                    <path d="M17.7727721,78.2107116 L16.0356345,75.6334535 L18.6129763,73.8271835 C20.0404035,72.8294343 21.7054797,72.3008462 23.4349511,72.3008462 L45.8966146,72.3008462 C47.4329004,72.3008462 48.9247229,71.7441084 50.0976357,70.7338483 L56.5156919,65.2040033 C58.2420968,63.7167628 59.6710573,62.3092796 61.1843448,60.8189113 C62.1840038,59.8368009 63.198995,58.8374878 64.3259112,57.7896948 L70.7746318,51.8204023 C70.9877493,51.6233547 71.027613,51.3872103 71.027613,51.233951 C71.027613,51.2136207 71.0260798,51.1932904 71.0260798,51.1760878 C71.0168805,51.0322117 70.9570849,50.7616622 70.6841719,50.5739978 C67.9734401,48.7020452 67.1179037,49.2853687 63.5209711,51.7343894 C63.0088758,52.0815686 62.4599833,52.4568975 61.8620277,52.8509928 C56.7257429,56.2320801 50.3153528,59.051738 50.0455062,59.1705922 L48.8357961,56.2961988 C48.9001913,56.2680491 55.2845167,53.4593383 60.200018,50.2236909 C60.7826413,49.8374149 61.3177349,49.4730332 61.8175644,49.1336733 C65.5279552,46.6048953 67.9780397,44.9315542 72.4029108,47.9826649 C73.3841712,48.6613845 73.9989921,49.7420188 74.0848524,50.9493266 C74.0909853,51.0462866 74.0940517,51.1432465 74.0940517,51.2386426 C74.0940517,52.3411711 73.6448184,53.3842725 72.8383451,54.1349302 L66.3896245,60.1026588 C65.2872398,61.1285576 64.2921804,62.1075404 63.3139865,63.0693205 C61.7623685,64.5972217 60.298144,66.03911 58.495078,67.5935969 L52.0770218,73.1234419 C50.3521501,74.6091186 48.15658,75.4285866 45.8966146,75.4285866 L23.4349511,75.4285866 C22.3295,75.4285866 21.2608461,75.7663825 20.3501138,76.4060054 L17.7727721,78.2107116 Z" id="Fill-5" fill="#2E334E"></path>
                    <mask id="mask-4" fill="white">
                        <use xlink:href="#path-3"></use>
                    </mask>
                    <g id="Clip-8"></g>
                    <path d="M37.3415573,16.0828409 L46.7999875,16.0828409 L46.7999875,13.4445919 L37.3415573,13.4445919 L37.3415573,16.0828409 Z M34.2751186,19.2105813 L49.8664262,19.2105813 L49.8664262,10.3168516 L34.2751186,10.3168516 L34.2751186,19.2105813 Z" id="Fill-7" fill="#2E334E" mask="url(#mask-4)"></path>
                    <path d="M18.9811022,49.4523901 C18.9197735,48.2919984 18.9075077,47.4287421 18.9075077,46.4638342 C18.9075077,46.1620072 18.9090409,45.8507971 18.9105742,45.5176927 L18.9136406,44.2056056 C18.9136406,31.1957696 25.0020546,20.7319142 35.1979633,16.2138933 L36.4199391,19.0820312 C27.3785446,23.0886666 21.9800793,32.479707 21.9800793,44.2056056 L21.9770129,45.5302037 C21.9754796,45.8679996 21.9739464,46.1792098 21.9739464,46.4763451 C21.9739464,47.405284 21.9862122,48.1981662 22.0444745,49.285056 L18.9811022,49.4523901 Z" id="Fill-9" fill="#2E334E" mask="url(#mask-4)"></path>
                    <path d="M65.0210729,50.0724646 L61.9577006,49.9223331 C62.0404945,48.1582875 62.0481606,46.2112691 62.0481606,44.2048237 C62.0481606,32.4804889 56.6496952,23.0894485 47.6098339,19.0812492 L48.8302765,16.2131113 C59.0277184,20.7311323 65.1145993,31.1965515 65.1145993,44.2048237 C65.1145993,46.2503659 65.1069332,48.2396088 65.0210729,50.0724646" id="Fill-10" fill="#2E334E" mask="url(#mask-4)"></path>
                    <path d="M37.2265658,16.0828409 L46.6865292,16.0828409 L46.6865292,13.4445919 L37.2265658,13.4445919 L37.2265658,16.0828409 Z M34.1601271,19.2105813 L49.7529679,19.2105813 L49.7529679,10.3168516 L34.1601271,10.3168516 L34.1601271,19.2105813 Z" id="Fill-11" fill="#2E334E" mask="url(#mask-4)"></path>
                    <path d="M36.9185421,10.3174771 L47.2248426,10.3174771 L49.2302935,4.09327381 C49.3100209,3.84774619 49.2870226,3.5537386 49.1720311,3.32541355 C49.0999698,3.18310137 49.0248421,3.13305752 49.0095099,3.12836591 L49.0079767,3.12836591 C48.4713499,3.12836591 48.0911115,3.24878391 47.9623211,3.33166903 C47.1742463,3.83210749 46.1991188,3.83054362 45.4141105,3.33166903 C45.3037187,3.26129487 44.9434122,3.12680204 44.3791874,3.12680204 C43.8563596,3.12680204 43.474588,3.24878391 43.3457976,3.33166903 C42.5592561,3.83210749 41.5825953,3.83054362 40.797587,3.33166903 C40.6871952,3.26129487 40.3284219,3.12680204 39.762664,3.12680204 C39.2413694,3.12680204 38.8595978,3.24878391 38.7308074,3.33166903 C37.9427326,3.83210749 36.9660719,3.83054362 36.1825968,3.33166903 C36.0706718,3.26129487 35.7118984,3.12680204 35.1476737,3.12680204 C35.1185426,3.13305752 35.0434148,3.1815375 34.9713535,3.32228581 C34.8548288,3.55061086 34.8333638,3.84618232 34.9115579,4.09483768 L36.9185421,10.3174771 Z M49.443411,13.4452175 L34.6999737,13.4452175 L31.9984412,5.07069267 C31.605937,3.84774619 31.808322,2.45121012 32.5258686,1.42374741 C33.143756,0.53703302 34.0759534,0.0178281201 35.0848117,0.000625548072 L35.0909446,0.000625548072 C36.0016769,0.000625548072 36.8127499,0.171087398 37.4567021,0.482297564 C38.7338738,-0.141686638 40.7837881,-0.141686638 42.0716923,0.482297564 C43.3534637,-0.141686638 45.4003115,-0.141686638 46.6882158,0.482297564 C47.3291015,0.169523528 48.1325084,-0.000938322108 48.9957109,-0.000938322108 C50.0674312,0.0178281201 51.0011618,0.53703302 51.6205824,1.42531128 C52.3365959,2.45277399 52.5374476,3.84931006 52.1449435,5.07069267 L49.443411,13.4452175 Z" id="Fill-12" fill="#2E334E" mask="url(#mask-4)"></path>
                    <path d="M42.0137366,46.8194582 C38.4811992,46.8194582 35.6079462,44.2531473 35.6079462,41.0972573 L38.6743849,41.0972573 C38.6743849,42.5031765 40.2030046,43.6917179 42.0137366,43.6917179 C43.8244687,43.6917179 45.3546216,42.5031765 45.3546216,41.0972573 C45.3546216,39.4974181 44.0743834,38.5043605 42.0137366,38.5043605 C37.5888656,38.5043605 35.6079462,35.631531 35.6079462,32.7821595 C35.6079462,29.6278333 38.4811992,27.0615224 42.0137366,27.0615224 C45.546274,27.0615224 48.4210603,29.6278333 48.4210603,32.7821595 L45.3546216,32.7821595 C45.3546216,31.3762402 43.8244687,30.1892627 42.0137366,30.1892627 C40.2030046,30.1892627 38.6743849,31.3762402 38.6743849,32.7821595 C38.6743849,34.4320425 39.891761,35.3766201 42.0137366,35.3766201 C45.7854562,35.3766201 48.4210603,37.7302448 48.4210603,41.0972573 C48.4210603,44.2531473 45.546274,46.8194582 42.0137366,46.8194582" id="Fill-13" fill="#2E334E" mask="url(#mask-4)"></path>
                    <polygon id="Fill-14" fill="#2E334E" mask="url(#mask-4)" points="40.4800573 28.6250798 43.546496 28.6250798 43.546496 25.4832646 40.4800573 25.4832646"></polygon>
                    <polygon id="Fill-15" fill="#2E334E" mask="url(#mask-4)" points="40.4800573 48.3986544 43.546496 48.3986544 43.546496 45.2552753 40.4800573 45.2552753"></polygon>
                </g>
            </g>
        </g>
    </g>
</svg>