<?xml version="1.0" encoding="UTF-8"?>
<svg width="28px" height="28px" viewBox="0 0 28 28" version="1.1" xmlns="http://www.w3.org/2000/svg" xmlns:xlink="http://www.w3.org/1999/xlink">
    <title>83A962CA-B630-4B33-ADAA-74950EDFA9AF@3x</title>
    <g id="MVP" stroke="none" stroke-width="1" fill="none" fill-rule="evenodd">
        <g id="D---industry-Detail-Page---Dairy-Producer" transform="translate(-209.000000, -689.000000)" fill="currentColor" fill-rule="nonzero">
            <g id="Left-Rail" transform="translate(165.000000, 689.000000)">
                <path d="M66.5555556,0 C66.9544278,0 67.2831723,0.300253481 67.3281007,0.687072454 L67.3333333,0.777777778 L67.3333333,6.22222222 L71.2222222,6.22222222 C71.651777,6.22222222 72,6.57044523 72,7 L72,19.4444444 C72,19.8739992 71.651777,20.2222222 71.2222222,20.2222222 L67.3333333,20.2222222 L67.3333333,27.2222222 C67.3333333,27.651777 66.9851103,28 66.5555556,28 L49.4444444,28 C49.0148897,28 48.6666667,27.651777 48.6666667,27.2222222 L48.6666667,20.2222222 L44.7777778,20.2222222 C44.348223,20.2222222 44,19.8739992 44,19.4444444 L44,7 C44,6.57044523 44.348223,6.22222222 44.7777778,6.22222222 L48.6666667,6.22222222 L48.6666667,0.777777778 C48.6666667,0.378905458 48.9669202,0.0501610978 49.3537391,0.00523267889 L49.4444444,0 L66.5555556,0 Z M65.7777778,15.5555556 L50.2222222,15.5555556 L50.2222222,26.0555556 C50.2222222,26.2464688 50.3597918,26.405251 50.5412079,26.4381789 L50.6111111,26.4444444 L65.3888889,26.4444444 C65.5798021,26.4444444 65.7385843,26.3068748 65.7715122,26.1254588 L65.7777778,26.0555556 L65.7777778,15.5555556 Z M64.2222222,23.3333333 L64.2222222,24.8888889 L51.7777778,24.8888889 L51.7777778,23.3333333 L64.2222222,23.3333333 Z M64.2222222,20.2222222 L64.2222222,21.7777778 L51.7777778,21.7777778 L51.7777778,20.2222222 L64.2222222,20.2222222 Z M64.2222222,17.1111111 L64.2222222,18.6666667 L51.7777778,18.6666667 L51.7777778,17.1111111 L64.2222222,17.1111111 Z M68.5,7.77777778 C67.8556678,7.77777778 67.3333333,8.30011226 67.3333333,8.94444444 C67.3333333,9.58877663 67.8556678,10.1111111 68.5,10.1111111 C69.1443322,10.1111111 69.6666667,9.58877663 69.6666667,8.94444444 C69.6666667,8.30011226 69.1443322,7.77777778 68.5,7.77777778 Z M65.3888889,1.55555556 L50.6111111,1.55555556 C50.3963337,1.55555556 50.2222222,1.72966705 50.2222222,1.94444444 L50.2222222,5.44444444 L65.7777778,5.44444444 L65.7777778,1.94444444 C65.7777778,1.72966705 65.6036663,1.55555556 65.3888889,1.55555556 Z" id="Print"></path>
            </g>
        </g>
    </g>
</svg>