<?xml version="1.0" encoding="UTF-8"?>
<svg width="82px" height="80px" viewBox="0 0 82 80" version="1.1" xmlns="http://www.w3.org/2000/svg" xmlns:xlink="http://www.w3.org/1999/xlink">
    <title>PTO</title>
    <g id="Careers" stroke="none" stroke-width="1" fill="none" fill-rule="evenodd">
        <g id="D---CLA-Benefits-Copy-3" transform="translate(-416.000000, -3129.000000)">
            <g id="Group-48" transform="translate(226.000000, 3073.062500)">
                <g id="PTO" transform="translate(192.000000, 57.937500)">
                    <polygon id="Stroke-1" stroke="#2E334E" stroke-width="4" points="16 15 23 15 23 0 16 0"></polygon>
                    <polygon id="Stroke-3" stroke="#2E334E" stroke-width="4" points="54 15 61 15 61 0 54 0"></polygon>
                    <path d="M33,39.5 C33,43.090033 30.090033,46 26.5,46 C22.909967,46 20,43.090033 20,39.5 C20,35.909967 22.909967,33 26.5,33 C30.090033,33 33,35.909967 33,39.5" id="Fill-4" fill="#7DD2D3"></path>
                    <path d="M33,39.5 C33,43.090033 30.090033,46 26.5,46 C22.909967,46 20,43.090033 20,39.5 C20,35.909967 22.909967,33 26.5,33 C30.090033,33 33,35.909967 33,39.5 Z" id="Stroke-5" stroke="#2E334E" stroke-width="4"></path>
                    <path d="M73,52.5 C73,56.090033 70.090033,59 66.5,59 C62.909967,59 60,56.090033 60,52.5 C60,48.909967 62.909967,46 66.5,46 C70.090033,46 73,48.909967 73,52.5" id="Fill-6" fill="#7DD2D3"></path>
                    <path d="M73,52.5 C73,56.090033 70.090033,59 66.5,59 C62.909967,59 60,56.090033 60,52.5 C60,48.909967 62.909967,46 66.5,46 C70.090033,46 73,48.909967 73,52.5 Z" id="Stroke-7" stroke="#2E334E" stroke-width="4"></path>
                    <path d="M78,26 L78,73.5915612 C78,74.921519 76.9083383,76 75.5621263,76 L2.4395821,76 C1.09166174,76 0,74.921519 0,73.5915612 L0,26 L78,26 Z" id="Stroke-8" stroke="#2E334E" stroke-width="4"></path>
                    <path d="M61.3602733,8 L75.5621263,8 C76.9083383,8 78,9.10958904 78,10.4779085 L78,26 L0,26 L0,10.4779085 C0,9.10958904 1.09166174,8 2.4395821,8 L16.6397267,8 L2.4395821,8 C1.09166174,8 0,9.10958904 0,10.4779085 L0,26 L78,26 L78,10.4779085 C78,9.10958904 76.9083383,8 75.5621263,8 L61.3602733,8 Z" id="Stroke-9" stroke="#2E334E" stroke-width="4"></path>
                    <path d="M24,7.5 L54,7.5 L24,7.5 Z" id="Stroke-10" stroke="#2E334E" stroke-width="4"></path>
                    <path d="M10,39.5 L14,39.5 L10,39.5 Z" id="Stroke-11" stroke="#2E334E" stroke-width="4"></path>
                    <path d="M24,39.5 L28,39.5 L24,39.5 Z" id="Stroke-12" stroke="#2E334E" stroke-width="4"></path>
                    <path d="M37,39.5 L41,39.5 L37,39.5 Z" id="Stroke-13" stroke="#2E334E" stroke-width="4"></path>
                    <path d="M50,39.5 L54,39.5 L50,39.5 Z" id="Stroke-14" stroke="#2E334E" stroke-width="4"></path>
                    <path d="M64,39.5 L68,39.5 L64,39.5 Z" id="Stroke-15" stroke="#2E334E" stroke-width="4"></path>
                    <path d="M10,52.5 L14,52.5 L10,52.5 Z" id="Stroke-16" stroke="#2E334E" stroke-width="4"></path>
                    <path d="M24,52.5 L28,52.5 L24,52.5 Z" id="Stroke-17" stroke="#2E334E" stroke-width="4"></path>
                    <path d="M37,52.5 L41,52.5 L37,52.5 Z" id="Stroke-18" stroke="#2E334E" stroke-width="4"></path>
                    <path d="M50,52.5 L54,52.5 L50,52.5 Z" id="Stroke-19" stroke="#2E334E" stroke-width="4"></path>
                    <path d="M64,52.5 L68,52.5 L64,52.5 Z" id="Stroke-20" stroke="#2E334E" stroke-width="4"></path>
                    <path d="M10,64.5 L14,64.5 L10,64.5 Z" id="Stroke-21" stroke="#2E334E" stroke-width="4"></path>
                    <path d="M24,64.5 L28,64.5 L24,64.5 Z" id="Stroke-22" stroke="#2E334E" stroke-width="4"></path>
                    <path d="M37,64.5 L41,64.5 L37,64.5 Z" id="Stroke-23" stroke="#2E334E" stroke-width="4"></path>
                    <path d="M50,64.5 L54,64.5 L50,64.5 Z" id="Stroke-24" stroke="#2E334E" stroke-width="4"></path>
                    <path d="M64,64.5 L68,64.5 L64,64.5 Z" id="Stroke-25" stroke="#2E334E" stroke-width="4"></path>
                </g>
            </g>
        </g>
    </g>
</svg>