<?xml version="1.0" encoding="UTF-8"?>
<svg width="51px" height="62px" viewBox="0 0 51 62" version="1.1" xmlns="http://www.w3.org/2000/svg" xmlns:xlink="http://www.w3.org/1999/xlink">
    <title>2E67FC75-CC31-42A8-8CA6-5FD14D8B2A09@3x</title>
    <g id="MVP" stroke="none" stroke-width="1" fill="none" fill-rule="evenodd">
        <g id="D---Who-We-Are-Landing-Page" transform="translate(-315.000000, -3682.000000)" stroke-width="2">
            <g id="Reports" transform="translate(0.000000, 3535.000000)">
                <g id="Slide-Icon-1" transform="translate(277.000000, 115.000000)">
                    <g id="Report-Icon-" transform="translate(39.000000, 33.000000)">
                        <path d="M39.4483765,59.6320235 L14.7615529,59.6320235 C14.0817882,59.6320235 13.4281412,59.3694353 12.9375529,58.8986118 L1.16555294,47.6164941 C0.646023529,47.1188471 0.353082353,46.4313176 0.353082353,45.7127294 L0.353082353,9.49108235 C0.353082353,8.2212 1.38225882,7.19131765 2.65284706,7.19131765 L39.4483765,7.19131765 C40.7182588,7.19131765 41.7481412,8.2212 41.7481412,9.49108235 L41.7481412,57.3322588 C41.7481412,58.6028471 40.7182588,59.6320235 39.4483765,59.6320235 Z" id="Stroke-1" stroke="#2D3C59"></path>
                        <path d="M0.352941176,46.8040941 L10.1788235,46.8040941 C11.6110588,46.8040941 12.7729412,47.9652706 12.7729412,49.3975059 L12.7729412,58.8986824" id="Stroke-3" stroke="#2D3C59"></path>
                        <line x1="11" y1="17.3529412" x2="31.4705882" y2="17.3529412" id="Stroke-5" stroke="#7DD2D3" stroke-linecap="round" stroke-linejoin="round"></line>
                        <line x1="11" y1="41.3529412" x2="31.4705882" y2="41.3529412" id="Stroke-7" stroke="#7DD2D3" stroke-linecap="round" stroke-linejoin="round"></line>
                        <line x1="11" y1="33.3529412" x2="31.4705882" y2="33.3529412" id="Stroke-7-Copy" stroke="#7DD2D3" stroke-linecap="round" stroke-linejoin="round"></line>
                        <line x1="11" y1="25.3529412" x2="31.4705882" y2="25.3529412" id="Stroke-7-Copy-2" stroke="#7DD2D3" stroke-linecap="round" stroke-linejoin="round"></line>
                        <line x1="18" y1="49.3529412" x2="31.1392941" y2="49.3529412" id="Stroke-9" stroke="#7DD2D3" stroke-linecap="round" stroke-linejoin="round"></line>
                        <path d="M8.15244706,7.19131765 L8.15244706,2.89531765 C8.15244706,1.49131765 9.29032941,0.352729412 10.6943294,0.352729412 L46.3858588,0.352729412 C47.7898588,0.352729412 48.9277412,1.49131765 48.9277412,2.89531765 L48.9277412,49.3219059 C48.9277412,50.7259059 47.7898588,51.8637882 46.3858588,51.8637882 L41.7997412,51.8637882" id="Stroke-11" stroke="#2D3C59"></path>
                    </g>
                </g>
            </g>
        </g>
    </g>
</svg>