<?xml version="1.0" encoding="UTF-8"?>
<svg width="31px" height="37px" viewBox="0 0 31 37" version="1.1" xmlns="http://www.w3.org/2000/svg" xmlns:xlink="http://www.w3.org/1999/xlink">
    <title>5541DEB8-465A-44AF-A301-438EF0AF2541@3x</title>
    <g id="MVP" stroke="none" stroke-width="1" fill="none" fill-rule="evenodd">
        <g id="D---CLA-Foundation-Page" transform="translate(-492.000000, -1696.000000)" stroke="#858585" stroke-width="2">
            <g id="Foundation-Report" transform="translate(450.000000, 1528.000000)">
                <g id="Slides-Icon" transform="translate(43.000000, 169.000000)">
                    <path d="M23.0115529,34.7853471 L8.61090588,34.7853471 C8.21437647,34.7853471 7.83308235,34.6321706 7.54690588,34.3575235 L0.679905882,27.7762882 C0.376847059,27.4859941 0.205964706,27.0849353 0.205964706,26.6657588 L0.205964706,5.53646471 C0.205964706,4.7957 0.806317647,4.19493529 1.54749412,4.19493529 L23.0115529,4.19493529 C23.7523176,4.19493529 24.3530824,4.7957 24.3530824,5.53646471 L24.3530824,33.4438176 C24.3530824,34.1849941 23.7523176,34.7853471 23.0115529,34.7853471 Z" id="Stroke-1"></path>
                    <path d="M0.205882353,27.3023882 L5.93764706,27.3023882 C6.77311765,27.3023882 7.45088235,27.9797412 7.45088235,28.8152118 L7.45088235,34.3575647" id="Stroke-3"></path>
                    <line x1="6.30893529" y1="10.2262176" x2="18.2501118" y2="10.2262176" id="Stroke-5" stroke-linecap="round" stroke-linejoin="round"></line>
                    <line x1="6.30893529" y1="15.9907176" x2="18.2501118" y2="15.9907176" id="Stroke-7" stroke-linecap="round" stroke-linejoin="round"></line>
                    <line x1="10.5854412" y1="21.7554235" x2="18.2500294" y2="21.7554235" id="Stroke-9" stroke-linecap="round" stroke-linejoin="round"></line>
                    <path d="M4.75559412,4.19493529 L4.75559412,1.68893529 C4.75559412,0.869935294 5.41935882,0.205758824 6.23835882,0.205758824 L27.0584176,0.205758824 C27.8774176,0.205758824 28.5411824,0.869935294 28.5411824,1.68893529 L28.5411824,28.7711118 C28.5411824,29.5901118 27.8774176,30.2538765 27.0584176,30.2538765 L24.3831824,30.2538765" id="Stroke-11"></path>
                </g>
            </g>
        </g>
    </g>
</svg>