<?xml version="1.0" encoding="UTF-8"?>
<svg width="63px" height="60px" viewBox="0 0 63 60" version="1.1" xmlns="http://www.w3.org/2000/svg" xmlns:xlink="http://www.w3.org/1999/xlink">
    <title>Audit</title>
    <defs>
        <polygon id="path-1" points="0 0 40.4414805 0 40.4414805 58.9249067 0 58.9249067"></polygon>
        <polygon id="path-3" points="0 0 5.68451654 0 5.68451654 5.69796533 0 5.69796533"></polygon>
    </defs>
    <g id="Updated-Homepage-Module" stroke="none" stroke-width="1" fill="none" fill-rule="evenodd">
        <g id="Component" transform="translate(-700.000000, -86.000000)">
            <g id="Service-Squares/Active-Copy" transform="translate(34.000000, 33.000000)">
                <g id="Audit-Copy-3" transform="translate(570.000000, 0.000000)">
                    <g id="Audit" transform="translate(96.000000, 53.000000)">
                        <polygon id="Fill-1" fill="#2E334E" points="10 10 1 10 1 7.07554833 7.07507312 7.07554833 7.07507312 1 10 1"></polygon>
                        <polygon id="Fill-2" fill="#2E334E" points="7 23 20 23 20 20 7 20"></polygon>
                        <polygon id="Fill-3" fill="#2E334E" points="11 17 26 17 26 14 11 14"></polygon>
                        <polygon id="Fill-4" fill="#2E334E" points="8 28 18 28 18 25 8 25"></polygon>
                        <polygon id="Fill-5" fill="#2E334E" points="8 39 18 39 18 36 8 36"></polygon>
                        <polygon id="Fill-6" fill="#2E334E" points="9 45 22 45 22 42 9 42"></polygon>
                        <polygon id="Fill-7" fill="#2E334E" points="8 52 28 52 28 49 8 49"></polygon>
                        <polygon id="Fill-8" fill="#2E334E" points="8 34 18 34 18 31 8 31"></polygon>
                        <g id="Group-23" transform="translate(-0.000000, 0.000000)">
                            <g id="Group-11">
                                <mask id="mask-2" fill="white">
                                    <use xlink:href="#path-1"></use>
                                </mask>
                                <g id="Clip-10"></g>
                                <path d="M36.6316246,58.9249067 L3.80926816,58.9249067 C1.70819068,58.9249067 -0.000587713979,57.2200614 -0.000587713979,55.1238199 L-0.000587713979,7.09497098 L7.11515929,0 L36.6316246,0 C38.7327021,0 40.4414805,1.7048453 40.4414805,3.80108672 L40.4414805,13.0758556 L37.5029106,13.0758556 L37.5029106,3.80108672 C37.5029106,3.32173641 37.1120808,2.93180619 36.6316246,2.93180619 L8.33172723,2.93180619 L2.93798218,8.30873874 L2.93798218,55.1238199 C2.93798218,55.6031703 3.32881198,55.9931005 3.80926816,55.9931005 L36.6316246,55.9931005 C37.1120808,55.9931005 37.5029106,55.6031703 37.5029106,55.1238199 L37.5029106,50.7334402 L40.4414805,50.7334402 L40.4414805,55.1238199 C40.4414805,57.2200614 38.7327021,58.9249067 36.6316246,58.9249067" id="Fill-9" fill="#2E334E" mask="url(#mask-2)"></path>
                            </g>
                            <path d="M26.38968,23.3667885 C21.6527054,28.094326 21.6527054,35.7829877 26.38968,40.5075934 C31.1251854,45.2321991 38.8330542,45.2321991 43.5700289,40.5075934 C48.3070036,35.7829877 48.3070036,28.094326 43.5700289,23.3667885 C38.831585,18.6407169 31.1266547,18.6407169 26.38968,23.3667885 M34.9805891,46.9810214 C31.1163697,46.9810214 27.2536196,45.5151183 24.3121111,42.5803804 C18.4305635,36.7123703 18.4305635,27.1634775 24.3121111,21.2940015 C30.1936588,15.4259914 39.7645809,15.4230596 45.6475978,21.2940015 C51.5291455,27.1634775 51.5291455,36.7123703 45.6475978,42.5803804 C42.7060894,45.5136524 38.8433392,46.9810214 34.9805891,46.9810214" id="Fill-12" fill="#2E334E"></path>
                            <path d="M47.7029805,47.5527236 L55.7458464,55.7090085 L58.5756892,52.8387702 L50.5342926,44.6824854 L47.7029805,47.5527236 Z M55.7458464,59.8897641 L43.5816363,47.5527236 L50.5342926,40.5017298 L62.6970334,52.8387702 L55.7458464,59.8897641 Z" id="Fill-14" fill="#2E334E"></path>
                            <polygon id="Fill-16" fill="#2E334E" points="46.9496782 46.0081016 43.5615071 42.5720247 45.6567074 40.5168286 49.0448785 43.9529054"></polygon>
                            <g id="Group-20" transform="translate(57.315483, 54.302035)">
                                <mask id="mask-4" fill="white">
                                    <use xlink:href="#path-3"></use>
                                </mask>
                                <g id="Clip-19"></g>
                                <polygon id="Fill-18" fill="#2E334E" mask="url(#mask-4)" points="3.58946313 5.69796533 0 2.05666204 2.09373105 0 5.68466346 3.64276919"></polygon>
                            </g>
                            <polygon id="Fill-21" fill="#7DD2D3" points="31.2280354 38.8017219 26.0399902 33.6241522 28.1175591 31.5513652 31.2280354 34.656148 40.8107118 25.0940621 42.88975 27.1668491"></polygon>
                        </g>
                    </g>
                </g>
            </g>
        </g>
    </g>
</svg>