<?xml version="1.0" encoding="UTF-8"?>
<svg width="24px" height="24px" viewBox="0 0 24 24" version="1.1" xmlns="http://www.w3.org/2000/svg" xmlns:xlink="http://www.w3.org/1999/xlink">
    <title>A2F90E3B-4BEA-426D-ADAF-D7A6C6626BC3@3x</title>
    <g id="MVP" stroke="none" stroke-width="1" fill="none" fill-rule="evenodd">
        <g id="D---Homepage-with-Banner" transform="translate(-1251.000000, -122.000000)" fill="currentColor">
            <g id="Top-Bar" transform="translate(0.000000, 54.000000)">
                <path d="M1274.6,89.6666667 L1268.36667,83.4333333 C1268.3,83.3666667 1268.26667,83.3333333 1268.2,83.3 C1271.03333,79.5666667 1270.73333,74.2 1267.33333,70.8 C1263.6,67.0666667 1257.53333,67.0666667 1253.8,70.8 C1250.06667,74.5333333 1250.06667,80.6 1253.8,84.3333333 C1257.2,87.7333333 1262.56667,88.0333333 1266.3,85.2 C1266.33333,85.2666667 1266.4,85.3333333 1266.43333,85.3666667 L1272.66667,91.6 C1273.2,92.1333333 1274.06667,92.1333333 1274.6,91.6 C1275.13333,91.0666667 1275.13333,90.2 1274.6,89.6666667 Z M1255.6,82.5333333 C1252.86667,79.8 1252.86667,75.3333333 1255.6,72.6 C1258.33333,69.8666667 1262.8,69.8666667 1265.53333,72.6 C1268.26667,75.3333333 1268.26667,79.8 1265.53333,82.5333333 C1262.8,85.2666667 1258.33333,85.3 1255.6,82.5333333 Z" id="Magnifying-Glass-Copy"></path>
            </g>
        </g>
    </g>
</svg>
