<?xml version="1.0" encoding="UTF-8"?>
<svg width="28px" height="28px" viewBox="0 0 28 28" version="1.1" xmlns="http://www.w3.org/2000/svg" xmlns:xlink="http://www.w3.org/1999/xlink">
    <title>33F8077C-45E1-4BA4-8770-D7B9AEEF1D0A@3x</title>
    <g id="MVP" stroke="none" stroke-width="1" fill="none" fill-rule="evenodd">
        <g id="D---industry-Detail-Page---Dairy-Producer" transform="translate(-165.000000, -689.000000)">
            <g id="Share-Icon-Copy-2" transform="translate(165.000000, 689.000000)">
                <path d="M8.52438788,13.595697 C8.52438788,15.9493939 6.61614545,17.8576364 4.26244848,17.8576364 C1.90790303,17.8576364 -0.000339393939,15.9493939 -0.000339393939,13.595697 C-0.000339393939,11.242 1.90790303,9.33375758 4.26244848,9.33375758 C6.61614545,9.33375758 8.52438788,11.242 8.52438788,13.595697" id="Fill-1" fill="currentColor"></path>
                <path d="M27.1911394,4.26236364 C27.1911394,6.61606061 25.282897,8.52430303 22.9292,8.52430303 C20.5746545,8.52430303 18.6664121,6.61606061 18.6664121,4.26236364 C18.6664121,1.90866667 20.5746545,0.000424242424 22.9292,0.000424242424 C25.282897,0.000424242424 27.1911394,1.90866667 27.1911394,4.26236364" id="Fill-4" fill="currentColor"></path>
                <path d="M27.1911394,22.9290303 C27.1911394,25.2827273 25.282897,27.1909697 22.9292,27.1909697 C20.5746545,27.1909697 18.6664121,25.2827273 18.6664121,22.9290303 C18.6664121,20.5753333 20.5746545,18.6670909 22.9292,18.6670909 C25.282897,18.6670909 27.1911394,20.5753333 27.1911394,22.9290303" id="Fill-6" fill="currentColor"></path>
                <polyline id="Stroke-8" stroke="currentColor" stroke-width="2" points="22.9287758 4.26236364 4.26210909 13.595697 22.9287758 22.9290303"></polyline>
            </g>
        </g>
    </g>
</svg>