<?xml version="1.0" encoding="utf-8"?>
<!-- Generator: Adobe Illustrator 26.0.2, SVG Export Plug-In . SVG Version: 6.00 Build 0)  -->
<svg version="1.1" id="Layer_1" xmlns="http://www.w3.org/2000/svg" xmlns:xlink="http://www.w3.org/1999/xlink" x="0px" y="0px"
	 viewBox="0 0 53.2 42.4" style="enable-background:new 0 0 53.2 42.4;" xml:space="preserve">
<g>
	<rect x="1.9" y="28.7" class="st0" fill="#7DD2D3" width="48.7" height="4.6"/>
	<rect x="9" y="9.6" class="st0" fill="#7DD2D3" width="3.8" height="3.8"/>
	<rect x="8.6" y="18.4" class="st0" fill="#7DD2D3" width="4.2" height="4.2"/>
	<rect x="29.7" y="18.4" class="st0" fill="#7DD2D3" width="4.2" height="4.2"/>
	<path class="st1" fill="#2E334E" d="M48.6,35.4h-44c-2.1,0-3.8-1.7-3.8-3.8V5.1c0-2.1,1.7-3.8,3.8-3.8h44c2.1,0,3.8,1.7,3.8,3.8v26.4
		C52.4,33.7,50.7,35.4,48.6,35.4z M4.6,3.5c-0.9,0-1.7,0.8-1.7,1.7v26.4c0,0.9,0.8,1.7,1.7,1.7h44c0.9,0,1.7-0.8,1.7-1.7V5.1
		c0-0.9-0.8-1.7-1.7-1.7H4.6z"/>
	<rect x="1.9" y="27.6" class="st1" fill="#2E334E" width="49.5" height="2.1"/>
	<g>
		<rect x="14.1" y="39" class="st1" fill="#2E334E" width="25" height="2.1"/>
		<g>
			<rect x="19.3" y="34.3" class="st1" fill="#2E334E" width="2.1" height="5.7"/>
			<rect x="31.7" y="34.3" class="st1" fill="#2E334E" width="2.1" height="5.7"/>
		</g>
	</g>
	<path class="st1" fill="#2E334E" d="M14,14.6H7.5V8H14V14.6z M9.6,12.5h2.3v-2.3H9.6V12.5z"/>
	<rect x="16.3" y="8" class="st1" fill="#2E334E" width="8.9" height="2.1"/>
	<rect x="16.3" y="12.5" class="st1" fill="#2E334E" width="8.9" height="2.1"/>
	<path class="st1" fill="#2E334E" d="M14,23.5H7.5v-6.6H14V23.5z M9.6,21.4h2.3V19H9.6V21.4z"/>
	<rect x="16.3" y="16.9" class="st1" fill="#2E334E" width="8.9" height="2.1"/>
	<rect x="16.3" y="21.4" class="st1" fill="#2E334E" width="8.9" height="2.1"/>
	<polygon class="st1" fill="#2E334E" points="31.2,14.7 28.4,11.9 29.9,10.4 31.2,11.7 34.4,8.6 35.9,10.1 	"/>
	<rect x="37.5" y="8" class="st1" fill="#2E334E" width="8.9" height="2.1"/>
	<rect x="37.5" y="12.5" class="st1" fill="#2E334E" width="8.9" height="2.1"/>
	<path class="st1" fill="#2E334E" d="M35.2,23.5h-6.6v-6.6h6.6V23.5z M30.7,21.4h2.3V19h-2.3V21.4z"/>
	<rect x="37.5" y="16.9" class="st1" fill="#2E334E" width="8.9" height="2.1"/>
	<rect x="37.5" y="21.4" class="st1" fill="#2E334E" width="8.9" height="2.1"/>
</g>
</svg>
