<?xml version="1.0" encoding="UTF-8"?>
<svg width="62px" height="60px" viewBox="0 0 62 60" version="1.1" xmlns="http://www.w3.org/2000/svg" xmlns:xlink="http://www.w3.org/1999/xlink">
    <title>tax</title>
    <defs>
        <polygon id="path-1" points="0 0 20.0394076 0 20.0394076 45.547528 0 45.547528"></polygon>
        <polygon id="path-3" points="0 60 62 60 62 0 0 0"></polygon>
    </defs>
    <g id="Updated-Homepage-Module" stroke="none" stroke-width="1" fill="none" fill-rule="evenodd">
        <g id="Component" transform="translate(-985.000000, -85.000000)">
            <g id="Service-Squares/Active-Copy" transform="translate(34.000000, 33.000000)">
                <g id="Tax-Copy-3" transform="translate(855.000000, 0.000000)">
                    <g id="tax" transform="translate(96.000000, 52.000000)">
                        <polygon id="Fill-1" fill="#7DD2D3" points="15 16 26 16 26 11 15 11"></polygon>
                        <g id="Group-35" transform="translate(-0.000000, 0.000000)">
                            <path d="M38.572669,36.9022524 C37.8370121,27.5539028 33.172278,20.3177504 25.7725162,17.0495821 L26.8829682,14.4514804 C35.13403,18.0964726 40.5413874,26.4035982 41.3508888,36.6755914 L38.572669,36.9022524 Z" id="Fill-2" fill="#2E334E"></path>
                            <g id="Group-6" transform="translate(0.000000, 14.452472)">
                                <mask id="mask-2" fill="white">
                                    <use xlink:href="#path-1"></use>
                                </mask>
                                <g id="Clip-5"></g>
                                <path d="M20.0394076,45.547528 C0.930438886,45.547528 -0.000278657947,38.1116305 -0.000278657947,24.9695424 C-0.000278657947,13.3644992 5.44748421,4.03031591 14.573532,0 L15.6839839,2.59810171 C7.60847659,6.1651792 2.78630082,14.5289701 2.78630082,24.9695424 C2.78630082,36.7828304 2.78630082,42.7142655 20.0394076,42.7142655 L20.0394076,45.547528 Z" id="Fill-4" fill="#2E334E" mask="url(#mask-2)"></path>
                            </g>
                            <mask id="mask-4" fill="white">
                                <use xlink:href="#path-3"></use>
                            </mask>
                            <g id="Clip-8"></g>
                            <path d="M16.5216297,14.3348916 L24.9343131,14.3348916 L24.9343131,12.028616 L16.5216297,12.028616 L16.5216297,14.3348916 Z M13.7350502,17.1681541 L27.7208926,17.1681541 L27.7208926,9.19535345 L13.7350502,9.19535345 L13.7350502,17.1681541 Z" id="Fill-7" fill="#2E334E" mask="url(#mask-4)"></path>
                            <path d="M16.1370817,9.19492846 L25.3202544,9.19492846 L27.1078451,3.66298343 C27.2402076,3.25641026 27.0270343,2.87250319 26.9253242,2.83142088 C26.4557855,2.83283751 26.1200027,2.93908486 26.0071462,3.01133305 C25.3007483,3.46323842 24.4160093,3.46465505 23.702645,3.00991642 C23.5925751,2.93908486 23.255399,2.83283751 22.7914335,2.83283751 C22.327468,2.83283751 21.9916852,2.93908486 21.8788287,3.01133305 C21.1710376,3.46182179 20.2876919,3.46182179 19.5785074,3.01133305 C19.4976966,2.96033432 19.1842064,2.83283751 18.6645093,2.83283751 C18.2005438,2.83283751 17.864761,2.93908486 17.7519045,3.01133305 C17.0455066,3.46323842 16.1621609,3.46465505 15.4474033,3.00991642 C15.3373334,2.93908486 15.0015506,2.83283751 14.5375851,2.83283751 C14.4289085,2.87250319 14.2171285,3.25641026 14.349491,3.66298343 L16.1370817,9.19492846 Z M27.3363446,12.028191 L14.1209915,12.028191 L11.7008472,4.54837796 C11.3469516,3.453322 11.5280793,2.20101997 12.1731724,1.2773764 C12.7318816,0.481229636 13.5720353,0.0151579544 14.4804602,-0.000424989375 L14.4818535,-0.000424989375 C15.2983213,-0.000424989375 16.0242253,0.149737923 16.6010472,0.42881428 C17.7519045,-0.127921802 19.5799007,-0.126505171 20.7279714,0.427397648 C21.8816153,-0.126505171 23.7054316,-0.127921802 24.8562889,0.42881428 C25.4331109,0.149737923 26.1506551,-0.000424989375 26.919751,-0.000424989375 C27.8853008,0.0151579544 28.7254545,0.481229636 29.2841637,1.2773764 C29.9278635,2.20101997 30.1089912,3.453322 29.7550956,4.54837796 L27.3363446,12.028191 Z" id="Fill-9" fill="#2E334E" mask="url(#mask-4)"></path>
                            <path d="M20.7279714,40.6707749 C17.5582373,40.6707749 14.9778647,38.372999 14.9778647,35.5482363 L17.7644441,35.5482363 C17.7644441,36.7892053 19.1215083,37.8375124 20.7279714,37.8375124 C22.3344345,37.8375124 23.692892,36.7892053 23.692892,35.5482363 C23.692892,34.1372716 22.5559675,33.2603768 20.7279714,33.2603768 C16.7557024,33.2603768 14.9778647,30.6863578 14.9778647,28.1364216 C14.9778647,25.3116589 17.5582373,23.013883 20.7279714,23.013883 C23.8990989,23.013883 26.4794714,25.3116589 26.4794714,28.1364216 L23.692892,28.1364216 C23.692892,26.8954526 22.3344345,25.8471455 20.7279714,25.8471455 C19.1215083,25.8471455 17.7644441,26.8954526 17.7644441,28.1364216 C17.7644441,29.5927185 18.8442437,30.4271143 20.7279714,30.4271143 C24.1150588,30.4271143 26.4794714,32.5322284 26.4794714,35.5482363 C26.4794714,38.372999 23.8990989,40.6707749 20.7279714,40.6707749" id="Fill-10" fill="#7DD2D3" mask="url(#mask-4)"></path>
                            <polygon id="Fill-11" fill="#7DD2D3" mask="url(#mask-4)" points="19.3346817 23.7016575 22.1212612 23.7016575 22.1212612 21.1545545 19.3346817 21.1545545"></polygon>
                            <polygon id="Fill-12" fill="#7DD2D3" mask="url(#mask-4)" points="19.3346817 42.5301034 22.1212612 42.5301034 22.1212612 39.9844171 19.3346817 39.9844171"></polygon>
                            <polygon id="Fill-13" fill="#2E334E" mask="url(#mask-4)" points="23.4323468 60 34.4518753 60 34.4518753 57.1667375 23.4323468 57.1667375"></polygon>
                            <polygon id="Fill-14" fill="#2E334E" mask="url(#mask-4)" points="37.2064091 60 48.2259377 60 48.2259377 57.1667375 37.2064091 57.1667375"></polygon>
                            <polygon id="Fill-15" fill="#2E334E" mask="url(#mask-4)" points="50.9804715 60 62 60 62 57.1667375 50.9804715 57.1667375"></polygon>
                            <polygon id="Fill-16" fill="#2E334E" mask="url(#mask-4)" points="23.4323468 54.39864 34.4518753 54.39864 34.4518753 51.5653775 23.4323468 51.5653775"></polygon>
                            <polygon id="Fill-17" fill="#2E334E" mask="url(#mask-4)" points="37.2064091 54.39864 48.2259377 54.39864 48.2259377 51.5653775 37.2064091 51.5653775"></polygon>
                            <polygon id="Fill-18" fill="#2E334E" mask="url(#mask-4)" points="50.9804715 54.39864 62 54.39864 62 51.5653775 50.9804715 51.5653775"></polygon>
                            <polygon id="Fill-19" fill="#2E334E" mask="url(#mask-4)" points="23.4323468 48.7958634 34.4518753 48.7958634 34.4518753 45.9626009 23.4323468 45.9626009"></polygon>
                            <polygon id="Fill-20" fill="#2E334E" mask="url(#mask-4)" points="37.2064091 48.7958634 48.2259377 48.7958634 48.2259377 45.9626009 37.2064091 45.9626009"></polygon>
                            <polygon id="Fill-21" fill="#2E334E" mask="url(#mask-4)" points="50.9804715 48.7958634 62 48.7958634 62 45.9626009 50.9804715 45.9626009"></polygon>
                            <polygon id="Fill-22" fill="#2E334E" mask="url(#mask-4)" points="37.2064091 43.1945035 48.2259377 43.1945035 48.2259377 40.361241 37.2064091 40.361241"></polygon>
                            <polygon id="Fill-23" fill="#2E334E" mask="url(#mask-4)" points="50.9804715 43.1945035 62 43.1945035 62 40.361241 50.9804715 40.361241"></polygon>
                            <polygon id="Fill-24" fill="#2E334E" mask="url(#mask-4)" points="23.4323468 60 34.4518753 60 34.4518753 57.1667375 23.4323468 57.1667375"></polygon>
                            <polygon id="Fill-25" fill="#2E334E" mask="url(#mask-4)" points="37.2064091 60 48.2259377 60 48.2259377 57.1667375 37.2064091 57.1667375"></polygon>
                            <polygon id="Fill-26" fill="#2E334E" mask="url(#mask-4)" points="50.9804715 60 62 60 62 57.1667375 50.9804715 57.1667375"></polygon>
                            <polygon id="Fill-27" fill="#2E334E" mask="url(#mask-4)" points="23.4323468 54.39864 34.4518753 54.39864 34.4518753 51.5653775 23.4323468 51.5653775"></polygon>
                            <polygon id="Fill-28" fill="#2E334E" mask="url(#mask-4)" points="37.2064091 54.39864 48.2259377 54.39864 48.2259377 51.5653775 37.2064091 51.5653775"></polygon>
                            <polygon id="Fill-29" fill="#2E334E" mask="url(#mask-4)" points="50.9804715 54.39864 62 54.39864 62 51.5653775 50.9804715 51.5653775"></polygon>
                            <polygon id="Fill-30" fill="#2E334E" mask="url(#mask-4)" points="23.4323468 48.7958634 34.4518753 48.7958634 34.4518753 45.9626009 23.4323468 45.9626009"></polygon>
                            <polygon id="Fill-31" fill="#2E334E" mask="url(#mask-4)" points="37.2064091 48.7958634 48.2259377 48.7958634 48.2259377 45.9626009 37.2064091 45.9626009"></polygon>
                            <polygon id="Fill-32" fill="#2E334E" mask="url(#mask-4)" points="50.9804715 48.7958634 62 48.7958634 62 45.9626009 50.9804715 45.9626009"></polygon>
                            <polygon id="Fill-33" fill="#2E334E" mask="url(#mask-4)" points="50.9804715 37.5917269 62 37.5917269 62 34.7584644 50.9804715 34.7584644"></polygon>
                            <polygon id="Fill-34" fill="#2E334E" mask="url(#mask-4)" points="50.9804715 31.9903669 62 31.9903669 62 29.1571044 50.9804715 29.1571044"></polygon>
                        </g>
                    </g>
                </g>
            </g>
        </g>
    </g>
</svg>