<?xml version="1.0" encoding="UTF-8"?>
<svg width="28px" height="28px" viewBox="0 0 28 28" version="1.1" xmlns="http://www.w3.org/2000/svg" xmlns:xlink="http://www.w3.org/1999/xlink">
    <title>20FB7B39-E8E9-4384-8C94-EF1CFB2D645A@3x</title>
    <g id="MVP" stroke="none" stroke-width="1" fill="none" fill-rule="evenodd">
        <g id="D---industry-Detail-Page---Dairy-Producer" transform="translate(-225.000000, -722.000000)" fill="currentColor" fill-rule="nonzero">
            <g id="Left-Rail" transform="translate(165.000000, 689.000000)">
                <g id="Share-popout" transform="translate(0.000000, 25.000000)">
                    <g id="twitter-logo-on-black-background-copy" transform="translate(60.000000, 8.000000)">
                        <path d="M25.2,0.388888889 L2.8,0.388888889 C1.26,0.388888889 0,1.61388889 0,3.11111111 L0,24.8888889 C0,26.3861111 1.26,27.6111111 2.8,27.6111111 L25.2,27.6111111 C26.74,27.6111111 28,26.3861111 28,24.8888889 L28,3.11111111 C28,1.61388889 26.74,0.388888889 25.2,0.388888889 Z M21.98,10.325 C21.84,16.5861111 17.78,20.9416667 11.62,21.2138889 C9.1,21.35 7.28,20.5333333 5.6,19.5805556 C7.42,19.8528312 9.8,19.1722756 11.06,18.0833333 C9.24,17.9472222 8.12,16.9944444 7.56,15.4972222 C8.12,15.6333333 8.68,15.4972222 9.1,15.4972222 C7.42,14.9527778 6.3,14 6.16,11.8222222 C6.58,12.0944444 7.14,12.2305556 7.7,12.2305556 C6.44,11.55 5.6,8.96388889 6.58,7.33055556 C8.4,9.23611111 10.64,10.8694444 14.28,11.1416667 C13.3,7.33055556 18.6200549,5.28888889 20.7200549,7.875 C21.7000549,7.73888889 22.4000549,7.33055556 23.1000549,7.05833333 C22.8200549,8.01111111 22.2600549,8.55555556 21.5600549,9.1 C22.2600549,8.96388889 22.9600549,8.82777778 23.5200549,8.55555556 C23.38,9.23611111 22.68,9.78055556 21.98,10.325 Z" id="Shape"></path>
                    </g>
                </g>
            </g>
        </g>
    </g>
</svg>