<?xml version="1.0" encoding="UTF-8"?>
<svg width="100px" height="100px" viewBox="0 0 100 100" version="1.1" xmlns="http://www.w3.org/2000/svg" xmlns:xlink="http://www.w3.org/1999/xlink">
    <title>4AD5BCE5-DA97-4C6B-90DD-004C284F9360@3x</title>
    <defs>
        <polygon id="path-1" points="0 0.000294117647 99.4790441 0.000294117647 99.4790441 99.4855882 0 99.4855882"></polygon>
    </defs>
    <g id="MVP" stroke="none" stroke-width="1" fill="none" fill-rule="evenodd" opacity="0.796851749">
        <g id="D---Homepage-with-Banner" transform="translate(-955.000000, -1093.000000)">
            <g id="CLA-Promise" transform="translate(165.000000, 977.000000)">
                <g id="Video" transform="translate(570.000000, 0.000000)">
                    <g id="Play" transform="translate(220.000000, 116.000000)">
                        <mask id="mask-2" fill="currentColor">
                            <use xlink:href="#path-1"></use>
                        </mask>
                        <g id="Clip-2"></g>
                        <path d="M50.4661765,0.00514705882 C37.0235294,-0.1875 24.0735294,5.06838235 14.5661765,14.5727941 C-4.85588235,33.9977941 -4.85588235,65.4919118 14.5661765,84.9169118 C33.9911765,104.341912 65.4852941,104.341912 84.9102941,84.9169118 C104.335294,65.4919118 104.335294,33.9977941 84.9102941,14.5727941 C75.7558824,5.42279412 63.4029412,0.197794118 50.4661765,0.00514705882 M35.8985294,31.1036765 C36.7176471,30.9889706 37.6676471,31.6242647 38.5558824,32.0889706 L69.3235294,48.0389706 C70.5132353,48.6507353 70.5279412,50.8742647 69.3235294,51.4625 L38.5544118,67.4080882 C37.3544118,67.9963235 36.0808824,68.9477941 35.1308824,67.9963235 L35.1308824,31.5022059 C35.3691176,31.2639706 35.6308824,31.1404412 35.8985294,31.1036765" id="Fill-1" fill="currentColor" mask="url(#mask-2)"></path>
                    </g>
                </g>
            </g>
        </g>
    </g>
</svg>