<?xml version="1.0" encoding="UTF-8"?>
<svg width="59px" height="76px" viewBox="0 0 59 76" version="1.1" xmlns="http://www.w3.org/2000/svg" xmlns:xlink="http://www.w3.org/1999/xlink">
    <title>Volunteer Time</title>
    <defs>
        <polygon id="path-1" points="0 0 59 0 59 45 0 45"></polygon>
    </defs>
    <g id="Careers" stroke="none" stroke-width="1" fill="none" fill-rule="evenodd">
        <g id="D---CLA-Benefits-Copy-3" transform="translate(-426.000000, -3433.000000)">
            <g id="Group-48" transform="translate(226.000000, 3073.062500)">
                <g id="Group-37" transform="translate(0.000000, 305.000000)">
                    <g id="Group-12" transform="translate(31.000000, 55.000000)">
                        <g id="Volunteer-Time" transform="translate(169.000000, 0.000000)">
                            <g id="Group-3" transform="translate(0.000000, 30.000000)">
                                <mask id="mask-2" fill="white">
                                    <use xlink:href="#path-1"></use>
                                </mask>
                                <g id="Clip-2"></g>
                                <path d="M55.5341137,24.3703627 L56.0963435,24.5270025 L57.1794891,24.5071975 L55.5341137,24.3703627 Z M36.8907173,45 C36.2710071,45 35.6477044,44.9747936 35.0172167,44.9225803 C28.5704348,44.3950464 22.6822901,41.0714026 18.8598459,35.8086666 L18.6892011,35.581809 C18.1790629,34.8616262 2.81563965,11.7851677 1.06608111,9.15650035 C0.351169092,8.15544621 -0.000898130671,6.99055048 -0.000898130671,5.8274552 C0.00089813067,4.31327079 0.597256896,2.80088684 1.76303051,1.65759659 C4.00476466,-0.542561969 7.59189856,-0.547963341 9.84261402,1.61438562 L18.9927693,7.96099684 L18.9963618,3.21679242 L22.5888845,3.22039334 L22.5799032,14.8297406 L7.4086799,4.26645891 C6.55186324,3.39143676 5.14898313,3.37703311 4.27420386,4.23044976 C3.83771235,4.66075901 3.61317969,5.24050619 3.61317969,5.82385428 C3.61317969,6.27396856 3.74610303,6.72588328 4.02093101,7.10938064 C8.79000487,14.2697985 21.1806156,32.8775224 21.6548286,33.5472925 L21.719494,33.6301135 C24.970727,38.1042494 29.9068532,40.8913569 35.3100073,41.3342694 C45.4624764,42.1732824 54.264157,34.8562248 55.3419138,24.6908441 L55.4065792,24.35956 L55.3886166,24.3577595 L55.4137642,24.1615097 L55.0365494,3.25100111 L58.629072,3.18798511 L59.0008981,24.2803399 L58.9613804,24.7286537 C58.9577879,24.8096742 58.9506028,24.9068989 58.938029,25.0059241 L58.9021038,25.2003734 C57.6249619,36.6278746 48.1550722,45 36.8907173,45 L36.8907173,45 Z" id="Fill-1" fill="#2E334E" mask="url(#mask-2)"></path>
                            </g>
                            <path d="M30.0748787,52.6450498 C32.1746969,54.7815929 35.6577571,58.1895423 37.5008913,59.985109 C39.3422429,58.1895423 42.8253031,54.7815929 44.9269038,52.6450498 C45.9001642,51.6529539 46.4384877,50.403312 46.4349403,49.1282782 C46.4331402,47.9403022 45.9661178,46.8121785 45.1158518,45.9542966 C43.3636266,44.1804943 40.5097989,44.182308 38.7611387,45.9633651 L37.5008913,47.24384 L36.2388613,45.9615514 C34.4884186,44.1804943 31.6363734,44.1786806 29.8841482,45.9542966 C29.0356648,46.8121785 28.5668598,47.9403022 28.5650729,49.1300919 C28.5632948,50.403312 29.0998358,51.6529539 30.0748787,52.6450498 L30.0748787,52.6450498 Z M37.5008913,65 L36.2709468,63.8065829 C36.2121234,63.7521718 30.5258583,58.2348849 27.5526013,55.209627 L27.5526013,55.209627 C25.9037627,53.5301373 24.9964558,51.3682024 25.0000104,49.1246508 C25.0035859,46.9645296 25.8449392,44.9259266 27.3690009,43.3824646 C30.1212244,40.5966156 34.3796844,40.2556393 37.5008913,42.3504672 C40.6238807,40.2556393 44.8805581,40.5966156 47.6309991,43.3824646 C49.1550608,44.9241129 49.9964141,46.9627159 49.9999896,49.1228371 C50.0035442,51.3682024 49.0962373,53.5301373 47.4473987,55.209627 C44.4741417,58.2348849 38.7878766,63.7521718 38.7290532,63.8065829 L37.5008913,65 Z" id="Fill-4" fill="#2E334E"></path>
                            <path d="M22.7058153,34 L19,34 L19,12.3071488 C19,8.82895497 21.9164766,6 25.5,6 C29.0835234,6 32,8.82895497 32,12.3071488 L32,33.519815 L28.2941847,33.519815 L28.2941847,12.3071488 C28.2941847,10.8126405 27.0397662,9.59689126 25.5,9.59689126 C23.9583808,9.59689126 22.7058153,10.8126405 22.7058153,12.3071488 L22.7058153,34 Z" id="Fill-6" fill="#2E334E"></path>
                            <path d="M41,32 L37.2941847,32 L37.2941847,6.33568565 C37.2941847,4.8344154 36.0416192,3.61316547 34.5,3.61316547 C32.9602338,3.61316547 31.7058153,4.8344154 31.7058153,6.33568565 L31.7058153,17.3811325 L28,17.3811325 L28,6.33568565 C28,2.84175464 30.9164766,0 34.5,0 C38.0835234,0 41,2.84175464 41,6.33568565 L41,32 Z" id="Fill-8" fill="#2E334E"></path>
                            <path d="M50,33 L46.2941847,33 L46.2941847,9.22500887 C46.2941847,7.75038448 45.0416192,6.54903585 43.5,6.54903585 C41.9602338,6.54903585 40.7058153,7.75038448 40.7058153,9.22500887 L37,9.22500887 C37,5.79309121 39.9164766,3 43.5,3 C47.0835234,3 50,5.79309121 50,9.22500887 L50,33 Z" id="Fill-10" fill="#2E334E"></path>
                            <path d="M59,34 L55.2941847,34 L55.2941847,16.3391795 C55.2941847,14.836131 54.0397662,13.6130975 52.5,13.6130975 C50.9583808,13.6130975 49.7058153,14.836131 49.7058153,16.3391795 L46,16.3391795 C46,12.8435077 48.9164766,10 52.5,10 C56.0835234,10 59,12.8435077 59,16.3391795 L59,34 Z" id="Fill-12" fill="#2E334E"></path>
                            <path d="M29.6221873,52.3545727 C31.8783042,54.5800022 35.6206238,58.1297324 37.6009505,60 C39.5793621,58.1297324 43.3216816,54.5800022 45.5797138,52.3545727 C46.6254182,51.3212026 47.2038115,50.0195719 47.2,48.691493 C47.1980659,47.4540937 46.696281,46.2790367 45.782726,45.3854644 C43.9000749,43.5378667 40.8338244,43.5397558 38.9550037,45.3949102 L37.6009505,46.7286566 L36.2449821,45.393021 C34.3642463,43.5378667 31.2999109,43.5359775 29.4172599,45.3854644 C28.5056201,46.2790367 28.00192,47.4540937 28,48.6933822 C27.9980895,50.0195719 28.5745676,51.3212026 29.6221873,52.3545727" id="Fill-14" fill="#7DD2D3"></path>
                        </g>
                    </g>
                </g>
            </g>
        </g>
    </g>
</svg>