<?xml version="1.0" encoding="UTF-8"?>
<svg width="61px" height="66px" viewBox="0 0 61 66" version="1.1" xmlns="http://www.w3.org/2000/svg" xmlns:xlink="http://www.w3.org/1999/xlink">
    <title>Wealth Advisory</title>
    <defs>
        <polygon id="path-1" points="0 66 61 66 61 0 0 0"></polygon>
    </defs>
    <g id="Updated-Homepage-Module" stroke="none" stroke-width="1" fill="none" fill-rule="evenodd">
        <g id="Component" transform="translate(-131.000000, -81.000000)">
            <g id="Service-Squares/Active-Copy" transform="translate(34.000000, 33.000000)">
                <g id="Wealth-Advisory" transform="translate(97.000000, 48.000000)">
                    <polygon id="Fill-1" fill="#2E334E" points="0 66 12 66 12 63 0 63"></polygon>
                    <polygon id="Fill-2" fill="#2E334E" points="16 66 28 66 28 63 16 63"></polygon>
                    <polygon id="Fill-3" fill="#2E334E" points="0 59 12 59 12 56 0 56"></polygon>
                    <polygon id="Fill-4" fill="#2E334E" points="16 59 28 59 28 56 16 56"></polygon>
                    <polygon id="Fill-5" fill="#2E334E" points="0 54 12 54 12 51 0 51"></polygon>
                    <polygon id="Fill-6" fill="#2E334E" points="16 54 28 54 28 51 16 51"></polygon>
                    <polygon id="Fill-7" fill="#2E334E" points="0 47 12 47 12 44 0 44"></polygon>
                    <polygon id="Fill-8" fill="#2E334E" points="0 41 12 41 12 38 0 38"></polygon>
                    <polygon id="Fill-9" fill="#2E334E" points="0 35 12 35 12 32 0 32"></polygon>
                    <g id="Group-25">
                        <path d="M22.0869848,42.4383404 C20.509332,42.4383404 19.1742762,41.4463318 19.1742762,40.2703341 L16.0838691,40.2703341 C16.0838691,42.6882591 17.9829242,44.7075408 20.5417813,45.307039 L20.5417813,47.2435255 L23.6321884,47.2435255 L23.6321884,45.307039 C26.1910454,44.7075408 28.0916458,42.6882591 28.0916458,40.2703341 C28.0916458,37.1900479 25.6224105,35.037374 22.0869848,35.037374 C20.9991615,35.037374 19.1742762,34.7567904 19.1742762,32.8709009 C19.1742762,31.6964364 20.509332,30.7044278 22.0869848,30.7044278 C23.6661828,30.7044278 25.0012387,31.6964364 25.0012387,32.8709009 L28.0916458,32.8709009 C28.0916458,30.4545091 26.1910454,28.4336942 23.6321884,27.8357292 L23.6321884,25.8992427 L20.5417813,25.8992427 L20.5417813,27.8357292 C17.9829242,28.4336942 16.0838691,30.4545091 16.0838691,32.8709009 C16.0838691,35.4758816 17.9396585,38.103861 22.0869848,38.103861 C23.9118702,38.103861 25.0012387,38.9149468 25.0012387,40.2703341 C25.0012387,41.4463318 23.6661828,42.4383404 22.0869848,42.4383404" id="Fill-10" fill="#7DD2D3"></path>
                        <path d="M57.9089748,41.6179018 C54.3658231,40.9816057 51.5705499,38.206435 50.9292905,34.6907076 L57.9089748,34.6907076 L57.9089748,41.6179018 Z M50.9292905,62.8778562 C51.5705499,59.3621289 54.3658231,56.5869581 57.9089748,55.9506621 L57.9089748,62.8778562 L50.9292905,62.8778562 Z M31.5524381,31.6242206 L31.5524381,34.6907076 L47.8064341,34.6907076 C48.5002305,39.8991358 52.6599184,44.0281606 57.9089748,44.7165869 L57.9089748,52.851977 C52.6599184,53.5404033 48.5002305,57.6694281 47.8064341,62.8778562 L31.5524381,62.8778562 L31.5524381,65.9443433 L60.9993819,65.9443433 L60.9993819,31.6242206 L31.5524381,31.6242206 Z" id="Fill-12" fill="#2E334E"></path>
                        <path d="M31.5529017,56.1440041 L31.5529017,59.2104911 C37.3458697,59.2104911 42.0602857,54.5340984 42.0602857,48.7844353 C42.0602857,43.0363053 37.3458697,38.3583794 31.5529017,38.3583794 L31.5529017,41.4248664 C35.6415102,41.4248664 38.9698787,44.7274729 38.9698787,48.7844353 C38.9698787,52.8429308 35.6415102,56.1440041 31.5529017,56.1440041" id="Fill-14" fill="#2E334E"></path>
                        <mask id="mask-2" fill="white">
                            <use xlink:href="#path-1"></use>
                        </mask>
                        <g id="Clip-17"></g>
                        <polygon id="Fill-16" fill="#2E334E" mask="url(#mask-2)" points="46.773311 50.3179854 49.9286167 50.3179854 49.9286167 47.2514984 46.773311 47.2514984"></polygon>
                        <polygon id="Fill-18" fill="#2E334E" mask="url(#mask-2)" points="34.401948 26.3161316 34.401948 21.5876086 39.1673557 21.5876086 39.1673557 18.5211216 34.401948 18.5211216 34.401948 13.7925986 31.3115409 13.7925986 31.3115409 18.5211216 26.5461332 18.5211216 26.5461332 21.5876086 31.3115409 21.5876086 31.3115409 26.3161316"></polygon>
                        <polygon id="Fill-19" fill="#2E334E" mask="url(#mask-2)" points="51.3418598 21.0874646 51.3418598 24.1539516 54.5296147 24.1539516 54.5296147 27.3170329 57.6200218 27.3170329 57.6200218 24.1539516 60.8077767 24.1539516 60.8077767 21.0874646 57.6200218 21.0874646 57.6200218 17.9243832 54.5296147 17.9243832 54.5296147 21.0874646"></polygon>
                        <polygon id="Fill-20" fill="#2E334E" mask="url(#mask-2)" points="45.2273349 13.4827301 48.317742 13.4827301 48.317742 10.3196487 51.5039517 10.3196487 51.5039517 7.25316173 48.317742 7.25316173 48.317742 4.09008038 45.2273349 4.09008038 45.2273349 7.25316173 42.03958 7.25316173 42.03958 10.3196487 45.2273349 10.3196487"></polygon>
                        <polygon id="Fill-21" fill="#2E334E" mask="url(#mask-2)" points="19.5927173 9.39203643 22.6831244 9.39203643 22.6831244 6.22895507 25.8708792 6.22895507 25.8708792 3.16246806 22.6831244 3.16246806 22.6831244 -0.000613297403 19.5927173 -0.000613297403 19.5927173 3.16246806 16.4049624 3.16246806 16.4049624 6.22895507 19.5927173 6.22895507"></polygon>
                        <polygon id="Fill-22" fill="#2E334E" mask="url(#mask-2)" points="4.76540771 25.313697 7.85581478 25.313697 7.85581478 22.1506156 11.0435697 22.1506156 11.0435697 19.0841286 7.85581478 19.0841286 7.85581478 15.9210473 4.76540771 15.9210473 4.76540771 19.0841286 1.57765281 19.0841286 1.57765281 22.1506156 4.76540771 22.1506156"></polygon>
                        <path d="M57.9089748,41.6179018 C54.3658231,40.9816057 51.5705499,38.206435 50.9292905,34.6907076 L57.9089748,34.6907076 L57.9089748,41.6179018 Z" id="Fill-23" fill="#7DD2D3" mask="url(#mask-2)"></path>
                        <path d="M50.929445,62.8781629 C51.5707045,59.3624355 54.3659777,56.5857315 57.9091294,55.9494355 L57.9091294,62.8781629 L50.929445,62.8781629 Z" id="Fill-24" fill="#7DD2D3" mask="url(#mask-2)"></path>
                    </g>
                </g>
            </g>
        </g>
    </g>
</svg>