<?xml version="1.0" encoding="UTF-8"?>
<svg width="75px" height="87px" viewBox="0 0 75 87" version="1.1" xmlns="http://www.w3.org/2000/svg" xmlns:xlink="http://www.w3.org/1999/xlink">
    <title>WELLNESS AT CLA</title>
    <defs>
        <polygon id="path-1" points="0 0 9.3332892 0 9.3332892 12.2458974 0 12.2458974"></polygon>
    </defs>
    <g id="Careers" stroke="none" stroke-width="1" fill="none" fill-rule="evenodd">
        <g id="D---Careers-Landing-Page-Copy-2" transform="translate(-968.000000, -749.000000)">
            <g id="WELLNESS-AT-CLA" transform="translate(968.000000, 749.000000)">
                <polygon id="Fill-1" fill="#2E334E" points="0 60.493381 1.86604381 63.3248227 7.80485663 59.5214439 21.0075446 79.5608967 15.0687317 83.3625881 16.9347756 86.1940299 25.7462687 80.5530825 8.8114931 54.8507463"></polygon>
                <polygon id="Fill-2" fill="#2E334E" points="5.09260733 69.4029851 3.35820896 66.7176981 6.10142252 64.9253731 7.8358209 67.6106601"></polygon>
                <g id="Group-24" transform="translate(10.074627, 0.000000)">
                    <path d="M27.3871351,64.8373199 L27.2113512,61.4636828 L36.224881,60.9858353 C37.7198814,60.9098525 38.9101897,59.6654228 38.9369758,58.1592745 L38.9369758,58.1018653 C38.9369758,57.3285291 38.6406544,56.605848 38.0948871,56.0587718 C37.537401,55.4981874 36.8041309,55.1858136 36.0072438,55.2195837 L28.66115,55.3175172 C27.4139212,55.3377792 25.6845422,55.2128297 24.8022744,54.3854613 C21.3016631,51.211068 13.6341358,51.200937 9.38183905,55.9659039 L4.57875264,60.435382 L1.87335437,62.2792317 L0,59.479687 L2.59825378,57.7084431 L6.99954837,53.598617 C12.4388052,47.494664 22.1722121,47.5925974 26.9501865,51.7936029 C27.2046546,51.8712743 27.8843525,51.9573881 28.5992071,51.9405031 L35.9453009,51.8425696 C37.6378489,51.7936029 39.2450162,52.4504322 40.4554141,53.6644688 C41.6390258,54.8514892 42.285241,56.4218008 42.285241,58.1001768 L42.285241,58.2217493 C42.2249722,61.4923874 39.6401115,64.1889332 36.400665,64.3611609 L27.3871351,64.8373199 Z" id="Fill-3" fill="#2E334E"></path>
                    <path d="M12.2169826,78.358209 L10.3570213,75.5519102 L16.2382491,71.5822302 L35.2245868,71.0250228 C39.5522196,71.0250228 40.7927518,70.2770142 44.1142309,68.2778219 C44.9077697,67.7999744 45.8034307,67.2613406 46.8631566,66.6551666 C49.5685549,65.1152482 53.1746365,62.8053705 56.0708859,60.9497013 L58.9152371,59.1159826 C59.5932608,58.6803478 60.1942744,58.2751061 60.6847953,57.9238966 C60.1390281,57.1809535 59.5011835,56.682844 58.7796324,56.4380104 C57.7165582,56.0699159 56.4475657,56.2539632 55.0178565,56.9833982 C54.0100286,57.4967044 53.0959522,57.9627323 52.0897985,58.2886142 C44.2347684,60.8551449 40.7023487,61.5440558 40.555025,61.5727604 L39.9288994,58.254844 C39.962382,58.24809 43.4445778,57.5642446 51.060207,55.0770738 C51.8169149,54.8288632 52.6154762,54.4236215 53.3855772,54.0301994 C55.7410817,52.8347364 57.9341954,52.5814603 59.8544255,53.2382896 C61.7528919,53.8866763 63.3182058,55.3962016 64.3796059,57.6030803 L64.9253731,58.7394455 L64.0029261,59.5887646 C63.1976683,60.3266422 61.7729815,61.2857142 60.7166038,61.961117 L57.8672301,63.8015897 C54.9374981,65.677521 51.2895632,68.0127263 48.5121772,69.5982344 C47.4775633,70.1841463 46.6053402,70.7109605 45.8302168,71.1769885 C42.2643144,73.3247694 40.4763408,74.4020369 35.2731367,74.4020369 L17.297975,74.9305396 L12.2169826,78.358209 Z" id="Fill-5" fill="#2E334E"></path>
                    <path d="M56.8741347,34.2130364 L53.7702928,32.9432791 C54.6994364,30.638467 55.1698677,28.2171479 55.1698677,25.7485506 C55.1698677,16.2540754 48.1368367,8.11547143 38.8085699,6.81700951 L39.2656081,3.47376555 C50.2412213,4.99848742 58.5181329,14.5756994 58.5181329,25.7485506 C58.5181329,28.6561597 57.963995,31.5046711 56.8741347,34.2130364" id="Fill-7" fill="#2E334E"></path>
                    <path d="M36.2009409,48.2585446 C29.2901216,48.2585446 22.8765196,45.0909054 18.6058074,39.5677988 L21.2475886,37.4892466 C24.8787822,42.1866732 30.3280838,44.8815305 36.2009409,44.8815305 C42.0737981,44.8815305 47.5230997,42.1866732 51.1542933,37.4892466 L53.7960745,39.5677988 C49.5253622,45.0909054 43.1117603,48.2585446 36.2009409,48.2585446" id="Fill-9" fill="#2E334E"></path>
                    <path d="M15.5275798,34.2130364 C14.4360453,31.5012941 13.8819075,28.6527827 13.8819075,25.7485506 C13.8819075,14.5756994 22.158819,4.99848742 33.1344323,3.47376555 L33.5914705,6.81700951 C24.2632037,8.11547143 17.2301726,16.2540754 17.2301726,25.7485506 C17.2301726,28.2154594 17.7006039,30.63509 18.6314216,32.9432791 L15.5275798,34.2130364 Z" id="Fill-11" fill="#2E334E"></path>
                    <polygon id="Fill-13" fill="#2E334E" points="54.1488142 45.7786343 50.800549 45.7786343 50.800549 40.2166921 45.2842821 40.2166921 45.2842821 36.839678 54.1488142 36.839678"></polygon>
                    <g id="Group-17" transform="translate(36.744030, 0.000000)">
                        <mask id="mask-2" fill="white">
                            <use xlink:href="#path-1"></use>
                        </mask>
                        <g id="Clip-16"></g>
                        <polygon id="Fill-15" fill="#2E334E" mask="url(#mask-2)" points="4.51680973 12.2458974 0 4.55305926 7.62567396 -0.000844253525 9.3332892 2.90507638 4.5871233 5.73839121 7.39799193 10.5236202"></polygon>
                    </g>
                    <polygon id="Fill-18" fill="#2E334E" points="17.7314079 35.8618635 9.90818634 31.664235 11.481871 28.6823316 16.3485744 31.294452 18.9401317 26.385962 21.8949757 27.9714701"></polygon>
                    <path d="M32.0629874,19.6760038 C31.0635303,19.6760038 30.0657472,20.0576064 29.3040169,20.8208116 C28.5657244,21.5603777 28.1589102,22.5329577 28.1572316,23.5578815 C28.1555619,24.6554111 28.6226449,25.7343671 29.4731043,26.5921287 C31.3179984,28.4511749 34.3598973,31.4026853 36.0122662,33.0017014 C37.6663092,31.4026853 40.7098823,28.4511749 42.5547764,26.5921287 C43.4035616,25.7343671 43.8723187,24.6554111 43.8706491,23.556193 C43.8689705,22.5312692 43.4621562,21.5603777 42.7238638,20.8208116 C41.198729,19.2893357 38.7193386,19.2944012 37.1958779,20.8292541 L36.0122662,22.0230286 L34.8286545,20.8292541 C34.0669241,20.0609834 33.0657928,19.6760038 32.0629874,19.6760038 L32.0629874,19.6760038 Z M36.0122662,37.6704234 L34.8571147,36.5593858 C34.8068907,36.5104191 29.7493362,31.6458303 27.1058808,28.9796776 C25.6209252,27.4819719 24.8056226,25.5553853 24.8089606,23.552816 C24.810645,21.6245409 25.5690271,19.8043303 26.9418158,18.4265086 C29.4044649,15.9579113 33.20642,15.6354064 36.0122662,17.4741906 C38.8214607,15.6387834 42.6234158,15.9579113 45.0843907,18.4265086 C46.4588536,19.8026418 47.2155615,21.6228524 47.21892,23.5511275 C47.222258,25.5536968 46.4052813,27.4819719 44.9219999,28.9796776 C42.2785445,31.6458303 37.2193158,36.5121076 37.1690918,36.5593858 L36.0122662,37.6704234 Z" id="Fill-20" fill="#2E334E"></path>
                    <path d="M32.0629874,19.6760038 C31.0635303,19.6760038 30.0657472,20.0576064 29.3040169,20.8208116 C28.5657244,21.5603777 28.1589102,22.5329577 28.1572316,23.5578815 C28.1555619,24.6554111 28.6226449,25.7343671 29.4731043,26.5921287 C31.3179984,28.4511749 34.3598973,31.4026853 36.0122662,33.0017014 C37.6663092,31.4026853 40.7098823,28.4511749 42.5547764,26.5921287 C43.4035616,25.7343671 43.8723187,24.6554111 43.8706491,23.556193 C43.8689705,22.5312692 43.4621562,21.5603777 42.7238638,20.8208116 C41.198729,19.2893357 38.7193386,19.2944012 37.1958779,20.8292541 L36.0122662,22.0230286 L34.8286545,20.8292541 C34.0669241,20.0609834 33.0657928,19.6760038 32.0629874,19.6760038" id="Fill-22" fill="#7DD2D3"></path>
                </g>
            </g>
        </g>
    </g>
</svg>